GeoramaExtraExtended-Italic.ufo
<glyph name="exclam" format="2">
  <advance width="345.15"/>
  <unicode hex="0021"/>
  <outline>
    <contour>
      <point x="128.06" y="262.45" type="line"/>
      <point x="211.78" y="262.45" type="line"/>
      <point x="293.29" y="740.0" type="line"/>
      <point x="198.1" y="740.0" type="line"/>
    </contour>
    <contour>
      <point x="77.03" y="31.389999999999997" type="curve" smooth="yes"/>
      <point x="76.34" y="6.89"/>
      <point x="90.88" y="-3.1"/>
      <point x="127.53999999999999" y="-3.1" type="curve" smooth="yes"/>
      <point x="171.27" y="-3.1"/>
      <point x="193.35000000000002" y="8.75"/>
      <point x="195.42000000000002" y="56.86" type="curve" smooth="yes"/>
      <point x="196.11" y="81.36000000000001"/>
      <point x="181.57000000000002" y="91.35000000000001"/>
      <point x="145.21999999999997" y="91.35000000000001" type="curve" smooth="yes"/>
      <point x="99.94" y="91.35000000000001"/>
      <point x="79.1" y="77.95"/>
    </contour>
  </outline>
</glyph>
<glyph name="numbersign" format="2">
  <advance width="1038.96"/>
  <unicode hex="0023"/>
  <outline>
    <contour>
      <point x="221.34" y="458.02" type="line"/>
      <point x="364.58" y="458.02" type="line"/>
      <point x="274.79999999999995" y="233.73" type="line"/>
      <point x="139.39" y="233.73" type="line"/>
      <point x="129.64000000000001" y="171.78" type="line"/>
      <point x="251.98999999999995" y="171.78" type="line"/>
      <point x="184.29" y="0.0" type="line"/>
      <point x="285.2" y="0.0" type="line"/>
      <point x="352.21000000000004" y="171.78" type="line"/>
      <point x="573.11" y="171.78" type="line"/>
      <point x="506.09999999999997" y="0.0" type="line"/>
      <point x="607.01" y="0.0" type="line"/>
      <point x="674.02" y="171.78" type="line"/>
      <point x="830.42" y="171.78" type="line"/>
      <point x="839.86" y="233.73" type="line"/>
      <point x="698.1400000000001" y="233.73" type="line"/>
      <point x="786.6099999999999" y="458.02" type="line"/>
      <point x="921.8100000000001" y="458.02" type="line"/>
      <point x="932.2499999999999" y="519.35" type="line"/>
      <point x="810.1100000000001" y="519.35" type="line"/>
      <point x="882.02" y="700.0" type="line"/>
      <point x="781.11" y="700.0" type="line"/>
      <point x="709.2" y="519.35" type="line"/>
      <point x="488.3" y="519.35" type="line"/>
      <point x="560.21" y="700.0" type="line"/>
      <point x="459.30000000000007" y="700.0" type="line"/>
      <point x="387.39" y="519.35" type="line"/>
      <point x="231.47" y="519.35" type="line"/>
    </contour>
    <contour>
      <point x="465.49" y="458.02" type="line"/>
      <point x="686.39" y="458.02" type="line"/>
      <point x="596.61" y="233.73" type="line"/>
      <point x="375.71000000000004" y="233.73" type="line"/>
    </contour>
  </outline>
</glyph>
<glyph name="dollar" format="2">
  <advance width="1038.96"/>
  <unicode hex="0024"/>
  <outline>
    <contour>
      <point x="922.3599999999999" y="662.8599999999999" type="line"/>
      <point x="873.37" y="677.0999999999999"/>
      <point x="776.74" y="706.14"/>
      <point x="644.5200000000001" y="709.6899999999999" type="curve"/>
      <point x="660.5200000000001" y="805.0" type="line"/>
      <point x="590.44" y="805.0" type="line"/>
      <point x="575.13" y="709.0699999999999" type="line"/>
      <point x="408.39000000000004" y="705.59"/>
      <point x="186.26000000000002" y="668.12"/>
      <point x="186.26000000000002" y="482.40000000000003" type="curve" smooth="yes"/>
      <point x="186.26000000000002" y="229.20000000000002"/>
      <point x="799.9399999999999" y="368.4"/>
      <point x="799.9399999999999" y="198.41" type="curve" smooth="yes"/>
      <point x="799.9399999999999" y="78.6"/>
      <point x="606.34" y="62.629999999999995"/>
      <point x="498.43" y="62.629999999999995" type="curve" smooth="yes"/>
      <point x="351.01" y="62.629999999999995"/>
      <point x="178.17000000000002" y="107.95"/>
      <point x="114.16000000000001" y="131.32" type="curve"/>
      <point x="83.84" y="55.21" type="line"/>
      <point x="159.82999999999998" y="32.42"/>
      <point x="304.22" y="-7.07"/>
      <point x="458.75" y="-9.690000000000001" type="curve"/>
      <point x="443.75" y="-105.0" type="line"/>
      <point x="513.52" y="-105.0" type="line"/>
      <point x="528.52" y="-8.139999999999999" type="line"/>
      <point x="690.5799999999999" y="-0.6299999999999992"/>
      <point x="909.8399999999999" y="30.39999999999999"/>
      <point x="909.8399999999999" y="217.22" type="curve" smooth="yes"/>
      <point x="909.8399999999999" y="466.10999999999996"/>
      <point x="293.91999999999996" y="327.04999999999995"/>
      <point x="293.91999999999996" y="500.66" type="curve" smooth="yes"/>
      <point x="293.91999999999996" y="622.1600000000001"/>
      <point x="485.75999999999993" y="636.13"/>
      <point x="584.1899999999999" y="636.13" type="curve" smooth="yes"/>
      <point x="719.8199999999999" y="636.13"/>
      <point x="820.95" y="613.02"/>
      <point x="893.9000000000001" y="587.68" type="curve"/>
    </contour>
  </outline>
</glyph>
<glyph name="ampersand" format="2">
  <advance width="1071.6399999999999"/>
  <unicode hex="0026"/>
  <outline>
    <contour>
      <point x="426.12" y="-10.0" type="curve" smooth="yes"/>
      <point x="648.88" y="-10.0"/>
      <point x="829.88" y="62.879999999999995"/>
      <point x="909.36" y="293.26" type="curve"/>
      <point x="828.12" y="298.40000000000003" type="line"/>
      <point x="770.0" y="114.97999999999999"/>
      <point x="602.2" y="58.6"/>
      <point x="434.79999999999995" y="58.6" type="curve" smooth="yes"/>
      <point x="259.94" y="58.6"/>
      <point x="166.96" y="116.48"/>
      <point x="166.96" y="191.22" type="curve" smooth="yes"/>
      <point x="166.96" y="306.5"/>
      <point x="321.15999999999997" y="328.91999999999996"/>
      <point x="463.96000000000004" y="328.91999999999996" type="curve" smooth="yes"/>
      <point x="497.86" y="328.91999999999996" type="line"/>
      <point x="507.78000000000003" y="381.78" type="line"/>
      <point x="494.71999999999997" y="383.02" type="line" smooth="yes"/>
      <point x="367.62" y="390.46"/>
      <point x="278.14" y="432.34"/>
      <point x="278.14" y="515.64" type="curve" smooth="yes"/>
      <point x="278.14" y="578.8599999999999"/>
      <point x="340.84" y="646.64"/>
      <point x="470.98" y="646.64" type="curve" smooth="yes"/>
      <point x="549.86" y="646.64"/>
      <point x="633.4000000000001" y="614.08"/>
      <point x="683.78" y="567.1400000000001" type="curve"/>
      <point x="739.56" y="615.86" type="line"/>
      <point x="676.4000000000001" y="674.34"/>
      <point x="569.12" y="710.0"/>
      <point x="460.05999999999995" y="710.0" type="curve" smooth="yes"/>
      <point x="272.52" y="710.0"/>
      <point x="174.44" y="621.58"/>
      <point x="174.44" y="529.9" type="curve" smooth="yes"/>
      <point x="174.44" y="444.54"/>
      <point x="250.22000000000003" y="378.3"/>
      <point x="355.34000000000003" y="367.58" type="curve"/>
      <point x="184.22" y="362.34"/>
      <point x="61.400000000000006" y="310.58000000000004"/>
      <point x="61.400000000000006" y="186.88000000000002" type="curve" smooth="yes"/>
      <point x="61.400000000000006" y="72.38"/>
      <point x="178.66" y="-10.0"/>
    </contour>
    <contour>
      <point x="625.62" y="219.96" type="line"/>
      <point x="631.72" y="277.79999999999995"/>
      <point x="675.6600000000001" y="298.54"/>
      <point x="720.46" y="298.54" type="curve" smooth="yes"/>
      <point x="812.3000000000001" y="298.54"/>
      <point x="861.28" y="261.85999999999996"/>
      <point x="948.54" y="261.85999999999996" type="curve" smooth="yes"/>
      <point x="1033.88" y="261.85999999999996"/>
      <point x="1090.2200000000003" y="328.68"/>
      <point x="1090.22" y="418.8" type="curve"/>
      <point x="1028.44" y="418.8" type="line"/>
      <point x="1028.44" y="361.0"/>
      <point x="990.0200000000001" y="326.74"/>
      <point x="927.22" y="326.74" type="curve" smooth="yes"/>
      <point x="843.4799999999999" y="326.74"/>
      <point x="803.14" y="367.14"/>
      <point x="714.6400000000001" y="367.14" type="curve" smooth="yes"/>
      <point x="641.0" y="367.14"/>
      <point x="577.9" y="319.18"/>
      <point x="571.8" y="238.50000000000003" type="curve"/>
    </contour>
  </outline>
</glyph>
<glyph name="quotesingle" format="2">
  <advance width="214.79"/>
  <unicode hex="0027"/>
  <outline>
    <contour>
      <point x="93.74" y="427.0" type="line"/>
      <point x="168.43" y="427.0" type="line"/>
      <point x="217.29000000000002" y="700.0" type="line"/>
      <point x="131.5" y="700.0" type="line"/>
    </contour>
  </outline>
</glyph>
<glyph name="parenleft" format="2">
  <advance width="472.4"/>
  <unicode hex="0028"/>
  <outline>
    <contour>
      <point x="119.06" y="135.4" type="curve" smooth="yes"/>
      <point x="119.06" y="-39.660000000000004"/>
      <point x="184.98000000000002" y="-190.79"/>
      <point x="354.33" y="-220.0" type="curve"/>
      <point x="364.46" y="-157.98" type="line"/>
      <point x="253.83" y="-130.43"/>
      <point x="199.44" y="-20.03"/>
      <point x="199.44" y="132.79000000000002" type="curve" smooth="yes"/>
      <point x="199.44" y="390.76"/>
      <point x="310.4" y="650.81"/>
      <point x="496.58" y="685.5" type="curve"/>
      <point x="506.71" y="750.0" type="line"/>
      <point x="227.59" y="713.36"/>
      <point x="119.06" y="389.65"/>
    </contour>
  </outline>
</glyph>
<glyph name="parenright" format="2">
  <advance width="472.4"/>
  <unicode hex="0029"/>
  <outline>
    <contour>
      <point x="350.03" y="393.21999999999997" type="curve" smooth="yes"/>
      <point x="350.03" y="573.97"/>
      <point x="282.72999999999996" y="720.79"/>
      <point x="112.69000000000001" y="750.0" type="curve"/>
      <point x="102.56" y="685.05" type="line"/>
      <point x="220.09000000000003" y="656.12"/>
      <point x="269.65000000000003" y="540.89"/>
      <point x="269.65000000000003" y="394.28000000000003" type="curve" smooth="yes"/>
      <point x="269.65000000000003" y="153.56"/>
      <point x="163.52" y="-115.29"/>
      <point x="-28.869999999999997" y="-154.12" type="curve"/>
      <point x="-39.0" y="-220.0" type="line"/>
      <point x="214.59" y="-185.71"/>
      <point x="350.03" y="108.25999999999999"/>
    </contour>
  </outline>
</glyph>
<glyph name="asterisk" format="2">
  <advance width="469.3"/>
  <unicode hex="002A"/>
  <outline>
    <contour>
      <point x="134.64" y="302.01" type="line"/>
      <point x="262.45" y="451.97" type="line"/>
      <point x="340.94" y="302.01" type="line"/>
      <point x="381.21999999999997" y="327.98999999999995" type="line"/>
      <point x="311.48" y="487.21999999999997" type="line"/>
      <point x="480.06000000000006" y="548.74" type="line"/>
      <point x="473.34" y="592.5699999999999" type="line"/>
      <point x="305.59" y="543.59" type="line"/>
      <point x="330.90999999999997" y="730.0" type="line"/>
      <point x="284.08" y="730.0" type="line"/>
      <point x="250.08" y="543.5899999999999" type="line"/>
      <point x="95.92" y="592.57" type="line"/>
      <point x="76.59" y="548.74" type="line"/>
      <point x="225.09999999999997" y="487.21999999999997" type="line"/>
      <point x="102.8" y="329.37" type="line"/>
    </contour>
  </outline>
</glyph>
<glyph name="plus" format="2">
  <advance width="583.3"/>
  <unicode hex="002B"/>
  <outline>
    <contour>
      <point x="218.48" y="76.65" type="line"/>
      <point x="302.51" y="76.65" type="line"/>
      <point x="330.79" y="260.15999999999997" type="line"/>
      <point x="518.51" y="260.15999999999997" type="line"/>
      <point x="531.12" y="336.13" type="line"/>
      <point x="343.4" y="336.13" type="line"/>
      <point x="372.67999999999995" y="519.3299999999999" type="line"/>
      <point x="289.27" y="519.3299999999999" type="line"/>
      <point x="259.37" y="336.13" type="line"/>
      <point x="72.57999999999998" y="336.13" type="line"/>
      <point x="59.97" y="260.15999999999997" type="line"/>
      <point x="247.38000000000002" y="260.15999999999997" type="line"/>
    </contour>
  </outline>
</glyph>
<glyph name="comma" format="2">
  <advance width="263.36"/>
  <unicode hex="002C"/>
  <outline>
    <contour>
      <point x="54.11" y="53.730000000000004" type="line"/>
      <point x="56.56" y="37.25"/>
      <point x="56.699999999999996" y="19.770000000000003"/>
      <point x="55.46000000000001" y="2.5999999999999996" type="curve" smooth="yes"/>
      <point x="51.12" y="-63.42999999999999"/>
      <point x="10.320000000000002" y="-141.88"/>
      <point x="-57.58" y="-181.14000000000001" type="curve"/>
      <point x="11.66" y="-200.0" type="line"/>
      <point x="95.66" y="-157.5"/>
      <point x="151.17" y="-63.12"/>
      <point x="151.17" y="18.59" type="curve" smooth="yes"/>
      <point x="151.17" y="33.73"/>
      <point x="148.79" y="48.18"/>
      <point x="144.41" y="60.25000000000001" type="curve"/>
    </contour>
  </outline>
</glyph>
<glyph name="hyphen" format="2">
  <advance width="469.32"/>
  <unicode hex="002D"/>
  <outline>
    <contour>
      <point x="66.91000000000001" y="242.29000000000002" type="line"/>
      <point x="391.76" y="242.29000000000002" type="line"/>
      <point x="404.37" y="319.88" type="line"/>
      <point x="79.52000000000001" y="319.88" type="line"/>
    </contour>
  </outline>
</glyph>
<glyph name="period" format="2">
  <advance width="267.39"/>
  <unicode hex="002E"/>
  <outline>
    <contour>
      <point x="37.53" y="31.39" type="curve" smooth="yes"/>
      <point x="36.839999999999996" y="6.89"/>
      <point x="51.379999999999995" y="-3.0999999999999996"/>
      <point x="88.04" y="-3.0999999999999996" type="curve" smooth="yes"/>
      <point x="131.77" y="-3.0999999999999996"/>
      <point x="153.85" y="8.75"/>
      <point x="155.92000000000002" y="56.86" type="curve" smooth="yes"/>
      <point x="156.61" y="81.36"/>
      <point x="142.07" y="91.35"/>
      <point x="105.72" y="91.35" type="curve" smooth="yes"/>
      <point x="60.44" y="91.35"/>
      <point x="39.599999999999994" y="77.95"/>
    </contour>
  </outline>
</glyph>
<glyph name="slash" format="2">
  <advance width="487.63"/>
  <unicode hex="002F"/>
  <outline>
    <contour>
      <point x="-67.0" y="-210.0" type="line"/>
      <point x="15.45" y="-210.0" type="line"/>
      <point x="551.6300000000001" y="740.0" type="line"/>
      <point x="468.87" y="740.0" type="line"/>
    </contour>
  </outline>
</glyph>
<glyph name="zero" format="2">
  <advance width="1038.96"/>
  <unicode hex="0030"/>
  <outline>
    <contour>
      <point x="514.8199999999999" y="-10.0" type="curve" smooth="yes"/>
      <point x="792.9" y="-10.0"/>
      <point x="980.8199999999999" y="118.55999999999999"/>
      <point x="980.8199999999999" y="377.0" type="curve" smooth="yes"/>
      <point x="980.8199999999999" y="594.2399999999999"/>
      <point x="817.0000000000001" y="710.0"/>
      <point x="547.14" y="710.0" type="curve" smooth="yes"/>
      <point x="268.06" y="710.0"/>
      <point x="82.14" y="584.06"/>
      <point x="82.14" y="325.62" type="curve" smooth="yes"/>
      <point x="82.14" y="108.38"/>
      <point x="246.95999999999998" y="-10.0"/>
    </contour>
    <contour>
      <point x="516.6800000000001" y="60.459999999999994" type="curve" smooth="yes"/>
      <point x="315.86" y="60.459999999999994"/>
      <point x="190.42000000000002" y="151.86"/>
      <point x="190.42000000000002" y="328.1" type="curve" smooth="yes"/>
      <point x="190.42000000000002" y="531.04"/>
      <point x="319.21999999999997" y="639.54"/>
      <point x="545.9" y="639.54" type="curve" smooth="yes"/>
      <point x="747.48" y="639.54"/>
      <point x="872.54" y="549.5200000000001"/>
      <point x="872.54" y="373.28" type="curve" smooth="yes"/>
      <point x="872.5400000000001" y="171.34000000000003"/>
      <point x="742.36" y="60.459999999999994"/>
    </contour>
  </outline>
</glyph>
<glyph name="one" format="2">
  <advance width="1038.96"/>
  <unicode hex="0031"/>
  <outline>
    <contour>
      <point x="118.32000000000001" y="0.0" type="line"/>
      <point x="905.01" y="0.0" type="line"/>
      <point x="917.3100000000001" y="75.11" type="line"/>
      <point x="606.43" y="75.11" type="line"/>
      <point x="707.75" y="706.9" type="line"/>
      <point x="655.8299999999999" y="706.9" type="line"/>
      <point x="181.78" y="512.0200000000001" type="line"/>
      <point x="196.93999999999997" y="436.6700000000001" type="line"/>
      <point x="585.93" y="599.75" type="line"/>
      <point x="503.18" y="75.11" type="line"/>
      <point x="130.62" y="75.11" type="line"/>
    </contour>
  </outline>
</glyph>
<glyph name="two" format="2">
  <advance width="1038.96"/>
  <unicode hex="0032"/>
  <outline>
    <contour>
      <point x="108.46000000000001" y="57.919999999999995" type="curve"/>
      <point x="102.25999999999999" y="0.0" type="line"/>
      <point x="893.1999999999999" y="0.0" type="line"/>
      <point x="904.36" y="75.42" type="line"/>
      <point x="301.54" y="75.42" type="line"/>
      <point x="740.6200000000001" y="278.08"/>
      <point x="831.24" y="365.73999999999995"/>
      <point x="831.24" y="500.76" type="curve" smooth="yes"/>
      <point x="831.24" y="633.02"/>
      <point x="708.26" y="710.0"/>
      <point x="516.6" y="710.0" type="curve" smooth="yes"/>
      <point x="403.38000000000005" y="710.0"/>
      <point x="277.08000000000004" y="679.9"/>
      <point x="191.26000000000002" y="637.56" type="curve"/>
      <point x="206.8" y="561.9" type="line"/>
      <point x="292.1" y="598.52"/>
      <point x="392.21999999999997" y="628.52"/>
      <point x="504.06" y="628.52" type="curve" smooth="yes"/>
      <point x="636.36" y="628.52"/>
      <point x="722.96" y="581.2"/>
      <point x="722.96" y="486.21999999999997" type="curve" smooth="yes"/>
      <point x="722.96" y="355.52"/>
      <point x="543.26" y="258.42"/>
    </contour>
  </outline>
</glyph>
<glyph name="three" format="2">
  <advance width="1038.96"/>
  <unicode hex="0033"/>
  <outline>
    <contour>
      <point x="40.9" y="73.36" type="line"/>
      <point x="158.04" y="16.8"/>
      <point x="295.66" y="-10.0"/>
      <point x="466.78" y="-10.0" type="curve" smooth="yes"/>
      <point x="721.16" y="-10.0"/>
      <point x="911.06" y="60.40000000000001"/>
      <point x="911.06" y="222.92000000000002" type="curve" smooth="yes"/>
      <point x="911.06" y="306.24"/>
      <point x="840.28" y="355.28"/>
      <point x="718.1600000000001" y="371.0" type="curve"/>
      <point x="816.8199999999999" y="386.24"/>
      <point x="905.8" y="447.2"/>
      <point x="905.8" y="548.0" type="curve" smooth="yes"/>
      <point x="905.8" y="651.14"/>
      <point x="786.0400000000001" y="710.0"/>
      <point x="546.9599999999999" y="710.0" type="curve" smooth="yes"/>
      <point x="430.54" y="710.0"/>
      <point x="284.1" y="689.9"/>
      <point x="184.68" y="661.8" type="curve"/>
      <point x="199.59999999999997" y="587.38" type="line"/>
      <point x="297.88000000000005" y="613.86"/>
      <point x="427.68000000000006" y="631.86"/>
      <point x="520.4" y="631.86" type="curve" smooth="yes"/>
      <point x="696.5" y="631.86"/>
      <point x="797.1400000000001" y="594.98"/>
      <point x="797.1400000000001" y="523.0600000000001" type="curve" smooth="yes"/>
      <point x="797.1400000000001" y="440.06"/>
      <point x="702.06" y="398.84"/>
      <point x="569.78" y="398.84" type="curve" smooth="yes"/>
      <point x="314.4599999999999" y="398.84" type="line"/>
      <point x="302.78" y="326.76" type="line"/>
      <point x="546.92" y="326.76" type="line" smooth="yes"/>
      <point x="720.5400000000001" y="326.76"/>
      <point x="802.64" y="288.15999999999997"/>
      <point x="802.64" y="213.58" type="curve" smooth="yes"/>
      <point x="802.64" y="119.72"/>
      <point x="689.4" y="67.52"/>
      <point x="478.36000000000007" y="67.52" type="curve" smooth="yes"/>
      <point x="309.82" y="67.52"/>
      <point x="178.48" y="93.94"/>
      <point x="72.74" y="145.3" type="curve"/>
    </contour>
  </outline>
</glyph>
<glyph name="four" format="2">
  <advance width="1038.96"/>
  <unicode hex="0034"/>
  <outline>
    <contour>
      <point x="60.919999999999995" y="169.42000000000002" type="line"/>
      <point x="656.82" y="169.42000000000002" type="line"/>
      <point x="629.02" y="-5.14" type="line"/>
      <point x="732.58" y="-5.14" type="line"/>
      <point x="760.38" y="169.42000000000002" type="line"/>
      <point x="945.44" y="169.42000000000002" type="line"/>
      <point x="956.5" y="238.02" type="line"/>
      <point x="771.44" y="238.02" type="line"/>
      <point x="844.82" y="695.4799999999999" type="line"/>
      <point x="784.6" y="702.3799999999999" type="line"/>
      <point x="67.74" y="224.48" type="line"/>
    </contour>
    <contour>
      <point x="193.88" y="238.02" type="line"/>
      <point x="723.38" y="585.9599999999999" type="line"/>
      <point x="667.8800000000001" y="238.02" type="line"/>
    </contour>
  </outline>
</glyph>
<glyph name="five" format="2">
  <advance width="1038.96"/>
  <unicode hex="0035"/>
  <outline>
    <contour>
      <point x="75.76" y="73.36000000000001" type="line"/>
      <point x="174.1" y="18.939999999999998"/>
      <point x="292.92" y="-10.0"/>
      <point x="462.18" y="-10.0" type="curve" smooth="yes"/>
      <point x="784.96" y="-10.0"/>
      <point x="913.6800000000001" y="89.38"/>
      <point x="913.6800000000001" y="245.26" type="curve" smooth="yes"/>
      <point x="913.6800000000001" y="365.16"/>
      <point x="830.22" y="422.3"/>
      <point x="628.4" y="422.3" type="curve" smooth="yes"/>
      <point x="274.54" y="422.3" type="line"/>
      <point x="340.36" y="622.1" type="line"/>
      <point x="909.24" y="622.1" type="line"/>
      <point x="923.1600000000001" y="700.0" type="line"/>
      <point x="282.72" y="700.0" type="line"/>
      <point x="171.55999999999997" y="362.46" type="line"/>
      <point x="179.18" y="353.7" type="line"/>
      <point x="577.0600000000001" y="353.7" type="line" smooth="yes"/>
      <point x="745.02" y="353.7"/>
      <point x="813.9399999999999" y="322.44"/>
      <point x="813.9399999999999" y="233.67999999999998" type="curve" smooth="yes"/>
      <point x="813.9399999999999" y="125.58"/>
      <point x="686.46" y="66.03999999999999"/>
      <point x="471.76" y="66.03999999999999" type="curve" smooth="yes"/>
      <point x="310.84" y="66.03999999999999"/>
      <point x="193.4" y="97.22"/>
      <point x="107.22000000000001" y="143.44" type="curve"/>
    </contour>
  </outline>
</glyph>
<glyph name="six" format="2">
  <advance width="1038.96"/>
  <unicode hex="0036"/>
  <note>
14
</note>
  <outline>
    <contour>
      <point x="499.0" y="-10.0" type="curve" smooth="yes"/>
      <point x="767.96" y="-10.0"/>
      <point x="958.9599999999999" y="57.16"/>
      <point x="958.9599999999999" y="236.96" type="curve" smooth="yes"/>
      <point x="958.9599999999999" y="369.76"/>
      <point x="843.2" y="446.96"/>
      <point x="618.8199999999999" y="446.96" type="curve" smooth="yes"/>
      <point x="475.42" y="446.96"/>
      <point x="306.18" y="412.74"/>
      <point x="194.57999999999998" y="356.66" type="curve"/>
      <point x="189.86" y="285.4" type="line"/>
      <point x="286.40000000000003" y="339.03999999999996"/>
      <point x="443.34000000000003" y="375.26"/>
      <point x="579.6199999999999" y="375.26" type="curve" smooth="yes"/>
      <point x="767.6800000000001" y="375.26"/>
      <point x="853.4" y="326.0"/>
      <point x="853.4" y="234.00000000000003" type="curve" smooth="yes"/>
      <point x="853.4" y="124.34"/>
      <point x="737.12" y="64.18"/>
      <point x="520.5400000000001" y="64.18" type="curve" smooth="yes"/>
      <point x="302.65999999999997" y="64.18"/>
      <point x="199.06" y="130.06"/>
      <point x="199.06" y="287.91999999999996" type="curve" smooth="yes"/>
      <point x="199.06" y="410.46000000000004"/>
      <point x="251.72" y="505.24"/>
      <point x="346.32" y="564.46" type="curve" smooth="yes"/>
      <point x="420.40000000000003" y="610.5400000000001"/>
      <point x="520.52" y="633.96"/>
      <point x="638.5400000000001" y="633.96" type="curve" smooth="yes"/>
      <point x="756.2" y="633.96"/>
      <point x="851.6600000000001" y="621.2"/>
      <point x="954.5999999999999" y="592.92" type="curve"/>
      <point x="981.4399999999999" y="666.24" type="line"/>
      <point x="886.84" y="693.38"/>
      <point x="767.84" y="710.0"/>
      <point x="642.5400000000001" y="710.0" type="curve" smooth="yes"/>
      <point x="310.92" y="710.0"/>
      <point x="96.84" y="555.4399999999999"/>
      <point x="96.84" y="280.91999999999996" type="curve" smooth="yes"/>
      <point x="96.84" y="80.62"/>
      <point x="236.48" y="-10.0"/>
    </contour>
  </outline>
</glyph>
<glyph name="seven" format="2">
  <advance width="1038.96"/>
  <unicode hex="0037"/>
  <note>
9
</note>
  <outline>
    <contour>
      <point x="298.42" y="0.0" type="curve"/>
      <point x="407.59999999999997" y="0.0" type="line"/>
      <point x="432.97999999999996" y="145.92"/>
      <point x="513.4" y="231.88000000000002"/>
      <point x="700.52" y="406.62" type="curve" smooth="yes"/>
      <point x="943.9200000000001" y="633.64" type="line"/>
      <point x="954.98" y="700.0" type="line"/>
      <point x="168.06" y="700.0" type="line"/>
      <point x="155.76" y="619.2399999999999" type="line"/>
      <point x="814.6200000000001" y="619.2399999999999" type="line"/>
      <point x="589.04" y="412.28" type="line" smooth="yes"/>
      <point x="407.02000000000004" y="244.88000000000002"/>
      <point x="323.94" y="158.39999999999998"/>
    </contour>
  </outline>
</glyph>
<glyph name="eight" format="2">
  <advance width="1038.96"/>
  <unicode hex="0038"/>
  <outline>
    <contour>
      <point x="481.06" y="-10.0" type="curve" smooth="yes"/>
      <point x="733.02" y="-10.0"/>
      <point x="950.7399999999999" y="28.14"/>
      <point x="950.7399999999999" y="218.2" type="curve" smooth="yes"/>
      <point x="950.7399999999999" y="489.42"/>
      <point x="260.2" y="320.88"/>
      <point x="260.2" y="513.6999999999999" type="curve" smooth="yes"/>
      <point x="260.2" y="611.1199999999999"/>
      <point x="387.97999999999996" y="640.78"/>
      <point x="565.56" y="640.78" type="curve" smooth="yes"/>
      <point x="764.8199999999999" y="640.78"/>
      <point x="848.6999999999999" y="601.3199999999999"/>
      <point x="848.6999999999999" y="526.7800000000001" type="curve" smooth="yes"/>
      <point x="848.6999999999999" y="449.58"/>
      <point x="795.5400000000001" y="413.64"/>
      <point x="682.86" y="375.46000000000004" type="curve"/>
      <point x="765.0400000000001" y="355.96" type="line"/>
      <point x="869.02" y="389.62"/>
      <point x="942.0999999999999" y="442.09999999999997"/>
      <point x="942.0999999999999" y="540.1800000000001" type="curve" smooth="yes"/>
      <point x="942.0999999999999" y="648.6600000000001"/>
      <point x="831.38" y="710.0"/>
      <point x="571.1400000000001" y="710.0" type="curve" smooth="yes"/>
      <point x="350.56" y="710.0"/>
      <point x="163.08" y="668.66"/>
      <point x="163.08" y="503.64000000000004" type="curve" smooth="yes"/>
      <point x="163.08" y="230.15999999999997"/>
      <point x="841.2199999999999" y="409.52"/>
      <point x="841.2199999999999" y="204.8" type="curve" smooth="yes"/>
      <point x="841.2199999999999" y="81.58"/>
      <point x="681.86" y="54.88"/>
      <point x="488.26000000000005" y="54.88" type="curve" smooth="yes"/>
      <point x="262.03999999999996" y="54.88"/>
      <point x="169.36" y="100.96"/>
      <point x="169.36" y="190.92" type="curve" smooth="yes"/>
      <point x="169.36" y="279.02000000000004"/>
      <point x="241.08" y="330.0"/>
      <point x="361.23999999999995" y="358.79999999999995" type="curve"/>
      <point x="274.78000000000003" y="387.12" type="line"/>
      <point x="152.74" y="358.18"/>
      <point x="65.42" y="293.32000000000005"/>
      <point x="65.42" y="181.58" type="curve" smooth="yes"/>
      <point x="65.42" y="55.339999999999996"/>
      <point x="188.14" y="-10.0"/>
    </contour>
  </outline>
</glyph>
<glyph name="nine" format="2">
  <advance width="1038.96"/>
  <unicode hex="0039"/>
  <outline>
    <contour>
      <point x="575.1" y="710.0" type="curve" smooth="yes"/>
      <point x="275.76" y="710.0"/>
      <point x="118.94" y="621.76"/>
      <point x="118.94" y="458.7" type="curve" smooth="yes"/>
      <point x="118.94" y="325.9"/>
      <point x="234.7" y="253.04000000000002"/>
      <point x="459.08" y="253.04000000000002" type="curve" smooth="yes"/>
      <point x="602.4799999999999" y="253.04000000000002"/>
      <point x="771.72" y="287.26"/>
      <point x="883.32" y="343.34" type="curve"/>
      <point x="888.0400000000001" y="414.6" type="line"/>
      <point x="791.4999999999999" y="360.96"/>
      <point x="634.5600000000001" y="324.74"/>
      <point x="498.28000000000003" y="324.74" type="curve" smooth="yes"/>
      <point x="310.22" y="324.74"/>
      <point x="224.5" y="374.0"/>
      <point x="224.5" y="466.0" type="curve" smooth="yes"/>
      <point x="224.5" y="575.66"/>
      <point x="336.98" y="635.82"/>
      <point x="553.5600000000001" y="635.82" type="curve" smooth="yes"/>
      <point x="771.4399999999999" y="635.82"/>
      <point x="878.84" y="569.94"/>
      <point x="878.84" y="412.08000000000004" type="curve" smooth="yes"/>
      <point x="878.84" y="289.53999999999996"/>
      <point x="826.18" y="194.76"/>
      <point x="731.58" y="135.54" type="curve" smooth="yes"/>
      <point x="657.5" y="89.46000000000001"/>
      <point x="557.38" y="66.03999999999999"/>
      <point x="439.36" y="66.03999999999999" type="curve" smooth="yes"/>
      <point x="321.7" y="66.03999999999999"/>
      <point x="226.24" y="78.80000000000001"/>
      <point x="123.3" y="107.08" type="curve"/>
      <point x="96.46" y="33.760000000000005" type="line"/>
      <point x="191.06" y="6.62"/>
      <point x="310.06" y="-10.0"/>
      <point x="435.36" y="-10.0" type="curve" smooth="yes"/>
      <point x="766.98" y="-10.0"/>
      <point x="981.0600000000001" y="144.56"/>
      <point x="981.0600000000001" y="419.08" type="curve" smooth="yes"/>
      <point x="981.0600000000001" y="614.42"/>
      <point x="844.44" y="710.0"/>
    </contour>
  </outline>
</glyph>
<glyph name="less" format="2">
  <advance width="583.99"/>
  <unicode hex="003C"/>
  <outline>
    <contour>
      <point x="485.82" y="54.120000000000005" type="line"/>
      <point x="498.43" y="134.64000000000001" type="line"/>
      <point x="151.03" y="297.99" type="line"/>
      <point x="550.89" y="461.03000000000003" type="line"/>
      <point x="563.5" y="542.86" type="line"/>
      <point x="72.58" y="340.84999999999997" type="line"/>
      <point x="59.660000000000004" y="258.85" type="line"/>
    </contour>
  </outline>
</glyph>
<glyph name="equal" format="2">
  <advance width="583.61"/>
  <unicode hex="003D"/>
  <outline>
    <contour>
      <point x="513.88" y="227.38" type="line"/>
      <point x="55.34" y="227.38" type="line"/>
      <point x="42.73" y="151.41" type="line"/>
      <point x="501.27" y="151.41" type="line"/>
    </contour>
    <contour>
      <point x="548.6700000000001" y="446.95" type="line"/>
      <point x="89.82000000000001" y="446.95" type="line"/>
      <point x="77.52" y="370.98" type="line"/>
      <point x="536.06" y="370.98" type="line"/>
    </contour>
  </outline>
</glyph>
<glyph name="greater" format="2">
  <advance width="583.99"/>
  <unicode hex="003E"/>
  <outline>
    <contour>
      <point x="518.82" y="258.85" type="line"/>
      <point x="531.12" y="336.2" type="line"/>
      <point x="105.58" y="539.76" type="line"/>
      <point x="92.35000000000001" y="461.72" type="line"/>
      <point x="440.06" y="297.99" type="line"/>
      <point x="40.51" y="135.33" type="line"/>
      <point x="27.59" y="54.120000000000005" type="line"/>
    </contour>
  </outline>
</glyph>
<glyph name="question" format="2">
  <advance width="669.75"/>
  <unicode hex="003F"/>
  <outline>
    <contour>
      <point x="262.03" y="260.69" type="line"/>
      <point x="345.44" y="260.69" type="line"/>
      <point x="356.13" y="319.56" type="line"/>
      <point x="555.54" y="364.14000000000004"/>
      <point x="675.05" y="426.66999999999996"/>
      <point x="675.05" y="572.9399999999999" type="curve" smooth="yes"/>
      <point x="675.05" y="703.39"/>
      <point x="540.8799999999999" y="750.0"/>
      <point x="411.31" y="750.0" type="curve" smooth="yes"/>
      <point x="303.16999999999996" y="750.0"/>
      <point x="171.9" y="720.69"/>
      <point x="74.61999999999999" y="667.93" type="curve"/>
      <point x="88.44" y="598.06" type="line"/>
      <point x="184.03" y="643.3399999999999"/>
      <point x="291.46" y="671.93"/>
      <point x="392.81" y="671.93" type="curve" smooth="yes"/>
      <point x="485.86999999999995" y="671.93"/>
      <point x="574.0699999999999" y="652.5"/>
      <point x="574.0699999999999" y="555.54" type="curve" smooth="yes"/>
      <point x="574.0699999999999" y="474.72"/>
      <point x="520.5300000000001" y="413.38"/>
      <point x="277.2" y="371.83000000000004" type="curve"/>
    </contour>
    <contour>
      <point x="215.59" y="29.63" type="curve" smooth="yes"/>
      <point x="215.9" y="6.58"/>
      <point x="230.13" y="-3.1"/>
      <point x="266.1" y="-3.1" type="curve" smooth="yes"/>
      <point x="308.76" y="-3.1"/>
      <point x="335.22" y="8.75"/>
      <point x="334.29" y="57.93" type="curve" smooth="yes"/>
      <point x="333.98" y="81.36000000000001"/>
      <point x="319.44" y="91.04"/>
      <point x="284.09" y="91.04" type="curve" smooth="yes"/>
      <point x="240.19" y="91.04"/>
      <point x="214.66000000000003" y="78.26"/>
    </contour>
  </outline>
</glyph>
<glyph name="at" format="2">
  <advance width="1068.6"/>
  <unicode hex="0040"/>
  <outline>
    <contour>
      <point x="450.08000000000004" y="-119.48" type="curve" smooth="yes"/>
      <point x="545.6800000000001" y="-119.48"/>
      <point x="638.5" y="-98.53999999999999"/>
      <point x="728.58" y="-59.94" type="curve"/>
      <point x="719.34" y="-10.46" type="line"/>
      <point x="630.5" y="-46.2"/>
      <point x="536.76" y="-63.52"/>
      <point x="456.18" y="-63.52" type="curve" smooth="yes"/>
      <point x="248.78" y="-63.52"/>
      <point x="122.8" y="49.46"/>
      <point x="122.8" y="229.27999999999997" type="curve" smooth="yes"/>
      <point x="122.8" y="482.38"/>
      <point x="326.88" y="676.92"/>
      <point x="609.78" y="676.92" type="curve" smooth="yes"/>
      <point x="832.48" y="676.92"/>
      <point x="960.0799999999999" y="565.52"/>
      <point x="960.0799999999999" y="386.58000000000004" type="curve" smooth="yes"/>
      <point x="960.0799999999999" y="246.38"/>
      <point x="887.1600000000001" y="133.08"/>
      <point x="811.38" y="133.08" type="curve" smooth="yes"/>
      <point x="755.6" y="133.08"/>
      <point x="746.54" y="184.28"/>
      <point x="762.44" y="261.3" type="curve" smooth="yes"/>
      <point x="813.16" y="502.5" type="line"/>
      <point x="744.4000000000001" y="524.2199999999999"/>
      <point x="667.98" y="537.18"/>
      <point x="612.06" y="537.18" type="curve" smooth="yes"/>
      <point x="411.34000000000003" y="537.18"/>
      <point x="264.34" y="410.7"/>
      <point x="264.34" y="244.08" type="curve" smooth="yes"/>
      <point x="264.34" y="134.26"/>
      <point x="327.06" y="76.78"/>
      <point x="439.44" y="76.78" type="curve" smooth="yes"/>
      <point x="529.58" y="76.78"/>
      <point x="624.0799999999999" y="125.92"/>
      <point x="674.54" y="194.04000000000002" type="curve"/>
      <point x="674.94" y="106.58"/>
      <point x="725.82" y="70.67999999999999"/>
      <point x="795.54" y="70.67999999999999" type="curve" smooth="yes"/>
      <point x="923.72" y="70.67999999999999"/>
      <point x="1020.62" y="213.68000000000004"/>
      <point x="1020.62" y="388.29999999999995" type="curve" smooth="yes"/>
      <point x="1020.62" y="598.5"/>
      <point x="866.1399999999999" y="732.26"/>
      <point x="619.56" y="732.26" type="curve" smooth="yes"/>
      <point x="295.21999999999997" y="732.26"/>
      <point x="62.02" y="518.6"/>
      <point x="62.02" y="223.42000000000002" type="curve" smooth="yes"/>
      <point x="62.02" y="11.760000000000002"/>
      <point x="211.22" y="-119.48"/>
    </contour>
    <contour>
      <point x="482.26000000000005" y="150.1" type="curve" smooth="yes"/>
      <point x="402.43999999999994" y="150.1"/>
      <point x="361.46" y="188.8"/>
      <point x="361.46" y="260.34" type="curve" smooth="yes"/>
      <point x="361.46" y="378.24"/>
      <point x="460.88" y="466.72"/>
      <point x="590.76" y="466.72" type="curve" smooth="yes"/>
      <point x="638.08" y="466.72"/>
      <point x="670.78" y="461.96"/>
      <point x="713.9" y="448.06" type="curve"/>
      <point x="674.34" y="264.28" type="line" smooth="yes"/>
      <point x="640.98" y="199.98"/>
      <point x="558.84" y="150.1"/>
    </contour>
  </outline>
</glyph>
<glyph name="A" format="2">
  <advance width="931.53"/>
  <unicode hex="0041"/>
  <anchor x="422.55400000000003" y="0.0" name="bottom"/>
  <anchor x="877.2500000000001" y="0.0" name="ogonek"/>
  <anchor x="535.97" y="700.0" name="top"/>
  <outline>
    <contour>
      <point x="-33.72" y="0.0" type="line"/>
      <point x="87.0" y="0.0" type="line"/>
      <point x="218.04" y="184.49" type="line"/>
      <point x="685.78" y="184.49" type="line"/>
      <point x="758.46" y="0.0" type="line"/>
      <point x="877.2500000000001" y="0.0" type="line"/>
      <point x="586.23" y="710.0" type="line"/>
      <point x="483.53999999999996" y="710.0" type="line"/>
    </contour>
    <contour>
      <point x="261.8" y="256.5" type="line"/>
      <point x="522.8100000000001" y="618.2099999999999" type="line"/>
      <point x="666.62" y="256.5" type="line"/>
    </contour>
  </outline>
</glyph>
<glyph name="B" format="2">
  <advance width="993.82"/>
  <unicode hex="0042"/>
  <outline>
    <contour>
      <point x="74.54" y="5.0" type="line"/>
      <point x="277.14" y="-5.62"/>
      <point x="353.4" y="-10.0"/>
      <point x="487.8" y="-10.0" type="curve" smooth="yes"/>
      <point x="667.12" y="-10.0"/>
      <point x="928.1399999999999" y="-4.859999999999997"/>
      <point x="928.1399999999999" y="222.82" type="curve" smooth="yes"/>
      <point x="928.1399999999999" y="308.72"/>
      <point x="854.3000000000001" y="368.62"/>
      <point x="756.2799999999999" y="377.34000000000003" type="curve"/>
      <point x="833.72" y="398.15999999999997"/>
      <point x="925.52" y="447.03999999999996"/>
      <point x="925.52" y="553.2800000000001" type="curve" smooth="yes"/>
      <point x="925.52" y="665.84"/>
      <point x="820.1400000000001" y="710.0"/>
      <point x="578.7199999999999" y="710.0" type="curve" smooth="yes"/>
      <point x="488.9" y="710.0"/>
      <point x="382.64000000000004" y="706.0"/>
      <point x="185.4" y="695.0" type="curve"/>
    </contour>
    <contour>
      <point x="243.68" y="395.74" type="line"/>
      <point x="278.9" y="621.8199999999999" type="line"/>
      <point x="381.16" y="627.58"/>
      <point x="462.3" y="633.7199999999999"/>
      <point x="559.46" y="633.7199999999999" type="curve" smooth="yes"/>
      <point x="736.42" y="633.7199999999999"/>
      <point x="815.62" y="608.9599999999999"/>
      <point x="815.62" y="526.2400000000001" type="curve" smooth="yes"/>
      <point x="815.62" y="428.52000000000004"/>
      <point x="693.76" y="395.74"/>
      <point x="614.24" y="395.74" type="curve" smooth="yes"/>
    </contour>
    <contour>
      <point x="232.0" y="330.62" type="line"/>
      <point x="606.6399999999999" y="330.62" type="line" smooth="yes"/>
      <point x="702.0199999999999" y="330.62"/>
      <point x="816.76" y="309.96000000000004"/>
      <point x="816.76" y="219.20000000000002" type="curve" smooth="yes"/>
      <point x="816.76" y="75.84"/>
      <point x="646.56" y="64.8"/>
      <point x="492.56" y="64.8" type="curve" smooth="yes"/>
      <point x="382.24" y="64.8"/>
      <point x="304.05999999999995" y="70.94"/>
      <point x="192.01999999999998" y="76.07999999999998" type="curve"/>
    </contour>
  </outline>
</glyph>
<glyph name="C" format="2">
  <advance width="998.9"/>
  <unicode hex="0043"/>
  <anchor x="540.7" y="0.0" name="bottom"/>
  <anchor x="635.46" y="700.0" name="top"/>
  <outline>
    <contour>
      <point x="567.86" y="-10.0" type="curve" smooth="yes"/>
      <point x="697.8" y="-10.0"/>
      <point x="810.0799999999999" y="5.76"/>
      <point x="912.0999999999999" y="37.28" type="curve"/>
      <point x="900.52" y="113.80000000000001" type="line"/>
      <point x="808.1799999999998" y="87.38000000000001"/>
      <point x="703.72" y="70.38"/>
      <point x="582.0200000000001" y="70.38" type="curve" smooth="yes"/>
      <point x="334.84000000000003" y="70.38"/>
      <point x="189.12" y="152.34"/>
      <point x="189.12" y="318.06" type="curve" smooth="yes"/>
      <point x="189.12" y="514.24"/>
      <point x="348.78" y="629.62"/>
      <point x="622.9799999999999" y="629.62" type="curve" smooth="yes"/>
      <point x="741.02" y="629.62"/>
      <point x="846.42" y="612.28"/>
      <point x="949.6399999999999" y="584.0" type="curve"/>
      <point x="973.0" y="660.28" type="line"/>
      <point x="849.4199999999998" y="697.6199999999999"/>
      <point x="743.4" y="710.0"/>
      <point x="617.68" y="710.0" type="curve" smooth="yes"/>
      <point x="278.12" y="710.0"/>
      <point x="78.98" y="560.0999999999999"/>
      <point x="78.98" y="309.38" type="curve" smooth="yes"/>
      <point x="78.98" y="95.94"/>
      <point x="254.88" y="-10.0"/>
    </contour>
  </outline>
</glyph>
<glyph name="D" format="2">
  <advance width="1076.1"/>
  <unicode hex="0044"/>
  <anchor x="471.68" y="0.0" name="bottom"/>
  <anchor x="530.1599999999999" y="350.0" name="center"/>
  <anchor x="554.8399999999999" y="700.0" name="top"/>
  <outline>
    <contour>
      <point x="457.74" y="-10.0" type="curve" smooth="yes"/>
      <point x="783.1" y="-10.0"/>
      <point x="1018.7399999999999" y="104.06000000000002"/>
      <point x="1018.7399999999999" y="376.1" type="curve" smooth="yes"/>
      <point x="1018.7399999999999" y="644.68"/>
      <point x="791.56" y="710.0"/>
      <point x="523.1599999999999" y="710.0" type="curve" smooth="yes"/>
      <point x="409.15999999999997" y="710.0"/>
      <point x="303.38" y="707.0"/>
      <point x="185.4" y="700.0" type="curve"/>
      <point x="73.16" y="0.0" type="line"/>
      <point x="202.26" y="-8.38"/>
      <point x="296.90000000000003" y="-10.0"/>
    </contour>
    <contour>
      <point x="461.9" y="63.56" type="curve" smooth="yes"/>
      <point x="353.78000000000003" y="63.56"/>
      <point x="282.38" y="65.56"/>
      <point x="190.64" y="71.32000000000001" type="curve"/>
      <point x="279.52" y="628.54" type="line"/>
      <point x="332.70000000000005" y="633.3"/>
      <point x="433.04" y="637.0600000000001"/>
      <point x="527.5" y="637.0600000000001" type="curve" smooth="yes"/>
      <point x="716.6" y="637.0600000000001"/>
      <point x="909.4599999999999" y="589.4799999999999"/>
      <point x="909.4599999999999" y="370.38" type="curve" smooth="yes"/>
      <point x="909.4599999999999" y="155.77999999999997"/>
      <point x="722.06" y="63.56"/>
    </contour>
  </outline>
</glyph>
<glyph name="E" format="2">
  <advance width="918.56"/>
  <unicode hex="0045"/>
  <anchor x="447.34" y="0.0" name="bottom"/>
  <anchor x="821.14" y="0.0" name="ogonek"/>
  <anchor x="543.7199999999999" y="700.0" name="top"/>
  <anchor x="107.69999999999999" y="700.0" name="topleft"/>
  <outline>
    <contour>
      <point x="73.16" y="0.0" type="line"/>
      <point x="821.14" y="0.0" type="line"/>
      <point x="835.3000000000001" y="84.72" type="line"/>
      <point x="190.01999999999998" y="84.72" type="line"/>
      <point x="229.04" y="329.97999999999996" type="line"/>
      <point x="816.7" y="329.97999999999996" type="line"/>
      <point x="830.2400000000001" y="412.21999999999997" type="line"/>
      <point x="241.58" y="412.21999999999997" type="line"/>
      <point x="273.94" y="615.2800000000001" type="line"/>
      <point x="892.22" y="615.2800000000001" type="line"/>
      <point x="906.3800000000001" y="700.0" type="line"/>
      <point x="185.4" y="700.0" type="line"/>
    </contour>
  </outline>
</glyph>
<glyph name="F" format="2">
  <advance width="874.0799999999999"/>
  <unicode hex="0046"/>
  <outline>
    <contour>
      <point x="73.16" y="0.0" type="line"/>
      <point x="178.95999999999998" y="0.0" type="line"/>
      <point x="221.76" y="261.21999999999997" type="line"/>
      <point x="766.8399999999999" y="261.21999999999997" type="line"/>
      <point x="779.38" y="345.94000000000005" type="line"/>
      <point x="234.92000000000002" y="345.94000000000005" type="line"/>
      <point x="277.04" y="615.2800000000001" type="line"/>
      <point x="889.7400000000001" y="615.2800000000001" type="line"/>
      <point x="903.8999999999999" y="700.0" type="line"/>
      <point x="185.4" y="700.0" type="line"/>
    </contour>
  </outline>
</glyph>
<glyph name="G" format="2">
  <advance width="1019.79"/>
  <unicode hex="0047"/>
  <anchor x="507.48" y="0.0" name="bottom"/>
  <anchor x="632.11" y="700.0" name="top"/>
  <outline>
    <contour>
      <point x="528.7" y="-10.0" type="curve" smooth="yes"/>
      <point x="693.3" y="-10.0"/>
      <point x="819.16" y="20.860000000000003"/>
      <point x="901.88" y="53.86000000000001" type="curve"/>
      <point x="949.39" y="345.89" type="line"/>
      <point x="557.78" y="345.89" type="line"/>
      <point x="546.41" y="275.74" type="line"/>
      <point x="843.69" y="275.74" type="line"/>
      <point x="816.99" y="108.71" type="line"/>
      <point x="754.1099999999999" y="82.15"/>
      <point x="662.05" y="64.18"/>
      <point x="551.3000000000001" y="64.18" type="curve" smooth="yes"/>
      <point x="344.34000000000003" y="64.18"/>
      <point x="185.95" y="143.75"/>
      <point x="185.95" y="314.34000000000003" type="curve" smooth="yes"/>
      <point x="185.95" y="518.38"/>
      <point x="355.16" y="630.5500000000001"/>
      <point x="629.8299999999999" y="630.5500000000001" type="curve" smooth="yes"/>
      <point x="745.97" y="630.5500000000001"/>
      <point x="830.8299999999999" y="617.55"/>
      <point x="936.6999999999999" y="589.2" type="curve"/>
      <point x="967.8100000000001" y="664.17" type="line"/>
      <point x="864.65" y="695.1700000000001"/>
      <point x="751.79" y="710.0"/>
      <point x="627.9399999999999" y="710.0" type="curve" smooth="yes"/>
      <point x="282.64" y="710.0"/>
      <point x="77.97999999999999" y="567.41"/>
      <point x="77.97999999999999" y="303.45" type="curve" smooth="yes"/>
      <point x="77.97999999999999" y="95.55"/>
      <point x="269.65" y="-10.0"/>
    </contour>
  </outline>
</glyph>
<glyph name="H" format="2">
  <advance width="1098.6299999999999"/>
  <unicode hex="0048"/>
  <anchor x="506.10400000000004" y="0.0" name="bottom"/>
  <anchor x="561.539" y="350.0" name="center"/>
  <anchor x="616.973" y="700.0" name="top"/>
  <anchor x="87.313" y="700.0" name="topleft"/>
  <outline>
    <contour>
      <point x="72.85" y="0.0" type="line"/>
      <point x="178.95999999999998" y="0.0" type="line"/>
      <point x="221.24" y="267.44" type="line"/>
      <point x="876.12" y="267.44" type="line"/>
      <point x="833.22" y="0.0" type="line"/>
      <point x="936.54" y="0.0" type="line"/>
      <point x="1048.7800000000002" y="700.0" type="line"/>
      <point x="945.77" y="700.0" type="line"/>
      <point x="889.66" y="352.15999999999997" type="line"/>
      <point x="234.78" y="352.15999999999997" type="line"/>
      <point x="291.2" y="700.0" type="line"/>
      <point x="185.09" y="700.0" type="line"/>
    </contour>
  </outline>
</glyph>
<glyph name="I" format="2">
  <advance width="341.05"/>
  <unicode hex="0049"/>
  <anchor x="127.17635999999999" y="0.0" name="bottom"/>
  <anchor x="178.96" y="0.0" name="ogonek"/>
  <anchor x="238.08596999999997" y="700.0" name="top"/>
  <anchor x="107.69999999999999" y="700.0" name="topleft"/>
  <outline>
    <contour>
      <point x="72.85" y="0.0" type="line"/>
      <point x="178.95999999999998" y="0.0" type="line"/>
      <point x="291.2" y="700.0" type="line"/>
      <point x="185.09" y="700.0" type="line"/>
    </contour>
  </outline>
</glyph>
<glyph name="J" format="2">
  <advance width="773.3"/>
  <unicode hex="004A"/>
  <anchor x="339.84000000000003" y="0.0" name="bottom"/>
  <anchor x="453.94000000000005" y="700.0" name="top"/>
  <outline>
    <contour>
      <point x="-9.030000000000001" y="40.06999999999999" type="line"/>
      <point x="72.08000000000001" y="14.04"/>
      <point x="166.23000000000002" y="-10.0"/>
      <point x="303.62" y="-10.0" type="curve" smooth="yes"/>
      <point x="502.78999999999996" y="-10.0"/>
      <point x="637.8" y="75.89"/>
      <point x="672.73" y="284.61" type="curve" smooth="yes"/>
      <point x="739.73" y="700.0" type="line"/>
      <point x="166.35" y="700.0" type="line"/>
      <point x="152.19" y="614.66" type="line"/>
      <point x="619.4599999999999" y="614.66" type="line"/>
      <point x="568.41" y="294.84" type="line" smooth="yes"/>
      <point x="543.37" y="135.14999999999998"/>
      <point x="434.65000000000003" y="72.55"/>
      <point x="297.01000000000005" y="72.55" type="curve" smooth="yes"/>
      <point x="176.95" y="72.55"/>
      <point x="97.99" y="98.21"/>
      <point x="18.6" y="122.38" type="curve"/>
    </contour>
  </outline>
</glyph>
<glyph name="K" format="2">
  <advance width="981.26"/>
  <unicode hex="004B"/>
  <anchor x="458.15999999999997" y="0.0" name="bottom"/>
  <anchor x="550.88" y="700.0" name="top"/>
  <outline>
    <contour>
      <point x="73.16000000000001" y="0.0" type="line"/>
      <point x="178.95999999999998" y="0.0" type="line"/>
      <point x="291.2" y="700.0" type="line"/>
      <point x="186.02" y="700.0" type="line"/>
    </contour>
    <contour>
      <point x="892.5600000000001" y="-10.0" type="curve" smooth="yes"/>
      <point x="898.04" y="-10.0"/>
      <point x="914.96" y="-9.38"/>
      <point x="921.8199999999999" y="-7.76" type="curve"/>
      <point x="933.98" y="77.19999999999999" type="line"/>
      <point x="927.5" y="77.2"/>
      <point x="921.64" y="77.2"/>
      <point x="915.78" y="77.2" type="curve" smooth="yes"/>
      <point x="849.12" y="77.2"/>
      <point x="800.5" y="103.86"/>
      <point x="701.56" y="166.70000000000002" type="curve" smooth="yes"/>
      <point x="233.04" y="464.47999999999996" type="line"/>
      <point x="219.5" y="371.32" type="line"/>
      <point x="617.76" y="108.53999999999999" type="line" smooth="yes"/>
      <point x="738.12" y="28.800000000000004"/>
      <point x="813.52" y="-10.0"/>
    </contour>
    <contour>
      <point x="422.02" y="311.64" type="line"/>
      <point x="587.16" y="362.44"/>
      <point x="855.72" y="493.58000000000004"/>
      <point x="994.78" y="652.74" type="curve"/>
      <point x="928.4599999999999" y="713.1" type="line"/>
      <point x="765.0" y="543.36"/>
      <point x="510.46" y="421.41999999999996"/>
      <point x="347.22" y="363.08" type="curve"/>
    </contour>
  </outline>
</glyph>
<glyph name="L" format="2">
  <advance width="831.41"/>
  <unicode hex="004C"/>
  <anchor x="419.03" y="0.0" name="bottom"/>
  <anchor x="427.92900000000003" y="350.0" name="center"/>
  <anchor x="237.8" y="700.0" name="top"/>
  <anchor x="602.25" y="700.0" name="topright"/>
  <outline>
    <contour>
      <point x="72.85" y="0.0" type="line"/>
      <point x="764.52" y="0.0" type="line"/>
      <point x="778.99" y="82.86" type="line"/>
      <point x="192.81" y="82.86" type="line"/>
      <point x="291.2" y="700.0" type="line"/>
      <point x="185.09" y="700.0" type="line"/>
    </contour>
  </outline>
</glyph>
<glyph name="M" format="2">
  <advance width="1231.6899999999998"/>
  <unicode hex="004D"/>
  <outline>
    <contour>
      <point x="72.85" y="0.0" type="line"/>
      <point x="174.45000000000002" y="0.0" type="line"/>
      <point x="265.33" y="577.4200000000001" type="line"/>
      <point x="584.74" y="230.07" type="line"/>
      <point x="630.56" y="230.07" type="line"/>
      <point x="1063.67" y="581.07" type="line"/>
      <point x="970.6199999999999" y="0.0" type="line"/>
      <point x="1069.6" y="0.0" type="line"/>
      <point x="1181.84" y="700.0" type="line"/>
      <point x="1072.87" y="700.0" type="line"/>
      <point x="619.1899999999999" y="322.06" type="line"/>
      <point x="287.09999999999997" y="700.0" type="line"/>
      <point x="185.09" y="700.0" type="line"/>
    </contour>
  </outline>
</glyph>
<glyph name="N" format="2">
  <advance width="1076.7600000000002"/>
  <unicode hex="004E"/>
  <anchor x="487.42764" y="0.0" name="bottom"/>
  <anchor x="607.35703" y="700.0" name="top"/>
  <outline>
    <contour>
      <point x="72.85" y="0.0" type="line"/>
      <point x="170.66000000000003" y="0.0" type="line"/>
      <point x="262.23" y="576.12" type="line"/>
      <point x="820.89" y="-6.9" type="line"/>
      <point x="912.9799999999999" y="-6.9" type="line"/>
      <point x="1026.9099999999999" y="700.0" type="line"/>
      <point x="929.1" y="700.0" type="line"/>
      <point x="836.29" y="116.99000000000001" type="line"/>
      <point x="278.87" y="706.9" type="line"/>
      <point x="186.78" y="706.9" type="line"/>
    </contour>
  </outline>
</glyph>
<glyph name="O" format="2">
  <advance width="1125.26"/>
  <unicode hex="004F"/>
  <note>
8
</note>
  <anchor x="518.4887200000001" y="0.0" name="bottom"/>
  <anchor x="574.2740200000001" y="350.0" name="center"/>
  <anchor x="625.96" y="-0.6199999999999999" name="ogonek"/>
  <anchor x="612.66" y="700.0" name="top"/>
  <anchor x="93.28" y="700.0" name="topleft"/>
  <anchor x="927.42" y="663.54" name="topright"/>
  <outline>
    <contour>
      <point x="559.6" y="-10.0" type="curve" smooth="yes"/>
      <point x="883.56" y="-10.0"/>
      <point x="1069.04" y="134.04000000000002"/>
      <point x="1069.04" y="389.94" type="curve" smooth="yes"/>
      <point x="1069.04" y="598.04"/>
      <point x="916.9" y="710.62"/>
      <point x="589.04" y="710.62" type="curve" smooth="yes"/>
      <point x="265.08" y="710.62"/>
      <point x="79.6" y="566.58"/>
      <point x="79.6" y="310.68" type="curve" smooth="yes"/>
      <point x="79.6" y="102.58"/>
      <point x="231.74" y="-10.0"/>
    </contour>
    <contour>
      <point x="563.9399999999999" y="64.17999999999999" type="curve" smooth="yes"/>
      <point x="304.74" y="64.17999999999999"/>
      <point x="186.64" y="151.4"/>
      <point x="186.64" y="316.40000000000003" type="curve" smooth="yes"/>
      <point x="186.64" y="523.0999999999999"/>
      <point x="330.12" y="636.4399999999999"/>
      <point x="584.6999999999999" y="636.4399999999999" type="curve" smooth="yes"/>
      <point x="843.9" y="636.4399999999999"/>
      <point x="962.0000000000001" y="549.22"/>
      <point x="962.0000000000001" y="384.21999999999997" type="curve" smooth="yes"/>
      <point x="962.0000000000001" y="177.52000000000004"/>
      <point x="818.52" y="64.17999999999999"/>
    </contour>
  </outline>
</glyph>
<glyph name="P" format="2">
  <advance width="998.07"/>
  <unicode hex="0050"/>
  <outline>
    <contour>
      <point x="72.85" y="0.0" type="line"/>
      <point x="178.65" y="0.0" type="line"/>
      <point x="215.24" y="224.27" type="line"/>
      <point x="338.21999999999997" y="220.26999999999998"/>
      <point x="402.72" y="218.57999999999998"/>
      <point x="501.44000000000005" y="218.57999999999998" type="curve" smooth="yes"/>
      <point x="849.37" y="218.57999999999998"/>
      <point x="977.16" y="298.47999999999996"/>
      <point x="978.54" y="493.66999999999996" type="curve" smooth="yes"/>
      <point x="979.23" y="657.83"/>
      <point x="858.1" y="710.0"/>
      <point x="555.5400000000001" y="710.0" type="curve" smooth="yes"/>
      <point x="499.3" y="710.0"/>
      <point x="414.81000000000006" y="707.69"/>
      <point x="185.4" y="700.0" type="curve"/>
    </contour>
    <contour>
      <point x="279.21" y="625.1999999999999" type="line"/>
      <point x="426.3" y="631.27"/>
      <point x="489.04999999999995" y="633.34"/>
      <point x="559.9799999999999" y="633.34" type="curve" smooth="yes"/>
      <point x="788.5500000000001" y="633.34"/>
      <point x="868.7099999999999" y="600.23"/>
      <point x="868.7099999999999" y="485.26" type="curve" smooth="yes"/>
      <point x="868.7099999999999" y="354.5"/>
      <point x="775.61" y="296.48"/>
      <point x="500.54999999999995" y="296.48" type="curve" smooth="yes"/>
      <point x="409.83" y="296.48"/>
      <point x="344.59999999999997" y="298.86"/>
      <point x="228.16" y="302.16999999999996" type="curve"/>
    </contour>
  </outline>
</glyph>
<glyph name="Q" format="2">
  <advance width="1122.78"/>
  <unicode hex="0051"/>
  <note>
14
</note>
  <outline>
    <contour>
      <point x="788.3100000000001" y="-217.52" type="curve" smooth="yes"/>
      <point x="846.42" y="-217.52"/>
      <point x="893.7299999999999" y="-204.31"/>
      <point x="939.45" y="-181.72" type="curve"/>
      <point x="933.93" y="-105.82000000000001" type="line"/>
      <point x="895.78" y="-126.69"/>
      <point x="859.46" y="-135.59"/>
      <point x="817.38" y="-135.59" type="curve" smooth="yes"/>
      <point x="724.3499999999999" y="-135.59"/>
      <point x="644.92" y="-71.84"/>
      <point x="612.64" y="12.05" type="curve"/>
      <point x="513.28" y="-0.28000000000000025" type="line"/>
      <point x="561.14" y="-145.51999999999998"/>
      <point x="666.4899999999999" y="-217.52"/>
    </contour>
    <component base="O"/>
  </outline>
</glyph>
<glyph name="R" format="2">
  <advance width="1038.96"/>
  <unicode hex="0052"/>
  <anchor x="503.78" y="0.0" name="bottom"/>
  <anchor x="535.08" y="700.0" name="top"/>
  <outline>
    <contour>
      <point x="73.54" y="0.0" type="line"/>
      <point x="179.95999999999998" y="0.0" type="line"/>
      <point x="224.38000000000002" y="273.56" type="line"/>
      <point x="348.40000000000003" y="270.56"/>
      <point x="457.71999999999997" y="269.18"/>
      <point x="600.8199999999999" y="269.18" type="curve"/>
      <point x="636.68" y="270.42" type="line"/>
      <point x="847.72" y="271.04"/>
      <point x="964.16" y="363.35999999999996"/>
      <point x="964.16" y="513.2199999999999" type="curve" smooth="yes"/>
      <point x="964.16" y="650.26"/>
      <point x="873.38" y="710.0"/>
      <point x="542.2800000000001" y="710.0" type="curve" smooth="yes"/>
      <point x="438.36" y="710.0"/>
      <point x="340.6" y="708.0"/>
      <point x="185.78" y="701.38" type="curve"/>
    </contour>
    <contour>
      <point x="967.86" y="-10.0" type="curve" smooth="yes"/>
      <point x="973.3399999999999" y="-10.0"/>
      <point x="988.64" y="-9.999999999999998"/>
      <point x="994.8800000000001" y="-9.0" type="curve"/>
      <point x="1005.28" y="76.33999999999999" type="line"/>
      <point x="1000.0400000000001" y="75.34"/>
      <point x="989.9399999999999" y="75.34"/>
      <point x="985.0799999999999" y="75.34" type="curve" smooth="yes"/>
      <point x="899.76" y="75.34"/>
      <point x="766.62" y="190.38"/>
      <point x="649.6" y="305.18" type="curve"/>
      <point x="531.98" y="283.48" type="line"/>
      <point x="682.5799999999999" y="142.35999999999999"/>
      <point x="834.68" y="-10.0"/>
    </contour>
    <contour>
      <point x="590.76" y="342.74" type="curve" smooth="yes"/>
      <point x="434.72" y="342.74"/>
      <point x="334.08000000000004" y="345.12"/>
      <point x="236.06" y="349.36" type="curve"/>
      <point x="279.9" y="630.3000000000001" type="line"/>
      <point x="392.32" y="635.6800000000001"/>
      <point x="428.53999999999996" y="637.0600000000001"/>
      <point x="536.8" y="637.0600000000001" type="curve" smooth="yes"/>
      <point x="789.8" y="637.0600000000001"/>
      <point x="852.4" y="604.26"/>
      <point x="852.4" y="504.16" type="curve" smooth="yes"/>
      <point x="852.4" y="391.0"/>
      <point x="756.74" y="342.74"/>
    </contour>
  </outline>
</glyph>
<glyph name="S" format="2">
  <advance width="928.2799999999999"/>
  <unicode hex="0053"/>
  <anchor x="436.0" y="0.0" name="bottom"/>
  <anchor x="532.4" y="700.0" name="top"/>
  <outline>
    <contour>
      <point x="875.4" y="664.1" type="line"/>
      <point x="752.0599999999998" y="696.62"/>
      <point x="663.8" y="710.0"/>
      <point x="547.74" y="710.0" type="curve" smooth="yes"/>
      <point x="252.55999999999997" y="710.0"/>
      <point x="110.78" y="633.2399999999999"/>
      <point x="110.78" y="497.98" type="curve" smooth="yes"/>
      <point x="110.78" y="224.76"/>
      <point x="751.12" y="373.84000000000003"/>
      <point x="751.12" y="189.39999999999998" type="curve" smooth="yes"/>
      <point x="751.12" y="115.05999999999999"/>
      <point x="662.86" y="65.42"/>
      <point x="460.52000000000004" y="65.42" type="curve" smooth="yes"/>
      <point x="320.88" y="65.42"/>
      <point x="160.22" y="96.04"/>
      <point x="38.68" y="136.28" type="curve"/>
      <point x="6.499999999999999" y="57.38" type="line"/>
      <point x="141.01999999999998" y="15.860000000000001"/>
      <point x="293.84000000000003" y="-10.0"/>
      <point x="437.44000000000005" y="-10.0" type="curve" smooth="yes"/>
      <point x="744.24" y="-10.0"/>
      <point x="863.12" y="69.67999999999999"/>
      <point x="863.12" y="206.66" type="curve" smooth="yes"/>
      <point x="863.12" y="467.52000000000004"/>
      <point x="222.15999999999997" y="327.36"/>
      <point x="222.15999999999997" y="508.18000000000006" type="curve" smooth="yes"/>
      <point x="222.15999999999997" y="592.62"/>
      <point x="329.54" y="633.96"/>
      <point x="519.5600000000001" y="633.96" type="curve" smooth="yes"/>
      <point x="640.5400000000001" y="633.96"/>
      <point x="745.9800000000001" y="617.58"/>
      <point x="845.08" y="585.2" type="curve"/>
    </contour>
  </outline>
</glyph>
<glyph name="T" format="2">
  <advance width="845.3"/>
  <unicode hex="0054"/>
  <anchor x="378.65000000000003" y="0.0" name="bottom"/>
  <anchor x="434.56651" y="350.0" name="center"/>
  <anchor x="489.86597" y="700.0" name="top"/>
  <outline>
    <contour>
      <point x="885.18" y="621.79" type="line"/>
      <point x="899.3399999999999" y="700.0" type="line"/>
      <point x="82.13000000000001" y="700.0" type="line"/>
      <point x="67.66" y="621.79" type="line"/>
      <point x="424.02" y="621.79" type="line"/>
      <point x="325.63" y="0.0" type="line"/>
      <point x="431.74" y="0.0" type="line"/>
      <point x="529.8199999999999" y="621.79" type="line"/>
    </contour>
  </outline>
</glyph>
<glyph name="U" format="2">
  <advance width="1067.1399999999999"/>
  <unicode hex="0055"/>
  <anchor x="490.20763999999997" y="0.0" name="bottom"/>
  <anchor x="580.56" y="0.0" name="ogonek"/>
  <anchor x="598.40703" y="700.0" name="top"/>
  <anchor x="1032.95" y="700.0" name="topright"/>
  <outline>
    <contour>
      <point x="487.14" y="-10.0" type="curve" smooth="yes"/>
      <point x="777.61" y="-10.0"/>
      <point x="935.33" y="87.69"/>
      <point x="967.26" y="285.09999999999997" type="curve" smooth="yes"/>
      <point x="1033.57" y="700.0" type="line"/>
      <point x="929.63" y="700.0" type="line"/>
      <point x="864.1800000000001" y="295.02000000000004" type="line" smooth="yes"/>
      <point x="840.45" y="145.57"/>
      <point x="718.1800000000001" y="70.38"/>
      <point x="500.99" y="70.38" type="curve" smooth="yes"/>
      <point x="292.84" y="70.38"/>
      <point x="185.09" y="150.02"/>
      <point x="208.44" y="297.09" type="curve" smooth="yes"/>
      <point x="273.13" y="700.0" type="line"/>
      <point x="169.19000000000003" y="700.0" type="line"/>
      <point x="103.57000000000001" y="292.0" type="line" smooth="yes"/>
      <point x="99.57" y="263.0"/>
      <point x="98.57000000000001" y="248.38000000000002"/>
      <point x="98.57000000000001" y="234.76000000000002" type="curve" smooth="yes"/>
      <point x="98.57000000000001" y="74.21000000000001"/>
      <point x="233.19000000000003" y="-10.0"/>
    </contour>
  </outline>
</glyph>
<glyph name="V" format="2">
  <advance width="899.8399999999999"/>
  <unicode hex="0056"/>
  <outline>
    <contour>
      <point x="447.52000000000004" y="0.0" type="line"/>
      <point x="873.3" y="523.18"/>
      <point x="935.84" y="616.5"/>
      <point x="943.2800000000001" y="678.38" type="curve" smooth="yes"/>
      <point x="943.9" y="685.9999999999999"/>
      <point x="943.52" y="694.3799999999999"/>
      <point x="942.7599999999999" y="700.0" type="curve"/>
      <point x="827.28" y="700.0" type="line"/>
      <point x="829.04" y="692.86"/>
      <point x="829.66" y="685.72"/>
      <point x="829.66" y="678.62" type="curve" smooth="yes"/>
      <point x="829.66" y="608.7199999999999"/>
      <point x="755.0400000000001" y="511.0800000000001"/>
      <point x="409.52" y="93.78" type="curve"/>
      <point x="182.9" y="707.9" type="line"/>
      <point x="71.66" y="701.38" type="line"/>
      <point x="341.34000000000003" y="0.0" type="line"/>
    </contour>
  </outline>
</glyph>
<glyph name="W" format="2">
  <advance width="1289.82"/>
  <unicode hex="0057"/>
  <anchor x="592.48" y="0.0" name="bottom"/>
  <anchor x="709.06" y="700.0" name="top"/>
  <outline>
    <contour>
      <point x="959.5599999999998" y="0.0" type="line"/>
      <point x="1250.62" y="452.20000000000005"/>
      <point x="1331.5400000000002" y="618.7800000000001"/>
      <point x="1331.5400000000002" y="685.1400000000001" type="curve" smooth="yes"/>
      <point x="1331.5400000000002" y="689.38"/>
      <point x="1330.92" y="696.24"/>
      <point x="1329.54" y="700.0" type="curve"/>
      <point x="1230.18" y="700.0" type="line"/>
      <point x="1230.56" y="694.76"/>
      <point x="1230.94" y="690.28"/>
      <point x="1230.32" y="681.6600000000001" type="curve" smooth="yes"/>
      <point x="1225.36" y="603.94"/>
      <point x="1170.6000000000001" y="497.65999999999997"/>
      <point x="911.02" y="86.0" type="curve"/>
      <point x="764.96" y="656.48" type="line"/>
      <point x="644.2800000000001" y="656.48" type="line"/>
      <point x="542.94" y="466.56"/>
      <point x="438.5" y="282.98"/>
      <point x="326.62" y="85.62" type="curve"/>
      <point x="179.7" y="700.0" type="line"/>
      <point x="72.52000000000001" y="700.0" type="line"/>
      <point x="251.38" y="0.0" type="line"/>
      <point x="362.14" y="0.0" type="line"/>
      <point x="472.15999999999997" y="182.1"/>
      <point x="584.66" y="367.68"/>
      <point x="690.34" y="552.88" type="curve"/>
      <point x="841.12" y="0.0" type="line"/>
    </contour>
  </outline>
</glyph>
<glyph name="X" format="2">
  <advance width="907.4"/>
  <unicode hex="0058"/>
  <outline>
    <contour>
      <point x="738.56" y="-5.5200000000000005" type="line"/>
      <point x="861.3" y="3.76" type="line"/>
      <point x="530.6600000000001" y="356.4" type="line"/>
      <point x="737.6800000000001" y="487.18"/>
      <point x="874.3800000000001" y="574.8199999999999"/>
      <point x="925.7" y="701.0" type="curve"/>
      <point x="803.68" y="706.9" type="line"/>
      <point x="757.6600000000001" y="591.4"/>
      <point x="652.8" y="527.88"/>
      <point x="483.8" y="421.86" type="curve"/>
      <point x="226.48000000000002" y="705.52" type="line"/>
      <point x="105.08" y="695.86" type="line"/>
      <point x="401.17999999999995" y="381.86" type="line"/>
      <point x="184.16" y="250.42"/>
      <point x="43.019999999999996" y="144.34"/>
      <point x="9.360000000000001" y="0.0" type="curve"/>
      <point x="132.04" y="0.0" type="line"/>
      <point x="166.5" y="133.66"/>
      <point x="272.28000000000003" y="212.48"/>
      <point x="446.8" y="315.16" type="curve"/>
    </contour>
  </outline>
</glyph>
<glyph name="Y" format="2">
  <advance width="851.9599999999999"/>
  <unicode hex="0059"/>
  <anchor x="376.59999999999997" y="0.0" name="bottom"/>
  <anchor x="500.36" y="700.0" name="top"/>
  <anchor x="75.62" y="700.0" name="topleft"/>
  <outline>
    <contour>
      <point x="343.58000000000004" y="0.0" type="line"/>
      <point x="448.14" y="0.0" type="line"/>
      <point x="495.42" y="277.06" type="line"/>
      <point x="774.38" y="503.54"/>
      <point x="848.18" y="578.0600000000001"/>
      <point x="887.12" y="663.7199999999999" type="curve" smooth="yes"/>
      <point x="892.88" y="675.48"/>
      <point x="897.6399999999999" y="687.24"/>
      <point x="902.02" y="700.0" type="curve"/>
      <point x="790.1600000000001" y="706.52" type="line"/>
      <point x="785.4" y="692.38"/>
      <point x="780.26" y="680.24"/>
      <point x="774.12" y="667.0999999999999" type="curve" smooth="yes"/>
      <point x="735.08" y="581.2799999999999"/>
      <point x="675.76" y="523.3000000000001"/>
      <point x="447.98" y="347.24" type="curve"/>
      <point x="176.86" y="706.9" type="line"/>
      <point x="64.52000000000001" y="698.24" type="line"/>
      <point x="389.24" y="277.06" type="line"/>
    </contour>
  </outline>
</glyph>
<glyph name="Z" format="2">
  <advance width="890.48"/>
  <unicode hex="005A"/>
  <anchor x="407.64000000000004" y="0.0" name="bottom"/>
  <anchor x="454.36" y="350.0" name="center"/>
  <anchor x="505.88000000000005" y="700.0" name="top"/>
  <outline>
    <contour>
      <point x="-4.860000000000001" y="0.0" type="line"/>
      <point x="819.5200000000001" y="0.0" type="line"/>
      <point x="831.82" y="76.03999999999999" type="line"/>
      <point x="160.62" y="76.03999999999999" type="line"/>
      <point x="881.6600000000001" y="632.92" type="line"/>
      <point x="892.34" y="700.0" type="line"/>
      <point x="141.04" y="700.0" type="line"/>
      <point x="128.73999999999998" y="623.96" type="line"/>
      <point x="731.5799999999999" y="623.96" type="line"/>
      <point x="5.819999999999999" y="67.08" type="line"/>
    </contour>
  </outline>
</glyph>
<glyph name="bracketleft" format="2">
  <advance width="472.4"/>
  <unicode hex="005B"/>
  <outline>
    <contour>
      <point x="153.2" y="-148.6" type="line"/>
      <point x="284.56" y="679.2900000000001" type="line"/>
      <point x="508.55" y="679.2900000000001" type="line"/>
      <point x="518.3699999999999" y="740.0" type="line"/>
      <point x="217.1" y="740.0" type="line"/>
      <point x="66.41" y="-210.0" type="line"/>
      <point x="367.37" y="-210.0" type="line"/>
      <point x="377.19" y="-148.6" type="line"/>
    </contour>
  </outline>
</glyph>
<glyph name="backslash" format="2">
  <advance width="468.04"/>
  <unicode hex="005C"/>
  <outline>
    <contour>
      <point x="167.71" y="740.0" type="line"/>
      <point x="93.46" y="740.0" type="line"/>
      <point x="325.78000000000003" y="-210.0" type="line"/>
      <point x="400.03000000000003" y="-210.0" type="line"/>
    </contour>
  </outline>
</glyph>
<glyph name="bracketright" format="2">
  <advance width="472.4"/>
  <unicode hex="005D"/>
  <outline>
    <contour>
      <point x="-38.46" y="-148.6" type="line"/>
      <point x="-47.97" y="-210.0" type="line"/>
      <point x="252.29999999999998" y="-210.0" type="line"/>
      <point x="403.29999999999995" y="740.0" type="line"/>
      <point x="102.03" y="740.0" type="line"/>
      <point x="92.21000000000001" y="678.6" type="line"/>
      <point x="316.2" y="678.6" type="line"/>
      <point x="184.84" y="-148.6" type="line"/>
    </contour>
  </outline>
</glyph>
<glyph name="asciicircum" format="2">
  <advance width="581.37"/>
  <unicode hex="005E"/>
  <outline>
    <contour>
      <point x="50.01" y="253.05999999999997" type="line"/>
      <point x="132.39" y="253.05999999999997" type="line"/>
      <point x="343.32" y="614.9399999999999" type="line"/>
      <point x="442.92" y="253.05999999999997" type="line"/>
      <point x="523.92" y="253.05999999999997" type="line"/>
      <point x="400.27000000000004" y="706.9" type="line"/>
      <point x="318.41" y="706.9" type="line"/>
    </contour>
  </outline>
</glyph>
<glyph name="underscore" format="2">
  <advance width="1004.92"/>
  <unicode hex="005F"/>
  <outline>
    <contour>
      <point x="-46.65" y="-158.94" type="line"/>
      <point x="914.13" y="-158.94" type="line"/>
      <point x="924.57" y="-94.44" type="line"/>
      <point x="-36.209999999999994" y="-94.44" type="line"/>
    </contour>
  </outline>
</glyph>
<glyph name="a" format="2">
  <advance width="823.17"/>
  <unicode hex="0061"/>
  <note>
15
</note>
  <anchor x="356.14764" y="0.0" name="bottom"/>
  <anchor x="772.1999999999999" y="1.2399999999999998" name="ogonek"/>
  <anchor x="452.57000000000005" y="536.2" name="top"/>
  <outline>
    <contour>
      <point x="703.92" y="-10.0" type="curve" smooth="yes"/>
      <point x="727.91" y="-10.0"/>
      <point x="754.62" y="-6.45"/>
      <point x="772.89" y="-0.8300000000000001" type="curve"/>
      <point x="771.51" y="68.87" type="line"/>
      <point x="762.75" y="65.8"/>
      <point x="751.37" y="64.11"/>
      <point x="740.16" y="64.11" type="curve" smooth="yes"/>
      <point x="707.22" y="64.11"/>
      <point x="692.18" y="83.83999999999999"/>
      <point x="692.18" y="123.13000000000001" type="curve" smooth="yes"/>
      <point x="692.18" y="131.68"/>
      <point x="720.5" y="309.12"/>
      <point x="751.91" y="502.51" type="curve"/>
      <point x="687.2599999999999" y="528.65"/>
      <point x="573.5699999999999" y="546.2"/>
      <point x="470.94" y="546.2" type="curve" smooth="yes"/>
      <point x="213.90999999999997" y="546.2"/>
      <point x="45.63" y="425.98"/>
      <point x="45.63" y="217.03" type="curve" smooth="yes"/>
      <point x="45.63" y="67.35000000000001"/>
      <point x="149.83" y="-10.0"/>
      <point x="310.63" y="-10.0" type="curve" smooth="yes"/>
      <point x="408.46" y="-10.0"/>
      <point x="517.99" y="24.52"/>
      <point x="594.27" y="75.86999999999999" type="curve"/>
      <point x="606.05" y="22.76"/>
      <point x="650.72" y="-10.0"/>
    </contour>
    <contour>
      <point x="590.72" y="137.41000000000003" type="line"/>
      <point x="523.36" y="94.43"/>
      <point x="428.82" y="63.870000000000005"/>
      <point x="348.18" y="63.870000000000005" type="curve" smooth="yes"/>
      <point x="223.28" y="63.870000000000005"/>
      <point x="147.47" y="124.67999999999999"/>
      <point x="147.47" y="232.12" type="curve" smooth="yes"/>
      <point x="147.47" y="377.26"/>
      <point x="277.92" y="477.05"/>
      <point x="464.90000000000003" y="477.05" type="curve" smooth="yes"/>
      <point x="533.78" y="477.05"/>
      <point x="595.38" y="467.15000000000003"/>
      <point x="640.25" y="447.10999999999996" type="curve"/>
    </contour>
  </outline>
</glyph>
<glyph name="b" format="2">
  <advance width="816.14"/>
  <unicode hex="0062"/>
  <note>
12
</note>
  <outline>
    <contour>
      <point x="279.0" y="740.0" type="line"/>
      <point x="177.54" y="740.0" type="line"/>
      <point x="63.54" y="21.619999999999997" type="line"/>
      <point x="140.60000000000002" y="6.239999999999998"/>
      <point x="237.44" y="-10.0"/>
      <point x="344.79999999999995" y="-10.0" type="curve" smooth="yes"/>
      <point x="571.99" y="-10.0"/>
      <point x="769.75" y="94.14999999999999"/>
      <point x="769.7499999999999" y="329.1" type="curve" smooth="yes"/>
      <point x="769.75" y="457.41"/>
      <point x="692.54" y="546.2"/>
      <point x="537.47" y="546.2" type="curve" smooth="yes"/>
      <point x="424.94" y="546.2"/>
      <point x="330.07" y="501.43000000000006"/>
      <point x="230.1" y="435.87" type="curve"/>
    </contour>
    <contour>
      <point x="489.38" y="469.53999999999996" type="curve" smooth="yes"/>
      <point x="606.76" y="469.53999999999996"/>
      <point x="667.98" y="408.14"/>
      <point x="667.98" y="309.67" type="curve" smooth="yes"/>
      <point x="667.98" y="144.66000000000003"/>
      <point x="516.8" y="57.05"/>
      <point x="356.41" y="57.05" type="curve" smooth="yes"/>
      <point x="283.21999999999997" y="57.05"/>
      <point x="218.62" y="69.95"/>
      <point x="174.51" y="80.33" type="curve"/>
      <point x="220.28" y="369.09" type="line"/>
      <point x="321.99999999999994" y="437.29"/>
      <point x="404.36" y="469.53999999999996"/>
    </contour>
  </outline>
</glyph>
<glyph name="c" format="2">
  <advance width="759.98"/>
  <unicode hex="0063"/>
  <note>
10
</note>
  <anchor x="403.4" y="0.0" name="bottom"/>
  <anchor x="476.20000000000005" y="536.2" name="top"/>
  <outline>
    <contour>
      <point x="385.62" y="-10.0" type="curve" smooth="yes"/>
      <point x="500.66" y="-10.0"/>
      <point x="597.5400000000001" y="4.659999999999999"/>
      <point x="680.9399999999999" y="29.760000000000005" type="curve"/>
      <point x="676.5600000000001" y="97.36" type="line"/>
      <point x="592.1600000000001" y="76.6"/>
      <point x="517.16" y="60.46"/>
      <point x="410.94" y="60.46" type="curve" smooth="yes"/>
      <point x="253.22" y="60.46"/>
      <point x="155.02" y="128.24"/>
      <point x="155.02" y="242.08000000000004" type="curve" smooth="yes"/>
      <point x="155.02" y="389.96"/>
      <point x="276.68" y="475.74"/>
      <point x="468.96000000000004" y="475.74" type="curve" smooth="yes"/>
      <point x="546.76" y="475.74"/>
      <point x="631.76" y="465.21999999999997"/>
      <point x="722.2" y="442.08" type="curve"/>
      <point x="745.56" y="511.68" type="line"/>
      <point x="662.18" y="534.82"/>
      <point x="566.78" y="546.2"/>
      <point x="473.82" y="546.2" type="curve" smooth="yes"/>
      <point x="209.49999999999997" y="546.2"/>
      <point x="51.699999999999996" y="435.58"/>
      <point x="51.699999999999996" y="234.78" type="curve" smooth="yes"/>
      <point x="51.699999999999996" y="81.76"/>
      <point x="169.26" y="-10.0"/>
    </contour>
  </outline>
</glyph>
<glyph name="d" format="2">
  <advance width="831.38"/>
  <unicode hex="0064"/>
  <note>
17
</note>
  <anchor x="360.14" y="0.0" name="bottom"/>
  <anchor x="411.73999999999995" y="275.0" name="center"/>
  <anchor x="487.06" y="740.0" name="top"/>
  <anchor x="879.08" y="740.0" name="topright"/>
  <outline>
    <contour>
      <point x="706.2999999999998" y="-10.0" type="curve" smooth="yes"/>
      <point x="726.8399999999999" y="-10.0"/>
      <point x="752.8599999999999" y="-6.76"/>
      <point x="772.2" y="-0.52" type="curve"/>
      <point x="769.06" y="69.18" type="line"/>
      <point x="760.3" y="65.8"/>
      <point x="748.9200000000001" y="64.42"/>
      <point x="737.4" y="64.42" type="curve" smooth="yes"/>
      <point x="706.46" y="64.42"/>
      <point x="689.42" y="83.22"/>
      <point x="689.42" y="116.92" type="curve" smooth="yes"/>
      <point x="689.42" y="126.02"/>
      <point x="786.98" y="740.0"/>
      <point x="786.98" y="740.0" type="curve"/>
      <point x="686.76" y="740.0" type="line"/>
      <point x="652.0" y="524.54" type="line"/>
      <point x="603.58" y="534.6800000000001"/>
      <point x="542.06" y="546.2"/>
      <point x="460.6" y="546.2" type="curve" smooth="yes"/>
      <point x="228.94" y="546.2"/>
      <point x="45.94" y="433.84"/>
      <point x="45.94" y="216.1" type="curve" smooth="yes"/>
      <point x="45.94" y="64.14"/>
      <point x="157.28" y="-10.0"/>
      <point x="305.8" y="-10.0" type="curve" smooth="yes"/>
      <point x="404.31999999999994" y="-10.0"/>
      <point x="521.06" y="24.52"/>
      <point x="590.82" y="68.28" type="curve"/>
      <point x="603.5999999999999" y="19.619999999999997"/>
      <point x="649.34" y="-10.0"/>
    </contour>
    <contour>
      <point x="342.28" y="64.18" type="curve" smooth="yes"/>
      <point x="229.8" y="64.18"/>
      <point x="147.78" y="121.54"/>
      <point x="147.78" y="233.5" type="curve" smooth="yes"/>
      <point x="147.78" y="380.02"/>
      <point x="284.82" y="477.36"/>
      <point x="460.76" y="477.36" type="curve" smooth="yes"/>
      <point x="539.3000000000001" y="477.36"/>
      <point x="596.76" y="465.08000000000004"/>
      <point x="640.94" y="454.70000000000005" type="curve"/>
      <point x="589.3399999999999" y="129.82" type="line"/>
      <point x="520.5999999999999" y="91.98"/>
      <point x="424.68" y="64.18"/>
    </contour>
  </outline>
</glyph>
<glyph name="e" format="2">
  <advance width="778.22"/>
  <unicode hex="0065"/>
  <note>
14 points
</note>
  <anchor x="373.28" y="0.0" name="bottom"/>
  <anchor x="586.6" y="13.62" name="ogonek"/>
  <anchor x="466.04" y="536.2" name="top"/>
  <outline>
    <contour>
      <point x="137.52" y="305.56" type="curve"/>
      <point x="140.34" y="242.68" type="line"/>
      <point x="204.04" y="233.26"/>
      <point x="286.78" y="226.98"/>
      <point x="372.68" y="227.6" type="curve" smooth="yes"/>
      <point x="614.0" y="228.84000000000003"/>
      <point x="740.66" y="281.04"/>
      <point x="740.66" y="389.66" type="curve" smooth="yes"/>
      <point x="740.66" y="489.85999999999996"/>
      <point x="630.6" y="546.2"/>
      <point x="459.2" y="546.2" type="curve" smooth="yes"/>
      <point x="200.74" y="546.2"/>
      <point x="50.46" y="419.9"/>
      <point x="50.46" y="232.06" type="curve" smooth="yes"/>
      <point x="50.46" y="83.76"/>
      <point x="176.9" y="-10.0"/>
      <point x="378.88" y="-10.0" type="curve" smooth="yes"/>
      <point x="486.97999999999996" y="-10.0"/>
      <point x="593.98" y="9.280000000000001"/>
      <point x="691.0799999999999" y="43.08" type="curve"/>
      <point x="680.74" y="111.3" type="line"/>
      <point x="578.5" y="75.88"/>
      <point x="479.12" y="58.6"/>
      <point x="399.09999999999997" y="58.6" type="curve" smooth="yes"/>
      <point x="231.68" y="58.6"/>
      <point x="151.92" y="125.14"/>
      <point x="151.92" y="235.16" type="curve" smooth="yes"/>
      <point x="151.92" y="387.06"/>
      <point x="272.64" y="480.08000000000004"/>
      <point x="450.76" y="480.08000000000004" type="curve" smooth="yes"/>
      <point x="566.4200000000001" y="480.08000000000004"/>
      <point x="634.86" y="445.24"/>
      <point x="634.86" y="381.7" type="curve" smooth="yes"/>
      <point x="634.86" y="317.6"/>
      <point x="530.4200000000001" y="290.62"/>
      <point x="344.58000000000004" y="290.0" type="curve" smooth="yes"/>
      <point x="270.32" y="289.38"/>
      <point x="196.4" y="293.9"/>
    </contour>
  </outline>
</glyph>
<glyph name="f" format="2">
  <advance width="513.77"/>
  <unicode hex="0066"/>
  <outline>
    <contour>
      <point x="21.989999999999995" y="-220.0" type="curve" smooth="yes"/>
      <point x="121.01" y="-220.0"/>
      <point x="176.75" y="-150.17999999999998"/>
      <point x="203.58" y="18.630000000000006" type="curve" smooth="yes"/>
      <point x="265.38" y="415.4" type="line"/>
      <point x="530.21" y="415.4" type="line"/>
      <point x="541.27" y="484.0" type="line"/>
      <point x="276.13" y="484.0" type="line"/>
      <point x="295.55" y="611.32"/>
      <point x="356.32" y="672.72"/>
      <point x="469.45000000000005" y="672.72" type="curve" smooth="yes"/>
      <point x="540.43" y="672.72"/>
      <point x="593.15" y="660.27"/>
      <point x="652.2" y="642.3" type="curve"/>
      <point x="675.5600000000001" y="713.93" type="line"/>
      <point x="604.1399999999999" y="738.38"/>
      <point x="535.7" y="750.0"/>
      <point x="464.84000000000003" y="750.0" type="curve" smooth="yes"/>
      <point x="297.17" y="750.0"/>
      <point x="203.19" y="665.11"/>
      <point x="174.6" y="484.0" type="curve"/>
      <point x="56.59" y="474.34999999999997" type="line"/>
      <point x="47.150000000000006" y="415.4" type="line"/>
      <point x="163.54" y="415.4" type="line"/>
      <point x="102.22" y="22.75" type="line" smooth="yes"/>
      <point x="82.73" y="-100.26"/>
      <point x="56.07000000000001" y="-144.72"/>
      <point x="-4.430000000000007" y="-144.72" type="curve" smooth="yes"/>
      <point x="-18.500000000000004" y="-144.72"/>
      <point x="-33.190000000000005" y="-142.03"/>
      <point x="-49.4" y="-136.27" type="curve"/>
      <point x="-67.17999999999999" y="-204.73" type="line"/>
      <point x="-38.12" y="-215.45"/>
      <point x="-10.819999999999997" y="-220.0"/>
    </contour>
  </outline>
</glyph>
<glyph name="g" format="2">
  <advance width="817.14"/>
  <unicode hex="0067"/>
  <note>
16
</note>
  <anchor x="309.08" y="-216.9" name="bottom"/>
  <anchor x="455.36" y="536.2" name="top"/>
  <outline>
    <contour>
      <point x="15.459999999999997" y="-167.52" type="line"/>
      <point x="100.7" y="-198.52"/>
      <point x="209.52" y="-220.0"/>
      <point x="322.18" y="-220.0" type="curve" smooth="yes"/>
      <point x="534.02" y="-220.0"/>
      <point x="651.2199999999999" y="-116.80000000000001"/>
      <point x="681.46" y="75.64" type="curve" smooth="yes"/>
      <point x="749.2199999999999" y="503.82000000000005" type="line"/>
      <point x="688.98" y="527.72"/>
      <point x="572.9200000000001" y="546.2"/>
      <point x="482.09999999999997" y="546.2" type="curve" smooth="yes"/>
      <point x="189.72" y="546.2"/>
      <point x="45.94" y="411.86"/>
      <point x="45.94" y="215.92000000000002" type="curve" smooth="yes"/>
      <point x="45.94" y="79.58"/>
      <point x="148.70000000000002" y="3.0199999999999996"/>
      <point x="309.98" y="3.0199999999999996" type="curve" smooth="yes"/>
      <point x="386.82000000000005" y="3.0199999999999996"/>
      <point x="501.9599999999999" y="35.059999999999995"/>
      <point x="581.38" y="84.72" type="curve"/>
      <point x="578.76" y="68.86" type="line" smooth="yes"/>
      <point x="556.86" y="-80.10000000000001"/>
      <point x="466.22" y="-149.3"/>
      <point x="307.40000000000003" y="-149.3" type="curve" smooth="yes"/>
      <point x="218.06" y="-149.3"/>
      <point x="119.53999999999999" y="-128.67999999999998"/>
      <point x="40.58" y="-98.53999999999999" type="curve"/>
    </contour>
    <contour>
      <point x="639.5600000000001" y="450.52" type="curve"/>
      <point x="591.96" y="149.02" type="line"/>
      <point x="522.88" y="107.8"/>
      <point x="420.16" y="75.34"/>
      <point x="351.65999999999997" y="75.34" type="curve" smooth="yes"/>
      <point x="224.8" y="75.34"/>
      <point x="148.4" y="131.26"/>
      <point x="148.4" y="230.94" type="curve" smooth="yes"/>
      <point x="148.4" y="378.64000000000004"/>
      <point x="266.92" y="479.46"/>
      <point x="467.8" y="479.46" type="curve" smooth="yes"/>
      <point x="552.4399999999999" y="479.46"/>
      <point x="601.24" y="463.18"/>
    </contour>
  </outline>
</glyph>
<glyph name="h" format="2">
  <advance width="836.8199999999999"/>
  <unicode hex="0068"/>
  <note>
16
</note>
  <anchor x="393.86" y="0.0" name="bottom"/>
  <anchor x="438.96" y="378.06" name="center"/>
  <anchor x="490.14000000000004" y="740.0" name="top"/>
  <outline>
    <contour>
      <point x="709.62" y="112.4" type="curve" smooth="yes"/>
      <point x="709.62" y="159.06"/>
      <point x="745.2800000000001" y="319.5"/>
      <point x="745.2800000000001" y="385.96" type="curve" smooth="yes"/>
      <point x="745.2800000000001" y="482.00000000000006"/>
      <point x="684.9000000000001" y="546.2"/>
      <point x="551.4599999999999" y="546.2" type="curve" smooth="yes"/>
      <point x="435.06" y="546.2"/>
      <point x="345.18" y="506.74000000000007"/>
      <point x="233.1" y="454.4599999999999" type="curve"/>
      <point x="278.38" y="740.0" type="line"/>
      <point x="177.54" y="740.0" type="line"/>
      <point x="59.92" y="0.0" type="line"/>
      <point x="161.38" y="0.0" type="line"/>
      <point x="222.66" y="386.82" type="line"/>
      <point x="323.52000000000004" y="434.56"/>
      <point x="404.16" y="470.78"/>
      <point x="505.67999999999995" y="470.78" type="curve" smooth="yes"/>
      <point x="601.2600000000001" y="470.78"/>
      <point x="640.34" y="427.56"/>
      <point x="640.34" y="360.3" type="curve" smooth="yes"/>
      <point x="640.34" y="285.38"/>
      <point x="605.6800000000001" y="131.16"/>
      <point x="605.6800000000001" y="85.84" type="curve" smooth="yes"/>
      <point x="605.6800000000001" y="21.2"/>
      <point x="652.4200000000001" y="-10.0"/>
      <point x="717.2600000000001" y="-10.0" type="curve" smooth="yes"/>
      <point x="740.8000000000001" y="-10.0"/>
      <point x="773.58" y="-7.38"/>
      <point x="795.1600000000001" y="-1.0000000000000004" type="curve"/>
      <point x="792.4" y="70.94" type="line"/>
      <point x="781.88" y="67.18"/>
      <point x="766.3600000000001" y="64.8"/>
      <point x="753.46" y="64.8" type="curve" smooth="yes"/>
      <point x="727.0400000000001" y="64.8"/>
      <point x="709.62" y="81.7"/>
    </contour>
  </outline>
</glyph>
<glyph name="i" format="2">
  <advance width="308.84999999999997"/>
  <unicode hex="0069"/>
  <note>
Ajuster pts sur points
8
</note>
  <anchor x="110.21764" y="0.0" name="bottom"/>
  <anchor x="161.31" y="0.0" name="ogonek"/>
  <anchor x="195.87236" y="536.2" name="top"/>
  <outline>
    <contour>
      <point x="59.85000000000001" y="0.0" type="line"/>
      <point x="161.31" y="0.0" type="line"/>
      <point x="245.92999999999998" y="536.2" type="line"/>
      <point x="145.09" y="536.2" type="line"/>
    </contour>
    <contour>
      <point x="226.17999999999998" y="734.8" type="curve" smooth="yes"/>
      <point x="177.83999999999997" y="734.8"/>
      <point x="155.17" y="722.0899999999999"/>
      <point x="154.48" y="677.49" type="curve" smooth="yes"/>
      <point x="154.48000000000002" y="654.68"/>
      <point x="172.57" y="643.14"/>
      <point x="209.19" y="643.14" type="curve" smooth="yes"/>
      <point x="252.29999999999998" y="643.14"/>
      <point x="280.58" y="651.51"/>
      <point x="281.96" y="701.45" type="curve" smooth="yes"/>
      <point x="281.96" y="723.26"/>
      <point x="265.94" y="734.8"/>
    </contour>
  </outline>
</glyph>
<glyph name="j" format="2">
  <advance width="320.91"/>
  <unicode hex="006A"/>
  <note>
idem /i
12
</note>
  <outline>
    <contour>
      <point x="238.55" y="734.8" type="curve" smooth="yes"/>
      <point x="189.9" y="734.8"/>
      <point x="168.92000000000002" y="722.0899999999999"/>
      <point x="168.23000000000002" y="677.49" type="curve" smooth="yes"/>
      <point x="168.23000000000002" y="654.68"/>
      <point x="185.25" y="643.14"/>
      <point x="221.87" y="643.14" type="curve" smooth="yes"/>
      <point x="262.91" y="643.14"/>
      <point x="291.57" y="651.51"/>
      <point x="292.95" y="701.45" type="curve" smooth="yes"/>
      <point x="292.95" y="723.26"/>
      <point x="278.31" y="734.8"/>
    </contour>
    <contour>
      <point x="258.61" y="536.2" type="line"/>
      <point x="157.45999999999998" y="536.2" type="line"/>
      <point x="68.11" y="-31.28" type="line" smooth="yes"/>
      <point x="56.589999999999996" y="-104.71"/>
      <point x="33.17" y="-144.72"/>
      <point x="-20.079999999999995" y="-144.72" type="curve" smooth="yes"/>
      <point x="-32.91000000000001" y="-144.72"/>
      <point x="-52.43000000000001" y="-143.03"/>
      <point x="-72.85" y="-134.82" type="curve"/>
      <point x="-92.11" y="-207.62" type="line"/>
      <point x="-64.12" y="-216.69"/>
      <point x="-21.4" y="-220.0"/>
      <point x="-5.130000000000004" y="-220.0" type="curve" smooth="yes"/>
      <point x="102.14" y="-220.0"/>
      <point x="150.16" y="-149.57"/>
      <point x="169.80999999999997" y="-24.81" type="curve" smooth="yes"/>
    </contour>
  </outline>
</glyph>
<glyph name="l" format="2">
  <advance width="388.77"/>
  <unicode hex="006C"/>
  <anchor x="213.06" y="0.0" name="bottom"/>
  <anchor x="187.75186" y="377.75" name="center"/>
  <anchor x="228.45999999999998" y="740.0" name="top"/>
  <anchor x="371.47999999999996" y="740.0" name="topright"/>
  <outline>
    <contour>
      <point x="177.54" y="740.0" type="line"/>
      <point x="89.57000000000001" y="186.73" type="line" smooth="yes"/>
      <point x="86.64" y="167.22"/>
      <point x="82.64" y="139.29000000000002"/>
      <point x="82.64" y="114.36" type="curve" smooth="yes"/>
      <point x="82.64" y="38.13999999999999"/>
      <point x="121.94" y="-10.0"/>
      <point x="214.89000000000001" y="-10.0" type="curve" smooth="yes"/>
      <point x="266.46" y="-10.0"/>
      <point x="312.96000000000004" y="-1.52"/>
      <point x="354.84" y="9.82" type="curve"/>
      <point x="351.39" y="85.54999999999998" type="line"/>
      <point x="319.42999999999995" y="77.93"/>
      <point x="293.36" y="72.24"/>
      <point x="262.84" y="72.24" type="curve" smooth="yes"/>
      <point x="203.65" y="72.24"/>
      <point x="187.58" y="108.22"/>
      <point x="187.58" y="143.02" type="curve" smooth="yes"/>
      <point x="187.58" y="163.89"/>
      <point x="190.34" y="182.31"/>
      <point x="192.33999999999997" y="192.31" type="curve" smooth="yes"/>
      <point x="279.38" y="740.0" type="line"/>
    </contour>
  </outline>
</glyph>
<glyph name="m" format="2">
  <advance width="1250.8"/>
  <unicode hex="006D"/>
  <note>
24&gt;23 points
un point de trop dans la jointure avec 2e jambage
</note>
  <outline>
    <contour>
      <point x="1130.93" y="-10.0" type="curve" smooth="yes"/>
      <point x="1154.78" y="-10.0"/>
      <point x="1187.25" y="-7.38"/>
      <point x="1209.1399999999999" y="-0.6900000000000004" type="curve"/>
      <point x="1206.38" y="70.94" type="line"/>
      <point x="1195.5500000000002" y="67.18"/>
      <point x="1180.03" y="64.8"/>
      <point x="1167.1299999999999" y="64.8" type="curve" smooth="yes"/>
      <point x="1141.02" y="64.8"/>
      <point x="1124.29" y="80.69999999999999"/>
      <point x="1124.29" y="111.71" type="curve" smooth="yes"/>
      <point x="1124.29" y="158.37"/>
      <point x="1159.9499999999998" y="319.5"/>
      <point x="1159.9499999999998" y="385.65000000000003" type="curve" smooth="yes"/>
      <point x="1159.9499999999998" y="482.00000000000006"/>
      <point x="1097.02" y="546.2"/>
      <point x="963.89" y="546.2" type="curve" smooth="yes"/>
      <point x="852.02" y="546.2"/>
      <point x="769.83" y="501.33"/>
      <point x="673.93" y="445.33" type="curve"/>
      <point x="654.9999999999999" y="505.06"/>
      <point x="605.0999999999999" y="546.2"/>
      <point x="506.48" y="546.2" type="curve" smooth="yes"/>
      <point x="410.88" y="546.2"/>
      <point x="323.63" y="507.02000000000004"/>
      <point x="224.87" y="451.5" type="curve"/>
      <point x="236.94" y="536.2" type="line"/>
      <point x="144.78" y="536.2" type="line"/>
      <point x="60.53999999999999" y="0.0" type="line"/>
      <point x="161.69" y="0.0" type="line"/>
      <point x="223.66" y="390.29999999999995" type="line"/>
      <point x="311.38" y="439.94"/>
      <point x="380.98999999999995" y="470.78"/>
      <point x="453.81" y="470.78" type="curve" smooth="yes"/>
      <point x="553.98" y="470.78"/>
      <point x="583.57" y="415.9"/>
      <point x="583.57" y="348.91999999999996" type="curve" smooth="yes"/>
      <point x="583.57" y="332.37"/>
      <point x="574.1300000000001" y="269.11"/>
      <point x="534.43" y="0.0" type="curve"/>
      <point x="634.3399999999999" y="0.0" type="line"/>
      <point x="673.11" y="261.15"/>
      <point x="679.45" y="308.02"/>
      <point x="684.4100000000001" y="349.75" type="curve" smooth="yes"/>
      <point x="684.72" y="360.27000000000004"/>
      <point x="685.2700000000001" y="377.91999999999996"/>
      <point x="684.1999999999999" y="387.82" type="curve"/>
      <point x="765.26" y="435.87"/>
      <point x="835.9399999999999" y="469.85"/>
      <point x="919.7299999999999" y="469.85" type="curve" smooth="yes"/>
      <point x="1017.0" y="469.85"/>
      <point x="1053.6999999999998" y="425.32"/>
      <point x="1053.6999999999998" y="354.29999999999995" type="curve" smooth="yes"/>
      <point x="1053.6999999999998" y="283.45"/>
      <point x="1020.0400000000002" y="131.78"/>
      <point x="1020.0400000000002" y="85.84" type="curve" smooth="yes"/>
      <point x="1020.0400000000002" y="21.2"/>
      <point x="1066.3999999999999" y="-10.0"/>
    </contour>
  </outline>
</glyph>
<glyph name="n" format="2">
  <advance width="837.4399999999999"/>
  <unicode hex="006E"/>
  <note>
16
</note>
  <anchor x="393.92999999999995" y="0.0" name="bottom"/>
  <anchor x="448.82" y="536.2" name="top"/>
  <outline>
    <contour>
      <point x="144.78" y="536.2" type="line"/>
      <point x="60.53999999999999" y="0.0" type="line"/>
      <point x="161.38" y="0.0" type="line"/>
      <point x="222.97" y="386.82" type="line"/>
      <point x="325.18" y="435.39000000000004"/>
      <point x="403.85" y="470.78"/>
      <point x="505.99000000000007" y="470.78" type="curve" smooth="yes"/>
      <point x="600.26" y="470.78"/>
      <point x="639.96" y="427.49"/>
      <point x="639.96" y="355.84999999999997" type="curve" smooth="yes"/>
      <point x="639.96" y="283.45"/>
      <point x="605.99" y="134.88"/>
      <point x="605.99" y="85.83999999999999" type="curve" smooth="yes"/>
      <point x="605.99" y="21.2"/>
      <point x="653.04" y="-10.0"/>
      <point x="717.57" y="-10.0" type="curve" smooth="yes"/>
      <point x="741.42" y="-10.0"/>
      <point x="773.8899999999999" y="-7.38"/>
      <point x="795.78" y="-0.6900000000000004" type="curve"/>
      <point x="793.02" y="70.94" type="line"/>
      <point x="782.19" y="67.18"/>
      <point x="766.6700000000001" y="64.8"/>
      <point x="753.77" y="64.8" type="curve" smooth="yes"/>
      <point x="727.66" y="64.8"/>
      <point x="710.2399999999999" y="81.39"/>
      <point x="710.2399999999999" y="112.4" type="curve" smooth="yes"/>
      <point x="710.2399999999999" y="159.06"/>
      <point x="745.9" y="319.5"/>
      <point x="745.9" y="385.65" type="curve" smooth="yes"/>
      <point x="745.9" y="486.34000000000003"/>
      <point x="678.0799999999999" y="546.2"/>
      <point x="550.53" y="546.2" type="curve" smooth="yes"/>
      <point x="431.03000000000003" y="546.2"/>
      <point x="335.82" y="506.78"/>
      <point x="225.35" y="449.43000000000006" type="curve"/>
      <point x="238.8" y="536.2" type="line"/>
    </contour>
  </outline>
</glyph>
<glyph name="o" format="2">
  <advance width="835.96"/>
  <unicode hex="006F"/>
  <note>
8
</note>
  <anchor x="393.79999999999995" y="0.0" name="bottom"/>
  <anchor x="418.48" y="275.0" name="center"/>
  <anchor x="497.4" y="0.0" name="ogonek"/>
  <anchor x="442.58000000000004" y="536.2" name="top"/>
  <anchor x="603.46" y="533.1" name="topright"/>
  <outline>
    <contour>
      <point x="409.58" y="-10.0" type="curve" smooth="yes"/>
      <point x="650.5400000000001" y="-10.0"/>
      <point x="780.74" y="97.86000000000003"/>
      <point x="779.5" y="293.90000000000003" type="curve" smooth="yes"/>
      <point x="778.26" y="456.13999999999993"/>
      <point x="654.8199999999999" y="547.44"/>
      <point x="424.0" y="547.44" type="curve" smooth="yes"/>
      <point x="183.04" y="547.44"/>
      <point x="52.84" y="439.58000000000004"/>
      <point x="54.08" y="243.54000000000002" type="curve" smooth="yes"/>
      <point x="55.32" y="81.3"/>
      <point x="178.76" y="-10.0"/>
    </contour>
    <contour>
      <point x="410.2" y="56.120000000000005" type="curve" smooth="yes"/>
      <point x="244.22" y="56.120000000000005"/>
      <point x="155.54" y="119.48"/>
      <point x="155.54" y="251.6" type="curve" smooth="yes"/>
      <point x="155.54" y="400.06"/>
      <point x="245.12" y="481.32"/>
      <point x="423.38" y="481.32" type="curve" smooth="yes"/>
      <point x="589.3599999999999" y="481.32"/>
      <point x="678.0400000000001" y="418.58"/>
      <point x="678.0400000000001" y="286.46000000000004" type="curve" smooth="yes"/>
      <point x="678.0400000000001" y="137.99999999999997"/>
      <point x="588.46" y="56.120000000000005"/>
    </contour>
  </outline>
</glyph>
<glyph name="p" format="2">
  <advance width="817.14"/>
  <unicode hex="0070"/>
  <note>
14 point
</note>
  <outline>
    <contour>
      <point x="27.54" y="-210.0" type="line"/>
      <point x="128.07" y="-210.0" type="line"/>
      <point x="163.76" y="11.35" type="line"/>
      <point x="210.63" y="1.21"/>
      <point x="273.12" y="-10.0"/>
      <point x="347.41" y="-10.0" type="curve" smooth="yes"/>
      <point x="608.46" y="-10.0"/>
      <point x="769.7499999999999" y="116.42"/>
      <point x="769.7499999999999" y="327.65000000000003" type="curve" smooth="yes"/>
      <point x="769.7499999999999" y="463.24"/>
      <point x="687.7099999999999" y="546.2"/>
      <point x="538.5400000000001" y="546.2" type="curve" smooth="yes"/>
      <point x="419.05" y="546.2"/>
      <point x="326.25" y="501.81"/>
      <point x="221.73" y="435.32000000000005" type="curve"/>
      <point x="237.87" y="536.2" type="line"/>
      <point x="144.78" y="536.2" type="line"/>
    </contour>
    <contour>
      <point x="350.89000000000004" y="57.05" type="curve" smooth="yes"/>
      <point x="277.7" y="57.05"/>
      <point x="218.62" y="70.64"/>
      <point x="174.51" y="81.02000000000001" type="curve"/>
      <point x="219.59" y="368.40000000000003" type="line"/>
      <point x="315.79" y="433.84000000000003"/>
      <point x="402.29" y="469.53999999999996"/>
      <point x="489.38" y="469.53999999999996" type="curve" smooth="yes"/>
      <point x="601.93" y="469.53999999999996"/>
      <point x="667.98" y="414.35"/>
      <point x="667.98" y="306.90999999999997" type="curve" smooth="yes"/>
      <point x="667.98" y="154.32"/>
      <point x="531.2900000000001" y="57.05"/>
    </contour>
  </outline>
</glyph>
<glyph name="q" format="2">
  <advance width="817.4499999999999"/>
  <unicode hex="0071"/>
  <note>
12
</note>
  <outline>
    <contour>
      <point x="751.22" y="511.78999999999996" type="line"/>
      <point x="673.23" y="530.27"/>
      <point x="569.5" y="546.2"/>
      <point x="462.14" y="546.2" type="curve" smooth="yes"/>
      <point x="197.19" y="546.2"/>
      <point x="45.629999999999995" y="422.85"/>
      <point x="45.629999999999995" y="211.44000000000003" type="curve" smooth="yes"/>
      <point x="45.629999999999995" y="84.61999999999999"/>
      <point x="138.14999999999998" y="-10.0"/>
      <point x="297.21" y="-10.0" type="curve" smooth="yes"/>
      <point x="397.81" y="-10.0"/>
      <point x="485.79" y="23.73"/>
      <point x="583.9699999999999" y="92.74" type="curve"/>
      <point x="535.4499999999999" y="-210.0" type="line"/>
      <point x="636.29" y="-210.0" type="line"/>
    </contour>
    <contour>
      <point x="640.94" y="453.32000000000005" type="curve"/>
      <point x="593.48" y="155.35000000000002" type="line"/>
      <point x="497.14000000000004" y="89.60000000000001"/>
      <point x="417.09000000000003" y="63.870000000000005"/>
      <point x="333.0" y="63.870000000000005" type="curve" smooth="yes"/>
      <point x="225.35000000000002" y="63.870000000000005"/>
      <point x="147.47" y="124.67999999999999"/>
      <point x="147.47" y="227.29000000000002" type="curve" smooth="yes"/>
      <point x="147.47" y="381.40000000000003"/>
      <point x="270.33" y="476.36"/>
      <point x="460.07000000000005" y="476.36" type="curve" smooth="yes"/>
      <point x="531.71" y="476.36"/>
      <point x="596.76" y="463.70000000000005"/>
    </contour>
  </outline>
</glyph>
<glyph name="r" format="2">
  <advance width="591.33"/>
  <unicode hex="0072"/>
  <anchor x="108.6" y="0.0" name="bottom"/>
  <anchor x="368.54999999999995" y="536.2" name="top"/>
  <outline>
    <contour>
      <point x="235.63" y="536.2" type="line"/>
      <point x="145.4" y="536.2" type="line"/>
      <point x="60.23" y="0.0" type="line"/>
      <point x="161.0" y="0.0" type="line"/>
      <point x="217.89999999999998" y="356.68" type="line"/>
      <point x="317.37" y="434.57"/>
      <point x="400.84000000000003" y="463.34"/>
      <point x="473.72" y="463.34" type="curve" smooth="yes"/>
      <point x="511.48" y="463.34"/>
      <point x="553.21" y="456.65"/>
      <point x="588.3800000000001" y="446.96" type="curve"/>
      <point x="615.46" y="529.75" type="line"/>
      <point x="587.5999999999999" y="538.4399999999999"/>
      <point x="544.25" y="546.2"/>
      <point x="499.07" y="546.2" type="curve" smooth="yes"/>
      <point x="412.72" y="546.2"/>
      <point x="334.04999999999995" y="514.3000000000001"/>
      <point x="218.49" y="425.67" type="curve"/>
    </contour>
  </outline>
</glyph>
<glyph name="s" format="2">
  <advance width="698.0200000000001"/>
  <unicode hex="0073"/>
  <anchor x="327.62" y="0.0" name="bottom"/>
  <anchor x="392.94000000000005" y="536.2" name="top"/>
  <outline>
    <contour>
      <point x="5.459999999999999" y="38.28" type="line"/>
      <point x="85.52" y="12.9"/>
      <point x="190.56" y="-10.0"/>
      <point x="312.98" y="-10.0" type="curve" smooth="yes"/>
      <point x="498.0" y="-10.0"/>
      <point x="634.52" y="35.22"/>
      <point x="634.52" y="159.45999999999998" type="curve" smooth="yes"/>
      <point x="634.52" y="356.73999999999995"/>
      <point x="176.51999999999998" y="259.58"/>
      <point x="176.51999999999998" y="390.8" type="curve" smooth="yes"/>
      <point x="176.51999999999998" y="443.71999999999997"/>
      <point x="246.96" y="480.7"/>
      <point x="384.21999999999997" y="480.7" type="curve" smooth="yes"/>
      <point x="468.68" y="480.7"/>
      <point x="556.5" y="466.94"/>
      <point x="622.64" y="445.56" type="curve"/>
      <point x="643.9" y="510.44" type="line"/>
      <point x="575.4200000000001" y="531.82"/>
      <point x="486.71999999999997" y="546.2"/>
      <point x="398.28" y="546.2" type="curve" smooth="yes"/>
      <point x="200.86" y="546.2"/>
      <point x="80.64" y="492.92"/>
      <point x="80.64" y="378.74" type="curve" smooth="yes"/>
      <point x="80.64" y="181.06000000000003"/>
      <point x="538.64" y="282.76"/>
      <point x="538.64" y="145.06" type="curve" smooth="yes"/>
      <point x="538.64" y="88.04"/>
      <point x="457.71999999999997" y="56.120000000000005"/>
      <point x="324.7" y="56.120000000000005" type="curve" smooth="yes"/>
      <point x="212.68" y="56.120000000000005"/>
      <point x="97.96" y="80.25999999999999"/>
      <point x="28.72" y="106.02" type="curve"/>
    </contour>
  </outline>
</glyph>
<glyph name="t" format="2">
  <advance width="570.26"/>
  <unicode hex="0074"/>
  <anchor x="294.65999999999997" y="0.0" name="bottom"/>
  <anchor x="281.06" y="275.0" name="center"/>
  <anchor x="260.21" y="665.0" name="top"/>
  <anchor x="504.27" y="793.45" name="topright"/>
  <outline>
    <contour>
      <point x="507.43000000000006" y="102.63" type="line"/>
      <point x="446.98" y="83.66"/>
      <point x="389.76" y="69.76"/>
      <point x="335.53999999999996" y="69.76" type="curve" smooth="yes"/>
      <point x="253.86" y="69.76"/>
      <point x="226.13" y="106.67"/>
      <point x="226.13" y="162.72" type="curve" smooth="yes"/>
      <point x="226.13" y="174.62"/>
      <point x="226.82" y="187.21"/>
      <point x="229.2" y="200.10999999999999" type="curve" smooth="yes"/>
      <point x="271.97" y="468.98" type="line"/>
      <point x="554.13" y="468.98" type="line"/>
      <point x="565.81" y="536.2" type="line"/>
      <point x="282.72" y="536.2" type="line"/>
      <point x="303.79" y="665.0" type="line"/>
      <point x="218.39" y="665.0" type="line"/>
      <point x="183.12" y="536.2" type="line"/>
      <point x="38.55" y="525.86" type="line"/>
      <point x="27.799999999999997" y="468.97999999999996" type="line"/>
      <point x="170.51" y="468.97999999999996" type="line"/>
      <point x="128.05" y="197.32" type="line" smooth="yes"/>
      <point x="124.43" y="175.6"/>
      <point x="122.42999999999999" y="152.35999999999999"/>
      <point x="122.42999999999999" y="137.33" type="curve" smooth="yes"/>
      <point x="122.42999999999999" y="29.24"/>
      <point x="187.56" y="-10.0"/>
      <point x="290.09999999999997" y="-10.0" type="curve" smooth="yes"/>
      <point x="354.02" y="-10.0"/>
      <point x="427.92" y="1.6199999999999994"/>
      <point x="509.40000000000003" y="28.21" type="curve"/>
    </contour>
  </outline>
</glyph>
<glyph name="u" format="2">
  <advance width="820.74"/>
  <unicode hex="0075"/>
  <note>
15
</note>
  <anchor x="359.46999999999997" y="0.0" name="bottom"/>
  <anchor x="766.56" y="8.06" name="ogonek"/>
  <anchor x="437.16" y="536.2" name="top"/>
  <anchor x="745.82" y="536.2" name="topright"/>
  <outline>
    <contour>
      <point x="273.25" y="-10.0" type="curve" smooth="yes"/>
      <point x="383.13" y="-10.0"/>
      <point x="477.44" y="23.520000000000003"/>
      <point x="586.18" y="82.49000000000001" type="curve"/>
      <point x="593.93" y="19.79"/>
      <point x="630.23" y="-10.0"/>
      <point x="687.6700000000001" y="-10.0" type="curve" smooth="yes"/>
      <point x="710.55" y="-10.0"/>
      <point x="742.9499999999999" y="-2.9700000000000006"/>
      <point x="766.56" y="11.47" type="curve"/>
      <point x="763.87" y="70.94" type="line"/>
      <point x="750.1800000000001" y="66.25"/>
      <point x="736.59" y="64.18"/>
      <point x="730.83" y="64.18" type="curve" smooth="yes"/>
      <point x="701.51" y="64.18"/>
      <point x="683.92" y="79.14999999999999"/>
      <point x="683.92" y="124.44" type="curve" smooth="yes"/>
      <point x="683.92" y="135.34"/>
      <point x="684.92" y="158.52"/>
      <point x="745.8199999999999" y="536.2" type="curve"/>
      <point x="643.67" y="536.2" type="line"/>
      <point x="584.0799999999999" y="140.85999999999999" type="line"/>
      <point x="489.77" y="93.67"/>
      <point x="413.1" y="64.8"/>
      <point x="317.24" y="64.8" type="curve" smooth="yes"/>
      <point x="231.55999999999997" y="64.8"/>
      <point x="189.17000000000002" y="103.71"/>
      <point x="189.17000000000002" y="170.69" type="curve" smooth="yes"/>
      <point x="189.17" y="189.02999999999997"/>
      <point x="191.72" y="214.86"/>
      <point x="243.92999999999998" y="536.2" type="curve"/>
      <point x="142.47" y="536.2" type="line"/>
      <point x="85.92" y="174.95999999999998"/>
      <point x="84.92" y="158.44000000000003"/>
      <point x="84.92" y="143.34" type="curve" smooth="yes"/>
      <point x="84.92" y="50.0"/>
      <point x="147.43" y="-10.0"/>
    </contour>
  </outline>
</glyph>
<glyph name="v" format="2">
  <advance width="698.41"/>
  <unicode hex="0076"/>
  <outline>
    <contour>
      <point x="347.73999999999995" y="2.220446049250313e-16" type="line"/>
      <point x="629.7900000000001" y="347.33000000000004"/>
      <point x="704.52" y="415.93"/>
      <point x="718.75" y="536.2" type="curve"/>
      <point x="612.7099999999999" y="536.2" type="line"/>
      <point x="604.16" y="443.55"/>
      <point x="546.99" y="385.8"/>
      <point x="311.6" y="77.27999999999999" type="curve"/>
      <point x="141.15" y="543.1" type="line"/>
      <point x="36.11" y="538.2700000000001" type="line"/>
      <point x="238.6" y="2.220446049250313e-16" type="line"/>
    </contour>
  </outline>
</glyph>
<glyph name="w" format="2">
  <advance width="1005.7199999999999"/>
  <unicode hex="0077"/>
  <note>
15
</note>
  <anchor x="468.08000000000004" y="0.0" name="bottom"/>
  <anchor x="525.62" y="536.2" name="top"/>
  <outline>
    <contour>
      <point x="751.38" y="0.0" type="line"/>
      <point x="957.0600000000001" y="331.6"/>
      <point x="1020.24" y="453.62"/>
      <point x="1020.24" y="536.2" type="curve"/>
      <point x="930.94" y="536.2" type="line"/>
      <point x="929.7" y="472.64"/>
      <point x="898.84" y="394.18"/>
      <point x="706.56" y="68.98" type="curve"/>
      <point x="589.4599999999999" y="536.2" type="line"/>
      <point x="479.94" y="536.2" type="line"/>
      <point x="406.20000000000005" y="368.44"/>
      <point x="332.70000000000005" y="225.72"/>
      <point x="255.23999999999998" y="70.98" type="curve"/>
      <point x="133.3" y="543.1" type="line"/>
      <point x="42.14" y="538.58" type="line"/>
      <point x="183.85999999999999" y="0.0" type="line"/>
      <point x="299.58" y="0.0" type="line"/>
      <point x="373.94" y="141.10000000000002"/>
      <point x="453.88" y="299.56"/>
      <point x="520.8" y="434.46000000000004" type="curve"/>
      <point x="644.34" y="0.0" type="line"/>
    </contour>
  </outline>
</glyph>
<glyph name="x" format="2">
  <advance width="715.0000000000001"/>
  <unicode hex="0078"/>
  <outline>
    <contour>
      <point x="622.36" y="536.2" type="line"/>
      <point x="576.9" y="457.92"/>
      <point x="549.74" y="424.50000000000006"/>
      <point x="381.16" y="324.76" type="curve"/>
      <point x="184.56" y="547.82" type="line"/>
      <point x="76.94" y="534.82" type="line"/>
      <point x="292.72" y="291.72" type="line"/>
      <point x="93.26" y="166.68"/>
      <point x="36.54" y="93.19999999999999"/>
      <point x="-4.419999999999998" y="0.0" type="curve"/>
      <point x="103.86000000000001" y="0.0" type="line"/>
      <point x="136.76" y="66.38000000000001"/>
      <point x="159.1" y="125.52000000000002"/>
      <point x="338.96" y="234.94" type="curve"/>
      <point x="554.1" y="-6.2799999999999985" type="line"/>
      <point x="659.1" y="3.62" type="line"/>
      <point x="424.91999999999996" y="267.97999999999996" type="line"/>
      <point x="616.8399999999999" y="381.06"/>
      <point x="684.5799999999999" y="451.70000000000005"/>
      <point x="727.4" y="536.2" type="curve"/>
    </contour>
  </outline>
</glyph>
<glyph name="y" format="2">
  <advance width="706.28"/>
  <unicode hex="0079"/>
  <anchor x="353.44" y="-130.2" name="bottom"/>
  <anchor x="386.78" y="536.2" name="top"/>
  <outline>
    <contour>
      <point x="621.54" y="536.2" type="line"/>
      <point x="615.52" y="453.64"/>
      <point x="476.15999999999997" y="222.36"/>
      <point x="334.78" y="42.3" type="curve"/>
      <point x="139.6" y="543.1" type="line"/>
      <point x="37.04" y="538.58" type="line"/>
      <point x="253.58" y="-6.9" type="line"/>
      <point x="291.53999999999996" y="-6.9" type="line"/>
      <point x="223.74" y="-87.56"/>
      <point x="153.98" y="-158.94"/>
      <point x="95.16" y="-207.24" type="curve"/>
      <point x="202.02" y="-217.9" type="line"/>
      <point x="394.6" y="-54.620000000000005"/>
      <point x="726.64" y="417.03999999999996"/>
      <point x="722.6200000000001" y="536.2" type="curve"/>
    </contour>
  </outline>
</glyph>
<glyph name="z" format="2">
  <advance width="746.6"/>
  <unicode hex="007A"/>
  <anchor x="344.89" y="0.0" name="bottom"/>
  <anchor x="372.33" y="275.0" name="center"/>
  <anchor x="407.36" y="536.2" name="top"/>
  <outline>
    <contour>
      <point x="21.799999999999997" y="0.0" type="line"/>
      <point x="666.36" y="0.0" type="line"/>
      <point x="677.73" y="69.22" type="line"/>
      <point x="178.39000000000001" y="69.22" type="line"/>
      <point x="710.5" y="473.87" type="line"/>
      <point x="720.63" y="536.2" type="line"/>
      <point x="116.93" y="536.2" type="line"/>
      <point x="105.25" y="466.98" type="line"/>
      <point x="566.83" y="466.98" type="line"/>
      <point x="30.62" y="60.47" type="line"/>
    </contour>
  </outline>
</glyph>
<glyph name="braceleft" format="2">
  <advance width="472.40000000000003"/>
  <unicode hex="007B"/>
  <outline>
    <contour>
      <point x="111.34" y="-89.77" type="curve" smooth="yes"/>
      <point x="111.34" y="-162.72"/>
      <point x="160.08" y="-210.0"/>
      <point x="270.90999999999997" y="-210.0" type="curve" smooth="yes"/>
      <point x="357.02" y="-210.0" type="line"/>
      <point x="366.84000000000003" y="-147.22" type="line"/>
      <point x="303.98" y="-147.22" type="line" smooth="yes"/>
      <point x="225.75" y="-147.22"/>
      <point x="201.09" y="-112.83"/>
      <point x="201.09" y="-70.58" type="curve" smooth="yes"/>
      <point x="201.09" y="11.739999999999998"/>
      <point x="270.61" y="83.64999999999999"/>
      <point x="270.61" y="183.17999999999998" type="curve" smooth="yes"/>
      <point x="270.61" y="217.79999999999998"/>
      <point x="255.29999999999998" y="247.04"/>
      <point x="215.0" y="264.31" type="curve"/>
      <point x="281.79" y="281.44"/>
      <point x="308.22999999999996" y="344.21"/>
      <point x="308.22999999999996" y="428.01" type="curve" smooth="yes"/>
      <point x="308.22999999999996" y="468.39"/>
      <point x="299.58000000000004" y="501.57000000000005"/>
      <point x="299.58000000000004" y="539.6999999999999" type="curve" smooth="yes"/>
      <point x="299.58000000000004" y="599.4"/>
      <point x="320.06" y="677.22"/>
      <point x="435.34" y="677.22" type="curve" smooth="yes"/>
      <point x="498.2" y="677.22" type="line"/>
      <point x="508.0199999999999" y="740.0" type="line"/>
      <point x="421.90999999999997" y="740.0" type="line" smooth="yes"/>
      <point x="263.42" y="740.0"/>
      <point x="212.55" y="639.54"/>
      <point x="212.55" y="540.63" type="curve" smooth="yes"/>
      <point x="212.55" y="503.87999999999994"/>
      <point x="220.89" y="461.28999999999996"/>
      <point x="220.89" y="419.94" type="curve" smooth="yes"/>
      <point x="220.89" y="346.82000000000005"/>
      <point x="200.65" y="295.39000000000004"/>
      <point x="139.74" y="295.39000000000004" type="curve" smooth="yes"/>
      <point x="122.36" y="295.39000000000004" type="line"/>
      <point x="112.54" y="233.92" type="line"/>
      <point x="130.61" y="233.92" type="line" smooth="yes"/>
      <point x="168.82" y="233.92"/>
      <point x="184.65" y="210.5"/>
      <point x="184.65" y="180.22" type="curve" smooth="yes"/>
      <point x="184.65" y="83.06"/>
      <point x="111.34" y="7.92"/>
    </contour>
  </outline>
</glyph>
<glyph name="bar" format="2">
  <advance width="315.02000000000004"/>
  <unicode hex="007C"/>
  <outline>
    <contour>
      <point x="278.89000000000004" y="790.0" type="line"/>
      <point x="201.06" y="790.0" type="line"/>
      <point x="41.13" y="-210.0" type="line"/>
      <point x="118.65" y="-210.0" type="line"/>
    </contour>
  </outline>
</glyph>
<glyph name="braceright" format="2">
  <advance width="472.40000000000003"/>
  <unicode hex="007D"/>
  <outline>
    <contour>
      <point x="357.37" y="619.77" type="curve" smooth="yes"/>
      <point x="357.37" y="692.7199999999999"/>
      <point x="308.63" y="740.0"/>
      <point x="197.8" y="740.0" type="curve" smooth="yes"/>
      <point x="111.69" y="740.0" type="line"/>
      <point x="101.87" y="677.22" type="line"/>
      <point x="164.73000000000002" y="677.22" type="line" smooth="yes"/>
      <point x="242.95999999999998" y="677.22"/>
      <point x="267.62000000000006" y="642.8299999999999"/>
      <point x="267.62000000000006" y="600.58" type="curve" smooth="yes"/>
      <point x="267.62000000000006" y="518.26"/>
      <point x="198.1" y="446.34999999999997"/>
      <point x="198.1" y="346.82" type="curve" smooth="yes"/>
      <point x="198.1" y="312.2"/>
      <point x="213.41" y="282.96"/>
      <point x="253.71" y="265.69" type="curve"/>
      <point x="186.92" y="248.56"/>
      <point x="160.48000000000002" y="185.79000000000002"/>
      <point x="160.48000000000002" y="101.99" type="curve" smooth="yes"/>
      <point x="160.48000000000002" y="61.61"/>
      <point x="169.13000000000002" y="28.43"/>
      <point x="169.13000000000002" y="-9.700000000000001" type="curve" smooth="yes"/>
      <point x="169.13000000000002" y="-69.4"/>
      <point x="148.65" y="-147.22"/>
      <point x="33.370000000000005" y="-147.22" type="curve" smooth="yes"/>
      <point x="-29.490000000000002" y="-147.22" type="line"/>
      <point x="-39.31" y="-210.0" type="line"/>
      <point x="46.800000000000004" y="-210.0" type="line" smooth="yes"/>
      <point x="205.29" y="-210.0"/>
      <point x="256.16" y="-109.53999999999999"/>
      <point x="256.16" y="-10.63" type="curve" smooth="yes"/>
      <point x="256.16" y="26.119999999999997"/>
      <point x="247.82" y="68.71"/>
      <point x="247.82" y="110.06" type="curve" smooth="yes"/>
      <point x="247.82" y="183.17999999999998"/>
      <point x="268.06" y="234.60999999999999"/>
      <point x="328.96999999999997" y="234.60999999999999" type="curve" smooth="yes"/>
      <point x="346.34999999999997" y="234.60999999999999" type="line"/>
      <point x="356.16999999999996" y="296.08" type="line"/>
      <point x="338.1" y="296.08" type="line" smooth="yes"/>
      <point x="299.89" y="296.08"/>
      <point x="284.06" y="319.5"/>
      <point x="284.06" y="349.78" type="curve" smooth="yes"/>
      <point x="284.06" y="446.94000000000005"/>
      <point x="357.37" y="522.0799999999999"/>
    </contour>
  </outline>
</glyph>
<glyph name="asciitilde" format="2">
  <advance width="586.61"/>
  <unicode hex="007E"/>
  <outline>
    <contour>
      <point x="512.78" y="253.95000000000002" type="curve"/>
      <point x="524.8399999999999" y="334.37" type="line"/>
      <point x="495.74" y="311.58"/>
      <point x="461.46999999999997" y="289.53999999999996"/>
      <point x="417.89" y="289.53999999999996" type="curve" smooth="yes"/>
      <point x="318.53999999999996" y="289.53999999999996"/>
      <point x="268.90999999999997" y="385.34"/>
      <point x="183.26" y="385.34" type="curve" smooth="yes"/>
      <point x="139.31" y="385.34"/>
      <point x="103.76" y="361.17"/>
      <point x="82.48" y="345.89" type="curve"/>
      <point x="68.87" y="264.78000000000003" type="line"/>
      <point x="97.75999999999999" y="283.64"/>
      <point x="126.89999999999999" y="306.44"/>
      <point x="171.71999999999997" y="306.44" type="curve" smooth="yes"/>
      <point x="265.56" y="306.44"/>
      <point x="312.64" y="210.64"/>
      <point x="411.93" y="210.64" type="curve" smooth="yes"/>
      <point x="450.62" y="210.64"/>
      <point x="487.23" y="232.39999999999998"/>
    </contour>
  </outline>
</glyph>
<glyph name="cent" format="2">
  <advance width="1038.96"/>
  <unicode hex="00A2"/>
  <outline>
    <contour>
      <point x="452.97" y="-104.69" type="line"/>
      <point x="523.36" y="-104.69" type="line"/>
      <point x="538.67" y="-9.0" type="line"/>
      <point x="656.7900000000001" y="-4.93"/>
      <point x="753.97" y="13.11"/>
      <point x="811.06" y="27.9" type="curve"/>
      <point x="807.6099999999999" y="96.81" type="line"/>
      <point x="737.08" y="82.26"/>
      <point x="633.5" y="62.63"/>
      <point x="549.0699999999999" y="62.63" type="curve" smooth="yes"/>
      <point x="386.28000000000003" y="62.63"/>
      <point x="299.4" y="122.19999999999999"/>
      <point x="299.4" y="239.26999999999998" type="curve" smooth="yes"/>
      <point x="299.4" y="383.02"/>
      <point x="419.76000000000005" y="472.02"/>
      <point x="614.27" y="472.02" type="curve" smooth="yes"/>
      <point x="710.01" y="472.02"/>
      <point x="780.06" y="456.36"/>
      <point x="853.5600000000001" y="437.12" type="curve"/>
      <point x="876.92" y="510.43999999999994" type="line"/>
      <point x="801.68" y="531.1999999999999"/>
      <point x="727.4300000000001" y="545.58"/>
      <point x="627.22" y="546.2" type="curve"/>
      <point x="642.84" y="641.1999999999999" type="line"/>
      <point x="572.45" y="641.1999999999999" type="line"/>
      <point x="555.9" y="539.62" type="line"/>
      <point x="324.77" y="521.6999999999999"/>
      <point x="196.07999999999998" y="401.34999999999997"/>
      <point x="196.07999999999998" y="225.14999999999998" type="curve" smooth="yes"/>
      <point x="196.07999999999998" y="71.06"/>
      <point x="304.03000000000003" y="0.9200000000000004"/>
      <point x="468.21" y="-6.21" type="curve"/>
    </contour>
  </outline>
</glyph>
<glyph name="sterling" format="2">
  <advance width="1038.96"/>
  <unicode hex="00A3"/>
  <outline>
    <contour>
      <point x="116.38" y="0.0" type="line"/>
      <point x="875.22" y="0.0" type="line"/>
      <point x="886.9000000000001" y="72.7" type="line"/>
      <point x="250.2" y="72.7" type="line"/>
      <point x="355.34000000000003" y="141.38"/>
      <point x="399.52" y="191.7"/>
      <point x="399.52" y="265.92" type="curve" smooth="yes"/>
      <point x="399.52" y="326.14"/>
      <point x="347.34000000000003" y="389.62"/>
      <point x="347.34000000000003" y="454.41999999999996" type="curve" smooth="yes"/>
      <point x="347.34000000000003" y="573.5600000000001"/>
      <point x="472.09999999999997" y="636.1999999999999"/>
      <point x="639.86" y="636.1999999999999" type="curve" smooth="yes"/>
      <point x="734.4799999999999" y="636.1999999999999"/>
      <point x="826.08" y="626.2"/>
      <point x="928.1600000000001" y="596.4399999999999" type="curve"/>
      <point x="952.76" y="666.76" type="line"/>
      <point x="845.48" y="699.52"/>
      <point x="740.7" y="710.0"/>
      <point x="642.1" y="710.0" type="curve" smooth="yes"/>
      <point x="445.46000000000004" y="710.0"/>
      <point x="250.84000000000003" y="640.5"/>
      <point x="250.84000000000003" y="465.92" type="curve" smooth="yes"/>
      <point x="250.84000000000003" y="389.68"/>
      <point x="304.88" y="331.58"/>
      <point x="304.88" y="265.15999999999997" type="curve" smooth="yes"/>
      <point x="304.88" y="185.32"/>
      <point x="235.14000000000001" y="132.62"/>
      <point x="126.2" y="62.779999999999994" type="curve"/>
    </contour>
    <contour>
      <point x="136.33999999999997" y="330.28" type="line"/>
      <point x="788.42" y="331.66" type="line"/>
      <point x="799.48" y="397.64" type="line"/>
      <point x="146.78000000000003" y="397.64" type="line"/>
    </contour>
  </outline>
</glyph>
<glyph name="currency" format="2">
  <advance width="467.15000000000003"/>
  <unicode hex="00A4"/>
  <outline>
    <contour>
      <point x="71.86" y="102.46" type="line"/>
      <point x="152.33999999999997" y="178.7" type="line"/>
      <point x="168.17" y="164.28"/>
      <point x="188.76" y="156.38"/>
      <point x="213.49" y="156.38" type="curve" smooth="yes"/>
      <point x="238.15" y="156.38"/>
      <point x="262.5" y="164.97"/>
      <point x="283.40000000000003" y="179.01" type="curve"/>
      <point x="341.26" y="102.46" type="line"/>
      <point x="389.67" y="148.07999999999998" type="line"/>
      <point x="336.53000000000003" y="219.67" type="line"/>
      <point x="358.81" y="248.35999999999999"/>
      <point x="373.71" y="284.88"/>
      <point x="373.71" y="326.09000000000003" type="curve" smooth="yes"/>
      <point x="373.71" y="344.75"/>
      <point x="369.26" y="362.72"/>
      <point x="361.35999999999996" y="376.93" type="curve"/>
      <point x="436.95" y="448.52" type="line"/>
      <point x="403.39" y="494.14" type="line"/>
      <point x="321.6" y="417.59" type="line"/>
      <point x="305.84" y="432.32"/>
      <point x="283.56" y="440.90999999999997"/>
      <point x="258.59000000000003" y="440.90999999999997" type="curve" smooth="yes"/>
      <point x="233.85999999999999" y="440.90999999999997"/>
      <point x="210.51000000000002" y="432.32"/>
      <point x="190.23000000000002" y="417.9" type="curve"/>
      <point x="133.68" y="494.14" type="line"/>
      <point x="85.27000000000001" y="448.52" type="line"/>
      <point x="136.17" y="378.48" type="line"/>
      <point x="112.58" y="350.47999999999996"/>
      <point x="98.36999999999999" y="313.34"/>
      <point x="98.37" y="272.82" type="curve" smooth="yes"/>
      <point x="98.37" y="251.85"/>
      <point x="102.82" y="232.95"/>
      <point x="111.03" y="217.43" type="curve"/>
      <point x="37.68" y="148.07999999999998" type="line"/>
    </contour>
    <contour>
      <point x="222.45000000000002" y="210.48" type="curve" smooth="yes"/>
      <point x="182.99" y="210.48"/>
      <point x="156.12" y="241.49"/>
      <point x="156.12" y="283.71" type="curve" smooth="yes"/>
      <point x="156.12" y="339.83"/>
      <point x="202.41" y="386.81"/>
      <point x="250.01" y="386.81" type="curve" smooth="yes"/>
      <point x="289.78000000000003" y="386.81"/>
      <point x="316.65" y="355.87"/>
      <point x="316.65" y="314.65000000000003" type="curve" smooth="yes"/>
      <point x="316.65" y="257.6"/>
      <point x="270.81" y="210.48"/>
    </contour>
  </outline>
</glyph>
<glyph name="yen" format="2">
  <advance width="1038.96"/>
  <unicode hex="00A5"/>
  <outline>
    <contour>
      <point x="188.32" y="335.0" type="line"/>
      <point x="477.15999999999997" y="335.0" type="line"/>
      <point x="461.08" y="232.58" type="line"/>
      <point x="172.24" y="232.58" type="line"/>
      <point x="163.28" y="177.24" type="line"/>
      <point x="452.12" y="177.24" type="line"/>
      <point x="424.5" y="0.0" type="line"/>
      <point x="533.64" y="0.0" type="line"/>
      <point x="561.26" y="177.24" type="line"/>
      <point x="854.2" y="177.24" type="line"/>
      <point x="863.16" y="232.58" type="line"/>
      <point x="570.22" y="232.58" type="line"/>
      <point x="586.3" y="335.0" type="line"/>
      <point x="879.24" y="335.0" type="line"/>
      <point x="888.2" y="390.34" type="line"/>
      <point x="595.26" y="390.34" type="line"/>
      <point x="971.0600000000001" y="694.48" type="line"/>
      <point x="869.44" y="705.52" type="line"/>
      <point x="551.06" y="451.12" type="line"/>
      <point x="306.9" y="705.52" type="line"/>
      <point x="200.52" y="694.48" type="line"/>
      <point x="486.12" y="390.34" type="line"/>
      <point x="197.9" y="390.34" type="line"/>
    </contour>
  </outline>
</glyph>
<glyph name="brokenbar" format="2">
  <advance width="315.02000000000004"/>
  <unicode hex="00A6"/>
  <outline>
    <contour>
      <point x="214.57999999999998" y="391.0" type="line"/>
      <point x="278.89" y="790.0" type="line"/>
      <point x="201.06" y="790.0" type="line"/>
      <point x="136.75" y="391.0" type="line"/>
    </contour>
    <contour>
      <point x="105.44" y="190.0" type="line"/>
      <point x="41.129999999999995" y="-210.0" type="line"/>
      <point x="118.65" y="-210.0" type="line"/>
      <point x="182.96" y="190.0" type="line"/>
    </contour>
  </outline>
</glyph>
<glyph name="section" format="2">
  <advance width="670.15"/>
  <unicode hex="00A7"/>
  <outline>
    <contour>
      <point x="20.3" y="-70.56" type="curve"/>
      <point x="-15.09" y="-146.39" type="line"/>
      <point x="52.87" y="-193.51"/>
      <point x="121.9" y="-220.0"/>
      <point x="212.45999999999998" y="-220.0" type="curve" smooth="yes"/>
      <point x="405.53000000000003" y="-220.0"/>
      <point x="589.6500000000001" y="-120.64"/>
      <point x="589.6500000000001" y="107.38" type="curve" smooth="yes"/>
      <point x="589.6500000000001" y="289.28"/>
      <point x="436.57" y="421.97"/>
      <point x="436.57" y="554.49" type="curve" smooth="yes"/>
      <point x="436.57" y="619.12"/>
      <point x="473.71" y="661.6899999999999"/>
      <point x="547.56" y="661.6899999999999" type="curve" smooth="yes"/>
      <point x="584.4" y="661.6899999999999"/>
      <point x="612.1999999999999" y="651.1"/>
      <point x="638.9300000000001" y="641.96" type="curve"/>
      <point x="663.9799999999999" y="724.89" type="line"/>
      <point x="609.12" y="740.86"/>
      <point x="545.05" y="750.0"/>
      <point x="479.91" y="750.0" type="curve" smooth="yes"/>
      <point x="278.59999999999997" y="750.0"/>
      <point x="95.92" y="631.77"/>
      <point x="95.92" y="402.9" type="curve" smooth="yes"/>
      <point x="95.92" y="214.18"/>
      <point x="246.64999999999998" y="83.00999999999999"/>
      <point x="246.64999999999998" y="-26.759999999999994" type="curve" smooth="yes"/>
      <point x="246.64999999999998" y="-91.39999999999999"/>
      <point x="197.70000000000002" y="-127.64999999999999"/>
      <point x="146.51999999999998" y="-127.64999999999999" type="curve" smooth="yes"/>
      <point x="100.13" y="-127.64999999999999"/>
      <point x="56.78" y="-99.19000000000001"/>
    </contour>
    <contour>
      <point x="459.95" y="694.15" type="curve"/>
      <point x="387.71000000000004" y="670.88"/>
      <point x="358.43" y="612.19"/>
      <point x="358.43" y="544.05" type="curve" smooth="yes"/>
      <point x="358.43" y="399.27"/>
      <point x="507.17" y="236.29000000000002"/>
      <point x="507.17" y="84.23" type="curve" smooth="yes"/>
      <point x="507.17" y="-91.08"/>
      <point x="348.05999999999995" y="-182.91"/>
      <point x="194.56" y="-166.82999999999998" type="curve"/>
      <point x="272.76" y="-151.8"/>
      <point x="325.79" y="-88.39"/>
      <point x="325.79" y="-15.429999999999998" type="curve" smooth="yes"/>
      <point x="325.79" y="114.24000000000001"/>
      <point x="183.26" y="247.54999999999998"/>
      <point x="183.26" y="413.51" type="curve" smooth="yes"/>
      <point x="183.26" y="579.1"/>
      <point x="288.5" y="685.12"/>
    </contour>
  </outline>
</glyph>
<glyph name="copyright" format="2">
  <advance width="969.14"/>
  <unicode hex="00A9"/>
  <outline>
    <contour>
      <point x="468.12" y="-9.620000000000001" type="curve" smooth="yes"/>
      <point x="736.6800000000001" y="-10.86"/>
      <point x="914.9599999999999" y="128.05999999999997"/>
      <point x="914.9599999999999" y="392.04" type="curve" smooth="yes"/>
      <point x="914.9599999999999" y="609.54"/>
      <point x="738.14" y="708.38"/>
      <point x="519.36" y="709.62" type="curve" smooth="yes"/>
      <point x="257.52" y="710.86"/>
      <point x="78.17999999999999" y="575.14"/>
      <point x="78.17999999999999" y="307.58000000000004" type="curve" smooth="yes"/>
      <point x="78.17999999999999" y="90.94"/>
      <point x="251.76" y="-8.38"/>
    </contour>
    <contour>
      <point x="485.88000000000005" y="176.7" type="curve" smooth="yes"/>
      <point x="560.46" y="176.7"/>
      <point x="620.6199999999999" y="190.17999999999998"/>
      <point x="669.82" y="207.28" type="curve"/>
      <point x="661.4800000000001" y="260.62" type="line"/>
      <point x="611.2800000000001" y="247.0"/>
      <point x="561.08" y="236.61999999999998"/>
      <point x="500.38" y="236.61999999999998" type="curve" smooth="yes"/>
      <point x="410.15999999999997" y="236.61999999999998"/>
      <point x="351.90000000000003" y="274.59999999999997"/>
      <point x="351.90000000000003" y="334.54" type="curve" smooth="yes"/>
      <point x="351.90000000000003" y="421.11999999999995"/>
      <point x="421.2" y="466.0"/>
      <point x="532.98" y="466.0" type="curve" smooth="yes"/>
      <point x="586.4599999999999" y="466.0"/>
      <point x="632.6000000000001" y="459.24"/>
      <point x="684.08" y="446.71999999999997" type="curve"/>
      <point x="699.7599999999999" y="503.53999999999996" type="line"/>
      <point x="650.3800000000001" y="517.3"/>
      <point x="595.4200000000001" y="525.9200000000001"/>
      <point x="536.22" y="525.9200000000001" type="curve" smooth="yes"/>
      <point x="380.68" y="525.9200000000001"/>
      <point x="277.72" y="461.15999999999997"/>
      <point x="277.72" y="330.96" type="curve" smooth="yes"/>
      <point x="277.72" y="234.8"/>
      <point x="358.06" y="176.7"/>
    </contour>
    <contour>
      <point x="474.84" y="38.52" type="curve" smooth="yes"/>
      <point x="281.21999999999997" y="38.52"/>
      <point x="131.89999999999998" y="119.72"/>
      <point x="131.89999999999998" y="314.68" type="curve" smooth="yes"/>
      <point x="131.89999999999998" y="542.54"/>
      <point x="278.06000000000006" y="662.1"/>
      <point x="513.6400000000001" y="662.1" type="curve" smooth="yes"/>
      <point x="706.0600000000001" y="662.1"/>
      <point x="861.24" y="580.2800000000001"/>
      <point x="861.24" y="383.56" type="curve" smooth="yes"/>
      <point x="861.24" y="154.93999999999994"/>
      <point x="711.18" y="38.52"/>
    </contour>
  </outline>
</glyph>
<glyph name="ordfeminine" format="2">
  <advance width="554.8399999999999"/>
  <unicode hex="00AA"/>
  <outline>
    <contour>
      <point x="49.15" y="242.45" type="line"/>
      <point x="476.35" y="242.45" type="line"/>
      <point x="484.93" y="296.72" type="line"/>
      <point x="57.730000000000004" y="296.72" type="line"/>
    </contour>
    <component base="a.superior" xOffset="14.900000000000002"/>
  </outline>
</glyph>
<glyph name="logicalnot" format="2">
  <advance width="583.68"/>
  <unicode hex="00AC"/>
  <outline>
    <contour>
      <point x="74.11" y="352.07000000000005" type="line"/>
      <point x="460.4" y="352.07000000000005" type="line"/>
      <point x="432.12" y="169.25" type="line"/>
      <point x="504.37" y="169.25" type="line"/>
      <point x="545.26" y="428.03999999999996" type="line"/>
      <point x="86.72" y="428.03999999999996" type="line"/>
    </contour>
  </outline>
</glyph>
<glyph name="registered" format="2">
  <advance width="928.2"/>
  <unicode hex="00AE"/>
  <outline>
    <contour>
      <point x="487.18" y="210.76" type="curve" smooth="yes"/>
      <point x="750.8800000000001" y="210.76"/>
      <point x="904.64" y="350.58000000000004"/>
      <point x="904.64" y="580.24" type="curve" smooth="yes"/>
      <point x="904.64" y="777.1800000000001"/>
      <point x="771.84" y="891.2399999999999"/>
      <point x="528.02" y="891.2399999999999" type="curve" smooth="yes"/>
      <point x="264.32" y="891.2399999999999"/>
      <point x="111.17999999999999" y="751.42"/>
      <point x="111.17999999999999" y="521.7600000000001" type="curve" smooth="yes"/>
      <point x="111.17999999999999" y="325.44"/>
      <point x="242.73999999999998" y="210.76"/>
    </contour>
    <contour>
      <point x="492.14000000000004" y="257.9" type="curve" smooth="yes"/>
      <point x="273.58" y="257.9"/>
      <point x="160.55999999999997" y="355.04"/>
      <point x="160.55999999999997" y="522.38" type="curve" smooth="yes"/>
      <point x="160.55999999999997" y="731.5"/>
      <point x="293.53999999999996" y="844.72"/>
      <point x="523.6800000000001" y="844.72" type="curve" smooth="yes"/>
      <point x="742.24" y="844.72"/>
      <point x="855.26" y="746.96"/>
      <point x="855.26" y="579.62" type="curve" smooth="yes"/>
      <point x="855.26" y="370.49999999999994"/>
      <point x="721.6600000000001" y="257.9"/>
    </contour>
    <contour>
      <point x="311.84" y="400.62" type="line"/>
      <point x="373.1" y="400.62" type="line"/>
      <point x="393.0" y="520.4000000000001" type="line"/>
      <point x="428.40000000000003" y="520.0199999999999"/>
      <point x="458.82000000000005" y="519.02"/>
      <point x="508.02" y="520.02" type="curve"/>
      <point x="564.62" y="534.9" type="line"/>
      <point x="649.16" y="536.04"/>
      <point x="697.3199999999999" y="557.9399999999999"/>
      <point x="697.3199999999999" y="632.62" type="curve" smooth="yes"/>
      <point x="697.3199999999999" y="691.14"/>
      <point x="646.8" y="713.62"/>
      <point x="517.26" y="713.62" type="curve" smooth="yes"/>
      <point x="476.42" y="713.62"/>
      <point x="431.68000000000006" y="713.6199999999999"/>
      <point x="360.84000000000003" y="709.9999999999999" type="curve"/>
    </contour>
    <contour>
      <point x="495.76000000000005" y="561.58" type="curve" smooth="yes"/>
      <point x="466.02" y="561.58"/>
      <point x="441.79999999999995" y="562.58"/>
      <point x="399.72" y="562.9599999999999" type="curve"/>
      <point x="415.14000000000004" y="663.34" type="line"/>
      <point x="462.04" y="666.1"/>
      <point x="470.94" y="666.1"/>
      <point x="513.64" y="666.1" type="curve" smooth="yes"/>
      <point x="600.84" y="666.1"/>
      <point x="632.2" y="655.8199999999999"/>
      <point x="632.2" y="619.7" type="curve" smooth="yes"/>
      <point x="632.2" y="573.86"/>
      <point x="607.74" y="561.58"/>
    </contour>
    <contour>
      <point x="695.18" y="398.38" type="curve" smooth="yes"/>
      <point x="697.18" y="398.38"/>
      <point x="700.1800000000001" y="398.38"/>
      <point x="702.8000000000001" y="398.38" type="curve"/>
      <point x="711.0" y="454.58" type="line"/>
      <point x="708.76" y="454.58000000000004"/>
      <point x="706.76" y="454.58000000000004"/>
      <point x="705.1400000000001" y="454.58000000000004" type="curve" smooth="yes"/>
      <point x="674.92" y="454.58000000000004"/>
      <point x="613.2199999999999" y="492.46"/>
      <point x="566.52" y="541.52" type="curve"/>
      <point x="488.96000000000004" y="525.64" type="line"/>
      <point x="554.78" y="461.52"/>
      <point x="631.0600000000001" y="398.38"/>
    </contour>
  </outline>
</glyph>
<glyph name="degree" format="2">
  <advance width="318.54"/>
  <unicode hex="00B0"/>
  <outline>
    <contour>
      <point x="190.51999999999998" y="454.9" type="curve" smooth="yes"/>
      <point x="269.21999999999997" y="454.9"/>
      <point x="335.23999999999995" y="517.78"/>
      <point x="335.23999999999995" y="610.86" type="curve" smooth="yes"/>
      <point x="335.23999999999995" y="670.4"/>
      <point x="298.90000000000003" y="721.8"/>
      <point x="226.86" y="721.8" type="curve" smooth="yes"/>
      <point x="149.16000000000003" y="721.8"/>
      <point x="82.76" y="655.78"/>
      <point x="82.76" y="564.0799999999999" type="curve" smooth="yes"/>
      <point x="82.76" y="505.54"/>
      <point x="118.48" y="454.9"/>
    </contour>
    <contour>
      <point x="198.48000000000002" y="518.3000000000001" type="curve" smooth="yes"/>
      <point x="166.44" y="518.3000000000001"/>
      <point x="146.4" y="542.7199999999999"/>
      <point x="146.4" y="574.9" type="curve" smooth="yes"/>
      <point x="146.4" y="623.6"/>
      <point x="180.72" y="658.4"/>
      <point x="219.51999999999998" y="658.4" type="curve" smooth="yes"/>
      <point x="253.32" y="658.4"/>
      <point x="271.97999999999996" y="633.5999999999999"/>
      <point x="271.97999999999996" y="600.42" type="curve" smooth="yes"/>
      <point x="271.97999999999996" y="554.0999999999999"/>
      <point x="236.66" y="518.3000000000001"/>
    </contour>
  </outline>
</glyph>
<glyph name="plusminus" format="2">
  <advance width="584.3"/>
  <unicode hex="00B1"/>
  <outline>
    <contour>
      <point x="485.58000000000004" y="50.75" type="line"/>
      <point x="498.19" y="126.72" type="line"/>
      <point x="310.46999999999997" y="126.72" type="line"/>
      <point x="337.82" y="302.09999999999997" type="line"/>
      <point x="525.54" y="302.09999999999997" type="line"/>
      <point x="538.15" y="378.07" type="line"/>
      <point x="350.43" y="378.07" type="line"/>
      <point x="379.4" y="561.27" type="line"/>
      <point x="295.99" y="561.27" type="line"/>
      <point x="266.4" y="378.07" type="line"/>
      <point x="79.61000000000001" y="378.07" type="line"/>
      <point x="67.0" y="302.09999999999997" type="line"/>
      <point x="254.41" y="302.09999999999997" type="line"/>
      <point x="226.44" y="126.72" type="line"/>
      <point x="39.65" y="126.72" type="line"/>
      <point x="27.04" y="50.75" type="line"/>
    </contour>
  </outline>
</glyph>
<glyph name="uni00B2" format="2">
  <advance width="619.93"/>
  <unicode hex="00B2"/>
  <outline>
    <contour>
      <point x="91.22" y="370.0" type="line"/>
      <point x="561.5699999999999" y="370.0" type="line"/>
      <point x="568.0799999999999" y="416.69" type="line"/>
      <point x="230.56" y="416.69" type="line"/>
      <point x="384.25" y="491.3"/>
      <point x="525.87" y="545.3"/>
      <point x="525.87" y="660.18" type="curve" smooth="yes"/>
      <point x="525.87" y="736.86"/>
      <point x="455.40999999999997" y="770.93"/>
      <point x="362.0" y="770.93" type="curve" smooth="yes"/>
      <point x="298.34999999999997" y="770.93"/>
      <point x="216.47" y="752.38"/>
      <point x="163.44000000000003" y="729.28" type="curve"/>
      <point x="178.04999999999998" y="681.9" type="line"/>
      <point x="227.53" y="705.14"/>
      <point x="287.57" y="719.9000000000001"/>
      <point x="338.99" y="719.9000000000001" type="curve" smooth="yes"/>
      <point x="404.72999999999996" y="719.9000000000001"/>
      <point x="444.08" y="694.79"/>
      <point x="444.08" y="647.33" type="curve" smooth="yes"/>
      <point x="444.08000000000004" y="554.28"/>
      <point x="316.02" y="502.1"/>
      <point x="95.24999999999999" y="407.55999999999995" type="curve"/>
    </contour>
  </outline>
</glyph>
<glyph name="uni00B3" format="2">
  <advance width="576.5"/>
  <unicode hex="00B3"/>
  <outline>
    <contour>
      <point x="47.93" y="411.32" type="line"/>
      <point x="113.17" y="376.97"/>
      <point x="194.92000000000002" y="363.38"/>
      <point x="302.07" y="363.38" type="curve" smooth="yes"/>
      <point x="462.04" y="363.38"/>
      <point x="565.39" y="398.21"/>
      <point x="565.39" y="492.2" type="curve" smooth="yes"/>
      <point x="565.39" y="537.0"/>
      <point x="527.59" y="570.7600000000001"/>
      <point x="458.71999999999997" y="582.0" type="curve"/>
      <point x="520.0000000000001" y="594.76"/>
      <point x="562.0" y="628.83"/>
      <point x="562.0" y="674.69" type="curve" smooth="yes"/>
      <point x="562.0" y="735.93"/>
      <point x="484.32" y="770.93"/>
      <point x="342.13" y="770.93" type="curve" smooth="yes"/>
      <point x="278.73" y="770.93"/>
      <point x="190.6" y="760.3100000000001"/>
      <point x="134.42000000000002" y="746.62" type="curve"/>
      <point x="137.87" y="699.93" type="line"/>
      <point x="200.48999999999998" y="713.3100000000001"/>
      <point x="278.17999999999995" y="721.76"/>
      <point x="329.9" y="721.76" type="curve" smooth="yes"/>
      <point x="429.64" y="721.76"/>
      <point x="489.82000000000005" y="700.82"/>
      <point x="489.82000000000005" y="663.6" type="curve" smooth="yes"/>
      <point x="489.82000000000005" y="622.07"/>
      <point x="428.32" y="596.3"/>
      <point x="345.67" y="596.3" type="curve" smooth="yes"/>
      <point x="206.76000000000002" y="596.3" type="line"/>
      <point x="199.79999999999998" y="553.64" type="line"/>
      <point x="327.06000000000006" y="553.64" type="line" smooth="yes"/>
      <point x="445.23" y="553.64"/>
      <point x="493.14" y="530.15"/>
      <point x="493.14" y="487.03" type="curve" smooth="yes"/>
      <point x="493.14" y="433.7"/>
      <point x="427.2" y="410.38"/>
      <point x="299.21" y="410.38" type="curve" smooth="yes"/>
      <point x="199.99" y="410.38"/>
      <point x="126.2" y="425.83"/>
      <point x="69.78" y="455.46" type="curve"/>
    </contour>
  </outline>
</glyph>
<glyph name="uni00B5" format="2">
  <advance width="823.0500000000001"/>
  <unicode hex="00B5"/>
  <outline>
    <contour>
      <point x="28.230000000000004" y="-210.0" type="line"/>
      <point x="129.07" y="-210.0" type="line"/>
      <point x="171.73" y="61.69" type="line"/>
      <point x="186.56" y="17.22"/>
      <point x="227.92000000000002" y="-10.0"/>
      <point x="297.57" y="-10.0" type="curve" smooth="yes"/>
      <point x="400.63" y="-10.0"/>
      <point x="486.56999999999994" y="23.52"/>
      <point x="588.49" y="82.49000000000001" type="curve"/>
      <point x="596.2399999999999" y="19.79"/>
      <point x="632.54" y="-10.0"/>
      <point x="689.98" y="-10.0" type="curve" smooth="yes"/>
      <point x="712.86" y="-10.0"/>
      <point x="745.26" y="-2.9700000000000006"/>
      <point x="768.87" y="11.47" type="curve"/>
      <point x="766.18" y="70.94" type="line"/>
      <point x="752.49" y="66.25"/>
      <point x="738.9" y="64.18"/>
      <point x="733.1399999999999" y="64.18" type="curve" smooth="yes"/>
      <point x="703.82" y="64.18"/>
      <point x="686.23" y="79.14999999999999"/>
      <point x="686.23" y="124.44" type="curve" smooth="yes"/>
      <point x="686.23" y="135.34"/>
      <point x="687.23" y="158.52"/>
      <point x="748.13" y="536.2" type="curve"/>
      <point x="645.98" y="536.2" type="line"/>
      <point x="586.39" y="140.85999999999999" type="line"/>
      <point x="492.0799999999999" y="93.67"/>
      <point x="415.41" y="64.8"/>
      <point x="319.55" y="64.8" type="curve" smooth="yes"/>
      <point x="233.86999999999998" y="64.8"/>
      <point x="191.48000000000002" y="103.71"/>
      <point x="191.48000000000002" y="170.69" type="curve" smooth="yes"/>
      <point x="191.48000000000002" y="189.02999999999997"/>
      <point x="194.03" y="214.85999999999999"/>
      <point x="246.23999999999998" y="536.2" type="curve"/>
      <point x="144.78" y="536.2" type="line"/>
    </contour>
  </outline>
</glyph>
<glyph name="paragraph" format="2">
  <advance width="764.4399999999999"/>
  <unicode hex="00B6"/>
  <outline>
    <contour>
      <point x="499.14000000000004" y="-210.0" type="line"/>
      <point x="575.73" y="-210.0" type="line"/>
      <point x="726.0400000000001" y="740.0" type="line"/>
      <point x="649.45" y="740.0" type="line"/>
    </contour>
    <contour>
      <point x="311.34" y="245.23000000000002" type="line"/>
      <point x="228.1" y="254.29999999999998"/>
      <point x="166.97" y="313.01"/>
      <point x="166.97" y="403.04" type="curve" smooth="yes"/>
      <point x="166.97" y="547.0500000000001"/>
      <point x="253.86999999999998" y="664.03"/>
      <point x="443.69" y="666.1" type="curve"/>
      <point x="305.68" y="-210.0" type="line"/>
      <point x="382.27" y="-210.0" type="line"/>
      <point x="532.58" y="740.0" type="line"/>
      <point x="477.56" y="740.0" type="line" smooth="yes"/>
      <point x="224.49" y="740.0"/>
      <point x="84.66" y="623.1999999999999"/>
      <point x="84.66" y="400.76" type="curve" smooth="yes"/>
      <point x="84.66" y="276.07"/>
      <point x="166.91" y="199.41"/>
      <point x="294.56000000000006" y="189.1" type="curve"/>
    </contour>
  </outline>
</glyph>
<glyph name="periodcentered" format="2">
  <advance width="267.7"/>
  <unicode hex="00B7"/>
  <outline>
    <contour>
      <point x="77.74000000000001" y="285.58" type="curve" smooth="yes"/>
      <point x="76.74" y="260.46"/>
      <point x="93.14" y="248.92000000000002"/>
      <point x="127.94" y="248.92000000000002" type="curve" smooth="yes"/>
      <point x="171.98000000000002" y="248.92000000000002"/>
      <point x="194.06" y="262.32000000000005"/>
      <point x="195.82" y="306.40000000000003" type="curve" smooth="yes"/>
      <point x="196.82" y="332.14"/>
      <point x="180.42" y="343.68"/>
      <point x="145.62" y="343.68" type="curve" smooth="yes"/>
      <point x="102.2" y="343.68"/>
      <point x="79.5" y="328.42"/>
    </contour>
  </outline>
</glyph>
<glyph name="uni00B9" format="2">
  <advance width="523.5699999999999"/>
  <unicode hex="00B9"/>
  <outline>
    <contour>
      <point x="50.78" y="370.0" type="line"/>
      <point x="519.68" y="370.0" type="line"/>
      <point x="527.26" y="416.69" type="line"/>
      <point x="349.91999999999996" y="416.69" type="line"/>
      <point x="406.34" y="766.76" type="line"/>
      <point x="362.86" y="766.76" type="line"/>
      <point x="87.2" y="657.13" type="line"/>
      <point x="95.4" y="606.1" type="line"/>
      <point x="318.52000000000004" y="695.4" type="line"/>
      <point x="271.85" y="416.69" type="line"/>
      <point x="57.67" y="416.69" type="line"/>
    </contour>
  </outline>
</glyph>
<glyph name="ordmasculine" format="2">
  <advance width="519.3499999999999"/>
  <unicode hex="00BA"/>
  <outline>
    <contour>
      <point x="41.489999999999995" y="242.45" type="line"/>
      <point x="462.8" y="242.45" type="line"/>
      <point x="471.37999999999994" y="296.72" type="line"/>
      <point x="50.07" y="296.72" type="line"/>
    </contour>
    <component base="o.superior" xOffset="8.0"/>
  </outline>
</glyph>
<glyph name="AE" format="2">
  <advance width="1445.1399999999999"/>
  <unicode hex="00C6"/>
  <anchor x="677.8087199999999" y="0.0" name="bottom"/>
  <anchor x="784.8399999999999" y="700.0" name="top"/>
  <outline>
    <contour>
      <point x="613.3800000000001" y="0.0" type="line"/>
      <point x="1347.72" y="0.0" type="line"/>
      <point x="1361.8799999999999" y="84.72" type="line"/>
      <point x="730.8599999999999" y="84.72" type="line"/>
      <point x="767.98" y="319.71999999999997" type="line"/>
      <point x="1331.12" y="319.71999999999997" type="line"/>
      <point x="1344.6599999999999" y="401.96" type="line"/>
      <point x="780.8999999999999" y="401.96" type="line"/>
      <point x="814.78" y="615.2800000000001" type="line"/>
      <point x="1418.8" y="615.2800000000001" type="line"/>
      <point x="1432.96" y="700.0" type="line"/>
      <point x="668.2600000000001" y="700.0" type="line"/>
      <point x="-40.86" y="0.0" type="line"/>
      <point x="77.28000000000002" y="0.0" type="line"/>
      <point x="368.82" y="283.76" type="line"/>
      <point x="658.46" y="283.76" type="line"/>
    </contour>
    <contour>
      <point x="432.22" y="355.46000000000004" type="line"/>
      <point x="713.3199999999999" y="632.02" type="line"/>
      <point x="669.52" y="355.46000000000004" type="line"/>
    </contour>
  </outline>
</glyph>
<glyph name="multiply" format="2">
  <advance width="548.9599999999999"/>
  <unicode hex="00D7"/>
  <outline>
    <contour>
      <point x="81.21" y="73.89999999999999" type="line"/>
      <point x="271.64" y="246.96000000000004" type="line"/>
      <point x="407.47" y="73.07999999999998" type="line"/>
      <point x="460.77" y="132.03" type="line"/>
      <point x="332.68999999999994" y="296.92" type="line"/>
      <point x="518.92" y="465.64" type="line"/>
      <point x="477.23" y="521.87" type="line"/>
      <point x="285.10999999999996" y="348.19" type="line"/>
      <point x="145.51999999999998" y="525.59" type="line"/>
      <point x="93.14999999999999" y="469.42999999999995" type="line"/>
      <point x="225.3" y="298.54" type="line"/>
      <point x="39.209999999999994" y="128.58" type="line"/>
    </contour>
  </outline>
</glyph>
<glyph name="Oslash" format="2">
  <advance width="1125.26"/>
  <unicode hex="00D8"/>
  <anchor x="605.84" y="700.0" name="top"/>
  <outline>
    <contour>
      <point x="1150.12" y="710.0" type="line"/>
      <point x="1033.42" y="710.0" type="line"/>
      <point x="889.5400000000001" y="611.72" type="line"/>
      <point x="890.7800000000001" y="610.48" type="line"/>
      <point x="190.06" y="136.0" type="line"/>
      <point x="190.67999999999998" y="134.76" type="line"/>
      <point x="-14.5" y="-6.9" type="line"/>
      <point x="101.58" y="-6.9" type="line"/>
      <point x="243.12" y="89.28" type="line"/>
      <point x="241.88" y="90.52" type="line"/>
      <point x="956.2399999999999" y="574.3000000000001" type="line"/>
      <point x="955.62" y="575.5400000000001" type="line"/>
    </contour>
    <contour>
      <point x="552.7800000000001" y="-10.0" type="curve" smooth="yes"/>
      <point x="876.74" y="-10.0"/>
      <point x="1062.22" y="134.04000000000002"/>
      <point x="1062.22" y="389.93999999999994" type="curve" smooth="yes"/>
      <point x="1062.22" y="598.0400000000001"/>
      <point x="910.08" y="710.62"/>
      <point x="582.2199999999999" y="710.62" type="curve" smooth="yes"/>
      <point x="258.26" y="710.62"/>
      <point x="72.78" y="566.5799999999999"/>
      <point x="72.78" y="310.68" type="curve" smooth="yes"/>
      <point x="72.78" y="102.58000000000001"/>
      <point x="224.92000000000002" y="-10.0"/>
    </contour>
    <contour>
      <point x="557.12" y="64.18" type="curve" smooth="yes"/>
      <point x="297.92" y="64.18"/>
      <point x="179.82" y="151.4"/>
      <point x="179.82" y="316.40000000000003" type="curve" smooth="yes"/>
      <point x="179.82" y="523.1"/>
      <point x="323.3" y="636.44"/>
      <point x="577.8800000000001" y="636.44" type="curve" smooth="yes"/>
      <point x="837.0799999999999" y="636.44"/>
      <point x="955.1800000000001" y="549.22"/>
      <point x="955.1800000000001" y="384.21999999999997" type="curve" smooth="yes"/>
      <point x="955.1800000000001" y="177.51999999999998"/>
      <point x="811.7" y="64.18"/>
    </contour>
  </outline>
</glyph>
<glyph name="Thorn" format="2">
  <advance width="998.38"/>
  <unicode hex="00DE"/>
  <outline>
    <contour>
      <point x="73.53999999999999" y="0.0" type="line"/>
      <point x="179.64999999999998" y="0.0" type="line"/>
      <point x="203.24" y="146.44" type="line"/>
      <point x="328.98" y="142.44"/>
      <point x="392.1" y="141.44"/>
      <point x="496.34000000000003" y="141.44" type="curve" smooth="yes"/>
      <point x="833.82" y="141.44"/>
      <point x="966.1600000000001" y="220.51000000000002"/>
      <point x="966.1600000000001" y="421.33000000000004" type="curve" smooth="yes"/>
      <point x="966.1600000000001" y="570.66"/>
      <point x="855.4" y="632.17"/>
      <point x="552.84" y="632.17" type="curve" smooth="yes"/>
      <point x="504.21000000000004" y="632.17"/>
      <point x="433.71999999999997" y="630.48"/>
      <point x="279.13" y="624.65" type="curve"/>
      <point x="291.82" y="700.0" type="line"/>
      <point x="185.71" y="700.0" type="line"/>
    </contour>
    <contour>
      <point x="491.30999999999995" y="218.65" type="curve" smooth="yes"/>
      <point x="386.78999999999996" y="218.65"/>
      <point x="329.84000000000003" y="219.64999999999998"/>
      <point x="216.16000000000003" y="224.34" type="curve"/>
      <point x="267.21000000000004" y="547.37" type="line"/>
      <point x="430.86" y="554.13"/>
      <point x="483.26000000000005" y="555.51"/>
      <point x="547.98" y="555.51" type="curve" smooth="yes"/>
      <point x="777.24" y="555.51"/>
      <point x="856.02" y="517.57"/>
      <point x="856.02" y="416.40000000000003" type="curve" smooth="yes"/>
      <point x="856.02" y="274.6"/>
      <point x="764.3000000000001" y="218.65"/>
    </contour>
  </outline>
</glyph>
<glyph name="germandbls" format="2">
  <advance width="910.36"/>
  <unicode hex="00DF"/>
  <outline>
    <contour>
      <point x="93.8" y="-33.14" type="line" smooth="yes"/>
      <point x="82.9" y="-104.4"/>
      <point x="57.62" y="-144.72"/>
      <point x="7.1600000000000055" y="-144.72" type="curve" smooth="yes"/>
      <point x="-6.600000000000006" y="-144.72"/>
      <point x="-26.740000000000002" y="-142.72"/>
      <point x="-47.78" y="-134.2" type="curve"/>
      <point x="-64.56" y="-202.66" type="line"/>
      <point x="-36.879999999999995" y="-215.76"/>
      <point x="5.220000000000003" y="-220.0"/>
      <point x="33.58" y="-220.0" type="curve" smooth="yes"/>
      <point x="122.55999999999999" y="-220.0"/>
      <point x="172.44" y="-156.7"/>
      <point x="189.3" y="-49.3" type="curve" smooth="yes"/>
      <point x="273.34000000000003" y="477.79999999999995" type="line" smooth="yes"/>
      <point x="297.38" y="626.66"/>
      <point x="375.18" y="683.16"/>
      <point x="549.38" y="683.16" type="curve" smooth="yes"/>
      <point x="668.3000000000001" y="683.16"/>
      <point x="731.34" y="657.98"/>
      <point x="731.34" y="610.34" type="curve" smooth="yes"/>
      <point x="731.34" y="568.3600000000001"/>
      <point x="704.56" y="546.28"/>
      <point x="566.7600000000001" y="528.52" type="curve" smooth="yes"/>
      <point x="419.98" y="509.62"/>
      <point x="357.5" y="465.28000000000003"/>
      <point x="357.5" y="374.12" type="curve" smooth="yes"/>
      <point x="357.5" y="286.15999999999997"/>
      <point x="423.12" y="249.96"/>
      <point x="600.5000000000001" y="229.2" type="curve" smooth="yes"/>
      <point x="740.8399999999999" y="212.44"/>
      <point x="795.64" y="192.6"/>
      <point x="795.64" y="142.34" type="curve" smooth="yes"/>
      <point x="795.64" y="78.89999999999999"/>
      <point x="716.16" y="56.74"/>
      <point x="582.04" y="56.74" type="curve" smooth="yes"/>
      <point x="499.76000000000005" y="56.74"/>
      <point x="384.14000000000004" y="76.50000000000001"/>
      <point x="303.09999999999997" y="104.78000000000002" type="curve"/>
      <point x="282.32" y="37.660000000000004" type="line"/>
      <point x="370.32" y="8.139999999999999"/>
      <point x="479.88" y="-11.0"/>
      <point x="569.12" y="-11.0" type="curve" smooth="yes"/>
      <point x="777.42" y="-11.0"/>
      <point x="885.94" y="36.86"/>
      <point x="885.94" y="152.16" type="curve" smooth="yes"/>
      <point x="885.94" y="230.35999999999999"/>
      <point x="815.22" y="278.42"/>
      <point x="654.36" y="296.56000000000006" type="curve" smooth="yes"/>
      <point x="493.26" y="314.7"/>
      <point x="444.08" y="329.54"/>
      <point x="444.08" y="382.94" type="curve" smooth="yes"/>
      <point x="444.08" y="432.96"/>
      <point x="493.6" y="452.08"/>
      <point x="625.9000000000001" y="469.98" type="curve" smooth="yes"/>
      <point x="767.96" y="488.88"/>
      <point x="812.96" y="535.66"/>
      <point x="812.96" y="615.58" type="curve" smooth="yes"/>
      <point x="812.96" y="703.46"/>
      <point x="729.04" y="750.0"/>
      <point x="546.48" y="750.0" type="curve" smooth="yes"/>
      <point x="322.06" y="750.0"/>
      <point x="210.22000000000003" y="678.0999999999999"/>
      <point x="179.46" y="495.48" type="curve" smooth="yes"/>
      <point x="177.84" y="484.0" type="line"/>
      <point x="41.58" y="471.9" type="line"/>
      <point x="31.14" y="415.02" type="line"/>
      <point x="164.78000000000003" y="415.02" type="line"/>
    </contour>
  </outline>
</glyph>
<glyph name="ae" format="2">
  <advance width="1320.1000000000001"/>
  <unicode hex="00E6"/>
  <anchor x="613.5999999999999" y="0.0" name="bottom"/>
  <anchor x="688.8" y="536.2" name="top"/>
  <outline>
    <contour>
      <point x="300.78" y="-10.0" type="curve" smooth="yes"/>
      <point x="399.38" y="-10.0"/>
      <point x="500.74000000000007" y="27.42"/>
      <point x="571.74" y="71.32000000000001" type="curve"/>
      <point x="560.5999999999999" y="-4.440892098500626e-16" type="line"/>
      <point x="650.9" y="-4.440892098500626e-16" type="line"/>
      <point x="667.4599999999999" y="106.64" type="line"/>
      <point x="702.24" y="35.08"/>
      <point x="789.4200000000001" y="-10.0"/>
      <point x="927.9599999999999" y="-10.0" type="curve" smooth="yes"/>
      <point x="1026.14" y="-10.0"/>
      <point x="1145.16" y="11.659999999999998"/>
      <point x="1232.96" y="43.08" type="curve"/>
      <point x="1222.6200000000001" y="111.3" type="line"/>
      <point x="1125.34" y="77.64"/>
      <point x="1009.6" y="58.6"/>
      <point x="933.3" y="58.6" type="curve" smooth="yes"/>
      <point x="784.9999999999999" y="58.6"/>
      <point x="687.9" y="122.16"/>
      <point x="687.9" y="223.74" type="curve" smooth="yes"/>
      <point x="687.9" y="373.26"/>
      <point x="814.14" y="480.08000000000004"/>
      <point x="1004.3" y="480.08000000000004" type="curve" smooth="yes"/>
      <point x="1117.2" y="480.08000000000004"/>
      <point x="1177.36" y="448.0"/>
      <point x="1177.36" y="388.6" type="curve" smooth="yes"/>
      <point x="1177.36" y="318.06"/>
      <point x="1072.9199999999998" y="279.46"/>
      <point x="886.46" y="278.84" type="curve" smooth="yes"/>
      <point x="809.44" y="278.22"/>
      <point x="733.3800000000001" y="285.12"/>
      <point x="674.5" y="298.15999999999997" type="curve"/>
      <point x="677.32" y="244.06" type="line"/>
      <point x="740.4" y="229.54"/>
      <point x="826.52" y="220.78"/>
      <point x="915.18" y="221.4" type="curve" smooth="yes"/>
      <point x="1155.88" y="222.01999999999998"/>
      <point x="1282.54" y="288.94"/>
      <point x="1282.54" y="396.94" type="curve" smooth="yes"/>
      <point x="1282.54" y="491.24"/>
      <point x="1190.68" y="546.2"/>
      <point x="1036.9199999999998" y="546.2" type="curve" smooth="yes"/>
      <point x="891.6800000000001" y="546.2"/>
      <point x="776.6199999999999" y="495.32"/>
      <point x="718.6800000000001" y="422.47999999999996" type="curve"/>
      <point x="736.14" y="536.2" type="line"/>
      <point x="645.2199999999999" y="536.2" type="line"/>
      <point x="637.4599999999999" y="488.92" type="line"/>
      <point x="582.14" y="526.6800000000001"/>
      <point x="511.1600000000001" y="546.2"/>
      <point x="433.88000000000005" y="546.2" type="curve" smooth="yes"/>
      <point x="213.44" y="546.2"/>
      <point x="45.7" y="422.32000000000005"/>
      <point x="45.7" y="216.10000000000002" type="curve" smooth="yes"/>
      <point x="45.7" y="68.9"/>
      <point x="141.84" y="-10.0"/>
    </contour>
    <contour>
      <point x="347.32" y="64.18" type="curve" smooth="yes"/>
      <point x="225.66" y="64.18"/>
      <point x="146.92000000000002" y="122.2"/>
      <point x="146.92000000000002" y="227.88" type="curve" smooth="yes"/>
      <point x="146.92000000000002" y="410.44"/>
      <point x="307.68" y="481.08000000000004"/>
      <point x="452.58" y="481.08000000000004" type="curve" smooth="yes"/>
      <point x="520.2199999999999" y="481.08000000000004"/>
      <point x="575.76" y="468.52000000000004"/>
      <point x="629.26" y="434.82" type="curve"/>
      <point x="581.94" y="135.24" type="line"/>
      <point x="514.44" y="92.88"/>
      <point x="425.48" y="64.18"/>
    </contour>
  </outline>
</glyph>
<glyph name="eth" format="2">
  <advance width="885.74"/>
  <unicode hex="00F0"/>
  <outline>
    <contour>
      <point x="758.36" y="374.26" type="curve"/>
      <point x="768.8000000000001" y="435.42" type="line"/>
      <point x="693.2800000000001" y="497.96000000000004"/>
      <point x="563.64" y="530.04"/>
      <point x="427.82000000000005" y="530.04" type="curve" smooth="yes"/>
      <point x="204.64" y="530.04"/>
      <point x="51.36" y="437.18"/>
      <point x="51.36" y="246.89999999999998" type="curve" smooth="yes"/>
      <point x="51.36" y="50.1"/>
      <point x="201.26" y="-9.38"/>
      <point x="400.36" y="-9.38" type="curve" smooth="yes"/>
      <point x="645.28" y="-9.38"/>
      <point x="802.6600000000001" y="95.48"/>
      <point x="839.52" y="320.48" type="curve" smooth="yes"/>
      <point x="844.14" y="345.34"/>
      <point x="845.14" y="369.82000000000005"/>
      <point x="845.14" y="393.06000000000006" type="curve" smooth="yes"/>
      <point x="845.14" y="627.5799999999999"/>
      <point x="651.34" y="727.98"/>
      <point x="343.6" y="727.98" type="curve" smooth="yes"/>
      <point x="262.65999999999997" y="727.98"/>
      <point x="204.66000000000003" y="719.8399999999999"/>
      <point x="138.23999999999998" y="708.0799999999999" type="curve"/>
      <point x="133.18" y="649.4000000000001" type="line"/>
      <point x="192.98" y="658.5400000000001"/>
      <point x="239.20000000000002" y="667.44"/>
      <point x="334.53999999999996" y="667.44" type="curve" smooth="yes"/>
      <point x="608.48" y="667.44"/>
      <point x="744.54" y="580.62"/>
      <point x="744.54" y="406.94" type="curve" smooth="yes"/>
      <point x="744.54" y="383.46"/>
      <point x="743.5400000000001" y="358.74"/>
      <point x="738.3" y="330.15999999999997" type="curve" smooth="yes"/>
      <point x="708.02" y="143.34"/>
      <point x="597.16" y="58.599999999999994"/>
      <point x="412.42" y="58.599999999999994" type="curve" smooth="yes"/>
      <point x="261.76" y="58.599999999999994"/>
      <point x="150.96" y="104.4"/>
      <point x="150.96" y="253.24" type="curve" smooth="yes"/>
      <point x="150.96" y="394.37999999999994"/>
      <point x="273.44" y="466.40000000000003"/>
      <point x="444.17999999999995" y="466.40000000000003" type="curve" smooth="yes"/>
      <point x="577.14" y="466.40000000000003"/>
      <point x="685.52" y="433.32000000000005"/>
    </contour>
    <contour>
      <point x="281.28000000000003" y="544.42" type="line"/>
      <point x="617.72" y="652.28" type="line"/>
      <point x="608.9" y="654.52" type="line"/>
      <point x="871.9" y="741.0799999999999" type="line"/>
      <point x="743.9" y="741.0799999999999" type="line"/>
      <point x="549.1800000000001" y="677.3000000000001" type="line"/>
      <point x="561.24" y="676.3000000000001" type="line"/>
      <point x="152.66000000000003" y="544.42" type="line"/>
    </contour>
  </outline>
</glyph>
<glyph name="divide" format="2">
  <advance width="584.3"/>
  <unicode hex="00F7"/>
  <outline>
    <contour>
      <point x="216.44" y="92.78" type="curve" smooth="yes"/>
      <point x="215.44" y="72.61999999999999"/>
      <point x="228.73999999999998" y="64.80000000000001"/>
      <point x="257.96000000000004" y="64.80000000000001" type="curve" smooth="yes"/>
      <point x="293.94" y="64.80000000000001"/>
      <point x="312.3" y="73.86000000000001"/>
      <point x="314.68" y="114.83999999999999" type="curve" smooth="yes"/>
      <point x="315.68" y="135.0"/>
      <point x="302.99999999999994" y="142.82"/>
      <point x="273.16" y="142.82" type="curve" smooth="yes"/>
      <point x="238.42" y="142.82"/>
      <point x="218.82" y="133.14"/>
    </contour>
    <contour>
      <point x="279.58" y="482.38" type="curve" smooth="yes"/>
      <point x="278.58" y="462.84000000000003"/>
      <point x="291.26" y="454.40000000000003"/>
      <point x="321.1" y="454.40000000000003" type="curve" smooth="yes"/>
      <point x="357.08" y="454.40000000000003"/>
      <point x="374.82" y="464.7"/>
      <point x="377.2" y="505.06" type="curve" smooth="yes"/>
      <point x="378.2" y="525.2199999999999"/>
      <point x="365.52" y="532.42"/>
      <point x="335.67999999999995" y="532.42" type="curve" smooth="yes"/>
      <point x="300.32" y="532.42"/>
      <point x="281.96" y="522.74"/>
    </contour>
    <contour>
      <point x="60.28" y="259.78" type="line"/>
      <point x="518.8199999999999" y="259.78" type="line"/>
      <point x="532.12" y="336.82000000000005" type="line"/>
      <point x="73.58" y="336.82000000000005" type="line"/>
    </contour>
  </outline>
</glyph>
<glyph name="oslash" format="2">
  <advance width="835.96"/>
  <unicode hex="00F8"/>
  <anchor x="442.58000000000004" y="536.2" name="top"/>
  <outline>
    <contour>
      <point x="739.72" y="547.44" type="line"/>
      <point x="640.52" y="468.52" type="line"/>
      <point x="640.52" y="468.52" type="line"/>
      <point x="171.86" y="98.03999999999999" type="line"/>
      <point x="171.86" y="98.03999999999999" type="line"/>
      <point x="37.06" y="-10.0" type="line"/>
      <point x="113.94" y="-10.0" type="line"/>
      <point x="208.32" y="65.33999999999999" type="line"/>
      <point x="208.32" y="65.34" type="line"/>
      <point x="684.04" y="441.02" type="line"/>
      <point x="684.04" y="441.02000000000004" type="line"/>
      <point x="816.5999999999999" y="547.44" type="line"/>
    </contour>
    <contour>
      <point x="409.58" y="-10.0" type="curve" smooth="yes"/>
      <point x="650.54" y="-10.0"/>
      <point x="780.74" y="97.86000000000003"/>
      <point x="779.5" y="293.90000000000003" type="curve" smooth="yes"/>
      <point x="778.26" y="456.13999999999993"/>
      <point x="654.8199999999999" y="547.44"/>
      <point x="424.0" y="547.44" type="curve" smooth="yes"/>
      <point x="183.04" y="547.44"/>
      <point x="52.839999999999996" y="439.58000000000004"/>
      <point x="54.08" y="243.54000000000002" type="curve" smooth="yes"/>
      <point x="55.32" y="81.3"/>
      <point x="178.76" y="-10.0"/>
    </contour>
    <contour>
      <point x="410.2" y="56.12" type="curve" smooth="yes"/>
      <point x="244.22" y="56.12"/>
      <point x="155.54" y="119.48"/>
      <point x="155.54" y="251.6" type="curve" smooth="yes"/>
      <point x="155.54" y="400.06000000000006"/>
      <point x="245.12" y="481.32"/>
      <point x="423.38" y="481.32" type="curve" smooth="yes"/>
      <point x="589.36" y="481.32"/>
      <point x="678.0400000000001" y="418.58000000000004"/>
      <point x="678.0400000000001" y="286.46" type="curve" smooth="yes"/>
      <point x="678.0400000000001" y="138.00000000000003"/>
      <point x="588.4599999999999" y="56.12"/>
    </contour>
  </outline>
</glyph>
<glyph name="thorn" format="2">
  <advance width="816.2099999999999"/>
  <unicode hex="00FE"/>
  <outline>
    <contour>
      <point x="27.23" y="-210.0" type="line"/>
      <point x="127.76" y="-210.0" type="line"/>
      <point x="163.45000000000002" y="11.35" type="line"/>
      <point x="210.32" y="1.21"/>
      <point x="272.81000000000006" y="-10.0"/>
      <point x="347.1" y="-10.0" type="curve" smooth="yes"/>
      <point x="608.15" y="-10.0"/>
      <point x="769.4399999999999" y="119.52000000000001"/>
      <point x="769.4399999999999" y="330.75" type="curve" smooth="yes"/>
      <point x="769.4399999999999" y="466.34"/>
      <point x="687.09" y="546.2"/>
      <point x="537.92" y="546.2" type="curve" smooth="yes"/>
      <point x="420.59999999999997" y="546.2"/>
      <point x="330.28000000000003" y="501.19"/>
      <point x="229.17000000000002" y="435.32000000000005" type="curve"/>
      <point x="277.45" y="740.0" type="line"/>
      <point x="177.54" y="740.0" type="line"/>
    </contour>
    <contour>
      <point x="351.51" y="59.22" type="curve" smooth="yes"/>
      <point x="278.63" y="59.22"/>
      <point x="219.24" y="72.81"/>
      <point x="174.51" y="83.19" type="curve"/>
      <point x="219.28" y="366.54" type="line"/>
      <point x="315.17" y="431.98"/>
      <point x="402.29" y="467.37"/>
      <point x="489.38" y="467.37" type="curve" smooth="yes"/>
      <point x="601.62" y="467.37"/>
      <point x="667.98" y="413.73"/>
      <point x="667.98" y="308.15" type="curve" smooth="yes"/>
      <point x="667.98" y="157.10999999999999"/>
      <point x="533.15" y="59.22"/>
    </contour>
  </outline>
</glyph>
<glyph name="Dcroat" format="2">
  <advance width="1079.2"/>
  <unicode hex="0110"/>
  <outline>
    <contour>
      <point x="23.76" y="324.71999999999997" type="line"/>
      <point x="441.85999999999996" y="324.71999999999997" type="line"/>
      <point x="454.15999999999997" y="394.18" type="line"/>
      <point x="36.2" y="394.18" type="line"/>
    </contour>
    <component base="D" xOffset="3.1000000000000005"/>
  </outline>
</glyph>
<glyph name="dcroat" format="2">
  <advance width="828.92"/>
  <unicode hex="0111"/>
  <outline>
    <contour>
      <point x="446.02" y="609.94" type="line"/>
      <point x="881.56" y="609.94" type="line"/>
      <point x="891.38" y="661.4200000000001" type="line"/>
      <point x="455.84000000000003" y="661.4200000000001" type="line"/>
    </contour>
    <component base="d"/>
  </outline>
</glyph>
<glyph name="Hbar" format="2">
  <advance width="1099.32"/>
  <unicode hex="0126"/>
  <outline>
    <contour>
      <point x="70.9" y="495.97" type="line"/>
      <point x="1100.11" y="495.97" type="line"/>
      <point x="1110.55" y="562.78" type="line"/>
      <point x="81.33999999999999" y="562.78" type="line"/>
    </contour>
    <component base="H" xOffset="1.0000000000000002"/>
  </outline>
</glyph>
<glyph name="hbar" format="2">
  <advance width="834.9599999999999"/>
  <unicode hex="0127"/>
  <outline>
    <contour>
      <point x="42.940000000000005" y="609.94" type="line"/>
      <point x="491.56" y="609.94" type="line"/>
      <point x="501.38" y="661.4200000000001" type="line"/>
      <point x="52.76" y="661.4200000000001" type="line"/>
    </contour>
    <component base="h" xOffset="-1.8599999999999999"/>
  </outline>
</glyph>
<glyph name="Idotaccent" format="2">
  <advance width="341.05"/>
  <unicode hex="0130"/>
  <outline>
    <contour>
      <point x="268.97" y="892.3900000000001" type="curve" smooth="yes"/>
      <point x="220.63" y="892.3900000000001"/>
      <point x="197.95999999999998" y="879.68"/>
      <point x="197.26999999999998" y="835.08" type="curve" smooth="yes"/>
      <point x="197.26999999999998" y="812.27"/>
      <point x="215.35999999999999" y="800.73"/>
      <point x="251.98" y="800.73" type="curve" smooth="yes"/>
      <point x="295.09000000000003" y="800.73"/>
      <point x="323.36999999999995" y="809.1"/>
      <point x="324.75" y="859.04" type="curve" smooth="yes"/>
      <point x="324.75" y="880.85"/>
      <point x="308.73" y="892.3900000000001"/>
    </contour>
    <component base="I"/>
  </outline>
</glyph>
<glyph name="dotlessi" format="2">
  <advance width="308.84999999999997"/>
  <unicode hex="0131"/>
  <anchor x="110.21764" y="0.0" name="bottom"/>
  <anchor x="161.31" y="0.0" name="ogonek"/>
  <anchor x="195.87236" y="536.2" name="top"/>
  <outline>
    <contour>
      <point x="161.31" y="0.0" type="line"/>
      <point x="245.92999999999998" y="536.2" type="line"/>
      <point x="145.09" y="536.2" type="line"/>
      <point x="59.849999999999994" y="0.31" type="line"/>
    </contour>
  </outline>
</glyph>
<glyph name="kgreenlandic" format="2">
  <advance width="752.3399999999999"/>
  <unicode hex="0138"/>
  <anchor x="346.15999999999997" y="0.0" name="bottom"/>
  <anchor x="426.56" y="536.2" name="top"/>
  <outline>
    <contour>
      <point x="60.54" y="0.0" type="line"/>
      <point x="161.76" y="0.0" type="line"/>
      <point x="246.62" y="536.2" type="line"/>
      <point x="144.78" y="536.2" type="line"/>
    </contour>
    <contour>
      <point x="673.7399999999999" y="-10.0" type="curve" smooth="yes"/>
      <point x="684.5999999999999" y="-10.0"/>
      <point x="697.22" y="-7.62"/>
      <point x="705.7" y="-4.24" type="curve"/>
      <point x="715.82" y="84.16" type="line"/>
      <point x="708.5799999999999" y="81.78"/>
      <point x="699.5799999999999" y="81.4"/>
      <point x="691.72" y="81.4" type="curve" smooth="yes"/>
      <point x="647.0400000000001" y="81.4"/>
      <point x="588.8399999999999" y="112.57999999999998"/>
      <point x="445.72" y="224.26" type="curve" smooth="yes"/>
      <point x="209.66" y="408.3" type="line"/>
      <point x="194.88" y="310.28" type="line"/>
      <point x="418.92" y="133.3" type="line" smooth="yes"/>
      <point x="552.0799999999999" y="28.48"/>
      <point x="612.96" y="-10.0"/>
    </contour>
    <contour>
      <point x="367.50000000000006" y="266.47999999999996" type="line"/>
      <point x="541.1400000000001" y="338.58000000000004"/>
      <point x="680.46" y="439.40000000000003"/>
      <point x="748.54" y="534.82" type="curve"/>
      <point x="628.9" y="546.2" type="line"/>
      <point x="547.02" y="444.36"/>
      <point x="462.46000000000004" y="383.12"/>
      <point x="273.99999999999994" y="298.32" type="curve"/>
    </contour>
  </outline>
</glyph>
<glyph name="Ldot" format="2">
  <advance width="831.41"/>
  <unicode hex="013F"/>
  <outline>
    <contour>
      <point x="554.4499999999999" y="386.49" type="curve" smooth="yes"/>
      <point x="553.76" y="361.37"/>
      <point x="569.85" y="349.83"/>
      <point x="604.96" y="349.83" type="curve" smooth="yes"/>
      <point x="648.6899999999999" y="349.83"/>
      <point x="670.77" y="363.23"/>
      <point x="672.84" y="407.0" type="curve" smooth="yes"/>
      <point x="673.53" y="432.74"/>
      <point x="657.4399999999999" y="444.28000000000003"/>
      <point x="622.64" y="444.28000000000003" type="curve" smooth="yes"/>
      <point x="579.2199999999999" y="444.28000000000003"/>
      <point x="556.52" y="429.02"/>
    </contour>
    <component base="L"/>
  </outline>
</glyph>
<glyph name="ldot" format="2">
  <advance width="405.82"/>
  <unicode hex="0140"/>
  <outline>
    <contour>
      <point x="336.47931000000005" y="370.05823999999996" type="curve" smooth="yes"/>
      <point x="335.78931" y="351.04895999999997"/>
      <point x="346.17903" y="343.01506"/>
      <point x="369.22569" y="343.01506" type="curve" smooth="yes"/>
      <point x="399.56648" y="343.01506"/>
      <point x="412.49962000000005" y="352.30787"/>
      <point x="414.56962000000004" y="387.06214" type="curve" smooth="yes"/>
      <point x="415.25962000000004" y="406.49147"/>
      <point x="404.8699" y="414.52537"/>
      <point x="382.00086999999996" y="414.52537" type="curve" smooth="yes"/>
      <point x="351.8374" y="414.52537"/>
      <point x="338.54931000000005" y="403.97333999999995"/>
    </contour>
    <component base="l"/>
  </outline>
</glyph>
<glyph name="Lslash" format="2">
  <advance width="826.76"/>
  <unicode hex="0141"/>
  <outline>
    <contour>
      <point x="68.2" y="0.0" type="line"/>
      <point x="759.87" y="0.0" type="line"/>
      <point x="774.3399999999999" y="82.86" type="line"/>
      <point x="188.16" y="82.86" type="line"/>
      <point x="216.34" y="262.84000000000003" type="line"/>
      <point x="572.66" y="448.90999999999997" type="line"/>
      <point x="586.8899999999999" y="534.7700000000001" type="line"/>
      <point x="230.57" y="348.7" type="line"/>
      <point x="286.54999999999995" y="700.0" type="line"/>
      <point x="180.44" y="700.0" type="line"/>
      <point x="115.94999999999999" y="297.33" type="line"/>
      <point x="29.320000000000004" y="252.46" type="line"/>
      <point x="15.709999999999997" y="168.15" type="line"/>
      <point x="101.72" y="212.71" type="line"/>
    </contour>
  </outline>
</glyph>
<glyph name="lslash" format="2">
  <advance width="390.32"/>
  <unicode hex="0142"/>
  <outline>
    <contour>
      <point x="12.22" y="158.99" type="line"/>
      <point x="355.67" y="413.71" type="line"/>
      <point x="367.72999999999996" y="490.68999999999994" type="line"/>
      <point x="23.97" y="235.97" type="line"/>
    </contour>
    <component base="l"/>
  </outline>
</glyph>
<glyph name="Eng" format="2">
  <advance width="1076.7600000000002"/>
  <unicode hex="014A"/>
  <outline>
    <contour>
      <point x="72.85" y="0.0" type="line"/>
      <point x="170.66000000000003" y="0.0" type="line"/>
      <point x="262.23" y="575.81" type="line"/>
      <point x="817.2" y="-1.3499999999999996" type="line"/>
      <point x="787.22" y="-117.22"/>
      <point x="693.12" y="-148.3"/>
      <point x="593.75" y="-148.3" type="curve" smooth="yes"/>
      <point x="543.5" y="-148.3"/>
      <point x="493.66" y="-139.92000000000002"/>
      <point x="449.79" y="-128.68" type="curve"/>
      <point x="434.32" y="-201.07" type="line"/>
      <point x="488.42" y="-213.85999999999999"/>
      <point x="554.9300000000001" y="-220.0"/>
      <point x="602.5300000000001" y="-220.0" type="curve" smooth="yes"/>
      <point x="772.2499999999999" y="-220.0"/>
      <point x="888.5" y="-156.64000000000001"/>
      <point x="917.5" y="22.049999999999997" type="curve" smooth="yes"/>
      <point x="1026.9099999999999" y="700.0" type="line"/>
      <point x="929.1" y="700.0" type="line"/>
      <point x="836.29" y="116.3" type="line"/>
      <point x="278.25" y="706.9" type="line"/>
      <point x="186.78" y="706.9" type="line"/>
    </contour>
  </outline>
</glyph>
<glyph name="eng" format="2">
  <advance width="831.34"/>
  <unicode hex="014B"/>
  <outline>
    <contour>
      <point x="677.86" y="-29.880000000000003" type="curve" smooth="yes"/>
      <point x="679.41" y="-20.579999999999984"/>
      <point x="744.66" y="364.36"/>
      <point x="744.66" y="390.61" type="curve" smooth="yes"/>
      <point x="744.66" y="485.72"/>
      <point x="679.3199999999999" y="546.2"/>
      <point x="550.2199999999999" y="546.2" type="curve" smooth="yes"/>
      <point x="430.72" y="546.2"/>
      <point x="344.81" y="507.71"/>
      <point x="222.56" y="449.43000000000006" type="curve"/>
      <point x="236.01" y="536.2" type="line"/>
      <point x="144.78" y="536.2" type="line"/>
      <point x="60.53999999999999" y="0.0" type="line"/>
      <point x="159.83" y="0.0" type="line"/>
      <point x="222.04" y="388.37" type="line"/>
      <point x="327.97" y="437.25"/>
      <point x="402.29999999999995" y="471.09"/>
      <point x="504.13" y="471.09" type="curve" smooth="yes"/>
      <point x="598.71" y="471.09"/>
      <point x="640.89" y="427.49"/>
      <point x="638.41" y="351.82" type="curve" smooth="yes"/>
      <point x="634.6899999999999" y="303.28000000000003"/>
      <point x="582.6700000000001" y="-1.940000000000012"/>
      <point x="578.95" y="-24.260000000000005" type="curve" smooth="yes"/>
      <point x="565.57" y="-107.29999999999998"/>
      <point x="535.3299999999999" y="-147.0"/>
      <point x="474.3299999999999" y="-147.0" type="curve" smooth="yes"/>
      <point x="462.43000000000006" y="-147.0"/>
      <point x="445.7" y="-145.62"/>
      <point x="426.21" y="-138.03" type="curve"/>
      <point x="409.43000000000006" y="-213.62" type="line"/>
      <point x="431.21999999999997" y="-221.14"/>
      <point x="476.73" y="-224.14"/>
      <point x="498.89000000000004" y="-224.14" type="curve" smooth="yes"/>
      <point x="607.7099999999999" y="-224.14"/>
      <point x="657.9" y="-154.95"/>
    </contour>
  </outline>
</glyph>
<glyph name="OE" format="2">
  <advance width="1646.82"/>
  <unicode hex="0152"/>
  <outline>
    <contour>
      <point x="1549.4" y="0.0" type="line"/>
      <point x="1563.5600000000002" y="84.72" type="line"/>
      <point x="921.14" y="84.72" type="line"/>
      <point x="960.4000000000001" y="329.97999999999996" type="line"/>
      <point x="1546.2" y="329.97999999999996" type="line"/>
      <point x="1559.74" y="412.21999999999997" type="line"/>
      <point x="972.7" y="412.21999999999997" type="line"/>
      <point x="1004.44" y="615.28" type="line"/>
      <point x="1621.1" y="615.28" type="line"/>
      <point x="1634.64" y="700.0" type="line"/>
      <point x="1021.08" y="700.0" type="line"/>
      <point x="889.9799999999999" y="705.1399999999999"/>
      <point x="759.0" y="710.0"/>
      <point x="620.92" y="710.0" type="curve" smooth="yes"/>
      <point x="304.09999999999997" y="710.0"/>
      <point x="78.60000000000001" y="572.74"/>
      <point x="78.60000000000001" y="307.0" type="curve" smooth="yes"/>
      <point x="78.60000000000001" y="98.58000000000001"/>
      <point x="222.16000000000003" y="-10.0"/>
      <point x="546.9399999999999" y="-10.0" type="curve" smooth="yes"/>
      <point x="677.26" y="-10.0"/>
      <point x="781.98" y="-5.14"/>
      <point x="908.84" y="0.0" type="curve"/>
    </contour>
    <contour>
      <point x="816.58" y="72.08" type="line"/>
      <point x="728.1399999999999" y="66.32"/>
      <point x="652.68" y="62.94"/>
      <point x="557.08" y="62.94" type="curve" smooth="yes"/>
      <point x="309.70000000000005" y="62.94"/>
      <point x="183.54" y="148.4"/>
      <point x="183.54" y="314.96" type="curve" smooth="yes"/>
      <point x="183.54" y="520.68"/>
      <point x="361.16" y="637.06"/>
      <point x="619.7199999999999" y="637.06" type="curve" smooth="yes"/>
      <point x="676.5" y="637.06"/>
      <point x="844.98" y="633.06"/>
      <point x="905.4599999999999" y="629.3" type="curve"/>
    </contour>
  </outline>
</glyph>
<glyph name="oe" format="2">
  <advance width="1403.8400000000001"/>
  <unicode hex="0153"/>
  <outline>
    <contour>
      <point x="404.61999999999995" y="-10.0" type="curve" smooth="yes"/>
      <point x="553.8599999999999" y="-10.0"/>
      <point x="660.1800000000001" y="28.06"/>
      <point x="712.86" y="115.54" type="curve"/>
      <point x="750.94" y="30.539999999999996"/>
      <point x="846.7" y="-10.0"/>
      <point x="990.0000000000001" y="-10.0" type="curve" smooth="yes"/>
      <point x="1095.62" y="-10.0"/>
      <point x="1221.46" y="11.659999999999998"/>
      <point x="1316.6999999999998" y="43.08" type="curve"/>
      <point x="1306.36" y="111.3" type="line"/>
      <point x="1204.12" y="77.64"/>
      <point x="1084.04" y="58.6"/>
      <point x="1004.02" y="58.6" type="curve" smooth="yes"/>
      <point x="845.18" y="58.6"/>
      <point x="771.6399999999999" y="114.1"/>
      <point x="771.6399999999999" y="223.74" type="curve" smooth="yes"/>
      <point x="771.6399999999999" y="373.26"/>
      <point x="897.2600000000001" y="480.08000000000004"/>
      <point x="1087.42" y="480.08000000000004" type="curve" smooth="yes"/>
      <point x="1200.3200000000002" y="480.08000000000004"/>
      <point x="1260.48" y="448.0"/>
      <point x="1260.48" y="388.6" type="curve" smooth="yes"/>
      <point x="1260.48" y="318.06"/>
      <point x="1156.04" y="290.62"/>
      <point x="970.2" y="289.38" type="curve" smooth="yes"/>
      <point x="895.94" y="288.76"/>
      <point x="815.12" y="295.65999999999997"/>
      <point x="756.2399999999999" y="307.32" type="curve"/>
      <point x="759.06" y="248.88000000000002" type="line"/>
      <point x="822.76" y="235.74"/>
      <point x="912.4" y="226.98"/>
      <point x="998.3" y="227.6" type="curve" smooth="yes"/>
      <point x="1239.6200000000001" y="228.84000000000003"/>
      <point x="1366.28" y="288.94"/>
      <point x="1366.28" y="396.94" type="curve" smooth="yes"/>
      <point x="1366.28" y="491.24"/>
      <point x="1264.5" y="546.2"/>
      <point x="1095.8600000000001" y="546.2" type="curve" smooth="yes"/>
      <point x="922.52" y="546.2"/>
      <point x="796.6399999999999" y="487.62"/>
      <point x="738.44" y="394.82" type="curve"/>
      <point x="706.74" y="493.52"/>
      <point x="600.9" y="546.82"/>
      <point x="423.38" y="546.82" type="curve" smooth="yes"/>
      <point x="199.16" y="546.82"/>
      <point x="56.56" y="452.6"/>
      <point x="54.08" y="248.5" type="curve" smooth="yes"/>
      <point x="52.22" y="81.3"/>
      <point x="180.62" y="-10.0"/>
    </contour>
    <contour>
      <point x="408.34" y="56.120000000000005" type="curve" smooth="yes"/>
      <point x="242.98000000000002" y="56.120000000000005"/>
      <point x="156.16" y="124.44"/>
      <point x="156.16" y="248.5" type="curve" smooth="yes"/>
      <point x="156.16" y="401.92"/>
      <point x="246.98" y="481.32"/>
      <point x="425.86" y="481.32" type="curve" smooth="yes"/>
      <point x="593.5999999999999" y="481.32"/>
      <point x="678.6600000000001" y="414.24"/>
      <point x="678.6600000000001" y="288.32" type="curve" smooth="yes"/>
      <point x="678.6600000000001" y="130.55999999999997"/>
      <point x="582.26" y="56.120000000000005"/>
    </contour>
  </outline>
</glyph>
<glyph name="uni0162" format="2">
  <advance width="839.1"/>
  <unicode hex="0162"/>
  <anchor x="375.54999999999995" y="0.0" name="_bottom"/>
  <anchor x="315.78000000000003" y="-220.0" name="bottom"/>
  <outline>
    <contour>
      <point x="192.84" y="-188.68" type="line"/>
      <point x="234.91" y="-210.48"/>
      <point x="272.05" y="-220.0"/>
      <point x="321.99" y="-220.0" type="curve" smooth="yes"/>
      <point x="413.67" y="-220.0"/>
      <point x="480.96" y="-171.45"/>
      <point x="480.96" y="-86.33" type="curve" smooth="yes"/>
      <point x="480.96" y="-41.489999999999995"/>
      <point x="452.81" y="-9.07"/>
      <point x="410.93" y="6.550000000000001" type="curve"/>
      <point x="332.14" y="3.0999999999999996" type="line"/>
      <point x="377.4" y="-14.87"/>
      <point x="398.65" y="-37.67"/>
      <point x="398.65" y="-78.41" type="curve" smooth="yes"/>
      <point x="398.65" y="-130.66"/>
      <point x="360.91999999999996" y="-157.35999999999999"/>
      <point x="302.87" y="-157.35999999999999" type="curve" smooth="yes"/>
      <point x="268.13" y="-157.35999999999999"/>
      <point x="238.26" y="-147.39"/>
      <point x="208.35" y="-129.82999999999998" type="curve"/>
    </contour>
    <component base="T"/>
  </outline>
</glyph>
<glyph name="Tbar" format="2">
  <advance width="845.3"/>
  <unicode hex="0166"/>
  <outline>
    <contour>
      <point x="885.18" y="621.79" type="line"/>
      <point x="899.3399999999999" y="700.0" type="line"/>
      <point x="82.13000000000001" y="700.0" type="line"/>
      <point x="67.66" y="621.79" type="line"/>
      <point x="424.02" y="621.79" type="line"/>
      <point x="386.08" y="382.87" type="line"/>
      <point x="150.89000000000001" y="382.87" type="line"/>
      <point x="139.52" y="312.78999999999996" type="line"/>
      <point x="375.02" y="312.78999999999996" type="line"/>
      <point x="325.63" y="0.0" type="line"/>
      <point x="431.74" y="0.0" type="line"/>
      <point x="481.13" y="312.78999999999996" type="line"/>
      <point x="721.84" y="312.78999999999996" type="line"/>
      <point x="733.2099999999999" y="382.87" type="line"/>
      <point x="492.19" y="382.87" type="line"/>
      <point x="529.8199999999999" y="621.79" type="line"/>
    </contour>
  </outline>
</glyph>
<glyph name="tbar" format="2">
  <advance width="570.26"/>
  <unicode hex="0167"/>
  <outline>
    <contour>
      <point x="37.739999999999995" y="291.06" type="line"/>
      <point x="483.14" y="291.06" type="line"/>
      <point x="493.58000000000004" y="345.02" type="line"/>
      <point x="48.18" y="345.02" type="line"/>
    </contour>
    <contour>
      <point x="507.12000000000006" y="102.94" type="line"/>
      <point x="446.98" y="83.66"/>
      <point x="389.76" y="69.76"/>
      <point x="335.53999999999996" y="69.76" type="curve" smooth="yes"/>
      <point x="253.86" y="69.76"/>
      <point x="225.82" y="106.98"/>
      <point x="225.82" y="162.72" type="curve" smooth="yes"/>
      <point x="225.82" y="174.62"/>
      <point x="226.82" y="187.52"/>
      <point x="229.2" y="200.42" type="curve" smooth="yes"/>
      <point x="271.65999999999997" y="468.9800000000001" type="line"/>
      <point x="553.8199999999999" y="468.9800000000001" type="line"/>
      <point x="565.5" y="536.2" type="line"/>
      <point x="282.72" y="536.2" type="line"/>
      <point x="303.48" y="665.0" type="line"/>
      <point x="218.07999999999998" y="665.0" type="line"/>
      <point x="183.12" y="536.2" type="line"/>
      <point x="38.239999999999995" y="525.86" type="line"/>
      <point x="27.18" y="468.98" type="line"/>
      <point x="170.20000000000002" y="468.98" type="line"/>
      <point x="127.74000000000001" y="197.32" type="line" smooth="yes"/>
      <point x="124.12" y="175.6"/>
      <point x="122.11999999999999" y="152.35999999999999"/>
      <point x="122.11999999999999" y="137.64000000000001" type="curve" smooth="yes"/>
      <point x="122.11999999999999" y="29.24"/>
      <point x="187.56" y="-10.0"/>
      <point x="290.09999999999997" y="-10.0" type="curve" smooth="yes"/>
      <point x="354.02" y="-10.0"/>
      <point x="427.92" y="1.6199999999999994"/>
      <point x="509.40000000000003" y="28.52" type="curve"/>
    </contour>
  </outline>
</glyph>
<glyph name="uogonek" format="2">
  <advance width="810.39"/>
  <unicode hex="0173"/>
  <outline>
    <contour>
      <point x="676.23" y="-211.94" type="curve" smooth="yes"/>
      <point x="701.71" y="-211.94"/>
      <point x="727.05" y="-208.63"/>
      <point x="749.39" y="-202.7" type="curve"/>
      <point x="753.21" y="-148.5" type="line"/>
      <point x="737.62" y="-152.26000000000002"/>
      <point x="724.41" y="-153.95000000000002"/>
      <point x="705.82" y="-153.95000000000002" type="curve" smooth="yes"/>
      <point x="667.09" y="-153.95000000000002"/>
      <point x="638.74" y="-138.04999999999998"/>
      <point x="638.74" y="-99.27999999999999" type="curve" smooth="yes"/>
      <point x="638.74" y="-56.440000000000005"/>
      <point x="675.58" y="-17.739999999999995"/>
      <point x="761.7299999999999" y="11.47" type="curve"/>
      <point x="759.0400000000001" y="70.94" type="line"/>
      <point x="745.35" y="66.25"/>
      <point x="731.76" y="64.18"/>
      <point x="726.0" y="64.18" type="curve" smooth="yes"/>
      <point x="696.68" y="64.18"/>
      <point x="679.09" y="79.14999999999999"/>
      <point x="679.09" y="124.44" type="curve" smooth="yes"/>
      <point x="679.09" y="135.34"/>
      <point x="680.0899999999999" y="158.52"/>
      <point x="740.99" y="536.2" type="curve"/>
      <point x="638.84" y="536.2" type="line"/>
      <point x="579.25" y="140.85999999999999" type="line"/>
      <point x="484.94" y="93.67"/>
      <point x="408.27000000000004" y="64.8"/>
      <point x="312.40999999999997" y="64.8" type="curve" smooth="yes"/>
      <point x="226.73" y="64.8"/>
      <point x="184.34" y="103.71"/>
      <point x="184.34" y="170.69" type="curve" smooth="yes"/>
      <point x="184.33999999999997" y="189.03"/>
      <point x="186.89000000000001" y="214.86"/>
      <point x="239.1" y="536.2" type="curve"/>
      <point x="137.64" y="536.2" type="line"/>
      <point x="81.09" y="174.95999999999998"/>
      <point x="80.09" y="158.44000000000003"/>
      <point x="80.09" y="143.34" type="curve" smooth="yes"/>
      <point x="80.09" y="50.0"/>
      <point x="142.60000000000002" y="-10.0"/>
      <point x="268.42" y="-10.0" type="curve" smooth="yes"/>
      <point x="378.29999999999995" y="-10.0"/>
      <point x="472.61" y="23.520000000000003"/>
      <point x="581.35" y="82.49000000000001" type="curve"/>
      <point x="588.79" y="24.619999999999997"/>
      <point x="621.02" y="-9.38"/>
      <point x="680.4599999999999" y="-9.38" type="curve" smooth="yes"/>
      <point x="696.8299999999999" y="-9.38"/>
      <point x="714.99" y="11.26"/>
      <point x="681.8199999999999" y="16.089999999999996" type="curve"/>
      <point x="609.95" y="-8.499999999999995"/>
      <point x="560.22" y="-53.02"/>
      <point x="560.22" y="-113.54" type="curve" smooth="yes"/>
      <point x="560.22" y="-176.13"/>
      <point x="605.9100000000001" y="-211.94"/>
    </contour>
  </outline>
</glyph>
